<svg width="30" height="30" viewBox="0 0 30 30" fill="none" xmlns="http://www.w3.org/2000/svg">
<path d="M15 4.39453C13.5461 4.39453 12.3633 5.57739 12.3633 7.03125C12.3633 8.48511 13.5461 9.66797 15 9.66797C16.4539 9.66797 17.6367 8.48511 17.6367 7.03125C17.6367 5.57739 16.4539 4.39453 15 4.39453Z" fill="#38282B"/>
<path d="M15 0C11.123 0 7.96875 3.15422 7.96875 7.03125C7.96875 8.36082 8.34206 9.65607 9.04861 10.7769L15 20.2734L20.9514 10.7769C21.6579 9.65607 22.0312 8.36082 22.0312 7.03125C22.0312 3.15422 18.877 0 15 0ZM15 11.4258C12.5771 11.4258 10.6055 9.45419 10.6055 7.03125C10.6055 4.60831 12.5771 2.63672 15 2.63672C17.4229 2.63672 19.3945 4.60831 19.3945 7.03125C19.3945 9.45419 17.4229 11.4258 15 11.4258Z" fill="#38282B"/>
<path d="M10.7227 30H19.2748L18.5989 24.668H11.3816L10.7227 30Z" fill="#38282B"/>
<path d="M11.6016 22.9104H14.5848L12.0953 18.9619L11.6016 22.9104Z" fill="#38282B"/>
<path d="M20.147 22.9102H27.0714L24.8741 17.6367H19.4707L20.147 22.9102Z" fill="#38282B"/>
<path d="M2.92969 22.9102H9.83002L10.4892 17.6367H5.12695L2.92969 22.9102Z" fill="#38282B"/>
<path d="M15.416 22.9101H18.3736L17.874 19.0122L15.416 22.9101Z" fill="#38282B"/>
<path d="M9.61006 24.668H2.19704L0 30H8.95111L9.61006 24.668Z" fill="#38282B"/>
<path d="M27.8027 24.668H20.3711L21.0472 30H29.9997L27.8027 24.668Z" fill="#38282B"/>
</svg>
