<svg width="41" height="40" viewBox="0 0 41 40" fill="none" xmlns="http://www.w3.org/2000/svg">
<path d="M38.1713 24.5163H34.8036L34.5249 23.4008C34.31 22.5389 33.5371 21.9357 32.6475 21.9357H23.0501C22.1605 21.9357 21.3882 22.5389 21.1727 23.4015L20.894 24.5163H17.5263C16.4592 24.5163 15.5908 25.3847 15.5908 26.4518V38.0646C15.5908 39.1317 16.4592 40.0001 17.5263 40.0001H38.1713C39.2384 40.0001 40.1068 39.1317 40.1068 38.0646V26.4518C40.1068 25.3847 39.2384 24.5163 38.1713 24.5163ZM22.4237 23.715C22.4959 23.4273 22.7533 23.226 23.0501 23.226H32.6481C32.9449 23.226 33.2017 23.4273 33.2746 23.7144L33.4746 24.5163H22.223L22.4237 23.715ZM19.4618 25.8066H22.0424V27.0969H19.4618V25.8066ZM38.8165 29.6775H34.3004V30.9679H38.8165V34.8388H34.3004V36.1291H38.8165V38.0646C38.8165 38.4207 38.5274 38.7097 38.1713 38.7097H17.5263C17.1702 38.7097 16.8811 38.4207 16.8811 38.0646V36.1291H21.3972V34.8388H16.8811V30.9679H21.3972V29.6775H16.8811V26.4518C16.8811 26.0956 17.1702 25.8066 17.5263 25.8066H18.1714V27.0969C18.1714 27.8085 18.7502 28.3872 19.4618 28.3872H22.0424C22.754 28.3872 23.3327 27.8085 23.3327 27.0969V25.8066H38.1713C38.5274 25.8066 38.8165 26.0956 38.8165 26.4518V29.6775Z" fill="#F78484"/>
<path d="M27.8491 27.0959C25.0033 27.0959 22.6879 29.4114 22.6879 32.2572C22.6879 35.103 25.0033 37.4185 27.8491 37.4185C30.6949 37.4185 33.0104 35.103 33.0104 32.2572C33.0104 29.4114 30.6949 27.0959 27.8491 27.0959ZM27.8491 36.1281C25.7143 36.1281 23.9782 34.392 23.9782 32.2572C23.9782 30.1224 25.7143 28.3863 27.8491 28.3863C29.9839 28.3863 31.7201 30.1224 31.7201 32.2572C31.7201 34.392 29.9839 36.1281 27.8491 36.1281Z" fill="#F78484"/>
<path d="M27.8488 29.6772C26.4256 29.6772 25.2682 30.8347 25.2682 32.2579C25.2682 33.6811 26.4256 34.8385 27.8488 34.8385C29.272 34.8385 30.4294 33.6811 30.4294 32.2579C30.4294 30.8347 29.272 29.6772 27.8488 29.6772ZM27.8488 33.5482C27.1372 33.5482 26.5585 32.9695 26.5585 32.2579C26.5585 31.5463 27.1372 30.9676 27.8488 30.9676C28.5604 30.9676 29.1391 31.5463 29.1391 32.2579C29.1391 32.9695 28.5604 33.5482 27.8488 33.5482Z" fill="#F78484"/>
<path d="M37.5266 27.0959H36.2363V28.3863H37.5266V27.0959Z" fill="#F78484"/>
<path d="M6.55221 25.8972L5.2748 25.7146L4.70835 29.6765H1.50451L2.3316 24.2985C2.51031 23.1334 3.3103 22.1605 4.41739 21.7579L8.72704 20.1908C9.54703 22.2159 12.1973 25.2198 12.5296 25.5908L13.0102 26.1282L13.4909 25.5901C13.8225 25.2192 16.4741 22.2147 17.2934 20.1902L21.1766 21.6024L21.6179 20.3902L17.5263 18.9024V18.0637H16.236V19.2895C16.0012 20.4624 14.1289 22.8579 13.0102 24.1759C11.8915 22.8579 10.0193 20.4624 9.78445 19.2895V18.0637H8.49414V18.9024L3.97675 20.5456C2.42643 21.1082 1.30709 22.4714 1.05677 24.1024L0 30.9669H14.3005V29.6765H6.01222L6.55221 25.8972Z" fill="#F78484"/>
<path d="M6.8242 13.5102C7.05323 14.156 7.42226 14.7509 7.91774 15.2347L10.248 17.5134C10.6119 17.8683 11.0919 18.0644 11.6003 18.0644H14.419C14.9274 18.0644 15.4074 17.8683 15.7725 17.5128L18.1022 15.2347C18.597 14.7509 18.966 14.156 19.1957 13.5102C20.4383 13.3244 21.397 12.2612 21.397 10.9677C21.397 10.0167 20.8744 9.19348 20.1067 8.74574V7.09672C20.1067 3.18385 16.9228 0 13.01 0C9.09709 0 5.91324 3.18385 5.91324 7.09672V8.74574C5.1455 9.19348 4.62292 10.0167 4.62292 10.9677C4.62292 12.2612 5.58163 13.3244 6.8242 13.5102ZM19.4615 12.0051V9.8567C19.8454 10.0806 20.1067 10.4922 20.1067 10.9677C20.1067 11.4444 19.8435 11.8573 19.4577 12.0806C19.4583 12.0554 19.4615 12.0302 19.4615 12.0051ZM18.1712 12.0051C18.1712 12.8683 17.817 13.7089 17.2003 14.3122L14.8712 16.5896C14.7487 16.7083 14.5887 16.7741 14.4196 16.7741H11.6009C11.4313 16.7741 11.2713 16.7083 11.15 16.5902L8.82031 14.3122C8.2029 13.7089 7.84871 12.8683 7.84871 12.0051V9.67735H8.33774C10.0674 9.67735 11.7042 9.07606 13.01 7.9722C14.3158 9.07606 15.9532 9.67735 17.6822 9.67735H18.1712V12.0051ZM7.20355 7.09672C7.20355 3.89481 9.80805 1.29031 13.01 1.29031C16.2119 1.29031 18.8164 3.89481 18.8164 7.09672V8.38704H17.6822C16.0893 8.38704 14.5925 7.76704 13.4661 6.6406L13.01 6.18447L12.5538 6.6406C11.4274 7.76704 9.93063 8.38704 8.33774 8.38704H7.20355V7.09672ZM6.5584 9.8567V12.0051C6.5584 12.0302 6.56162 12.0554 6.56227 12.0806C6.17646 11.8573 5.91324 11.4444 5.91324 10.9677C5.91324 10.4922 6.17453 10.0806 6.5584 9.8567Z" fill="#F78484"/>
</svg>
