<svg width="28" height="40" viewBox="0 0 28 40" fill="none" xmlns="http://www.w3.org/2000/svg">
<path d="M12.9032 14.8386H14.1935V17.4193H12.9032V14.8386Z" fill="#F78484"/>
<path d="M10.0001 15.4839C10.5337 15.4839 10.9678 15.0498 10.9678 14.5162C10.9678 13.9826 10.5337 13.5485 10.0001 13.5485C9.46645 13.5485 9.03235 13.9826 9.03235 14.5162C9.03235 15.0498 9.46645 15.4839 10.0001 15.4839Z" fill="#F78484"/>
<path d="M17.0969 15.4839C17.6305 15.4839 18.0646 15.0498 18.0646 14.5162C18.0646 13.9826 17.6305 13.5485 17.0969 13.5485C16.5632 13.5485 16.1292 13.9826 16.1292 14.5162C16.1292 15.0498 16.5632 15.4839 17.0969 15.4839Z" fill="#F78484"/>
<path d="M13.5485 23.2257C16.0381 23.2257 18.0646 21.1992 18.0646 18.7096H16.7743C16.7743 20.4882 15.3271 21.9354 13.5485 21.9354C11.7699 21.9354 10.3227 20.4882 10.3227 18.7096H9.03235C9.03235 21.1992 11.0589 23.2257 13.5485 23.2257Z" fill="#F78484"/>
<path d="M23.9091 24.9937L19.4292 23.6155C20.8981 22.351 21.9588 20.6272 22.3781 18.6653C23.9459 18.4463 25.1613 17.111 25.1613 15.4839C25.1613 13.9264 24.0508 12.6232 22.5806 12.3233V9.03226C22.5806 4.05147 18.5292 0 13.5484 0C8.5676 0 4.51613 4.05147 4.51613 9.03226V12.3233C3.04593 12.6232 1.93548 13.9258 1.93548 15.4839C1.93548 17.111 3.15083 18.4463 4.71869 18.6653C5.13861 20.6272 6.19928 22.3516 7.66759 23.6155L3.18769 24.9937C1.28056 25.5806 0 27.316 0 29.3111V39.3548C0 39.7118 0.288244 40 0.645161 40H26.4516C26.8085 40 27.0968 39.7118 27.0968 39.3548V29.3111C27.0968 27.316 25.8162 25.5806 23.9091 24.9937ZM5.80645 9.03226C5.80645 8.98374 5.81275 8.93681 5.8137 8.88892L7.34911 8.50523C11.4 7.4937 15.6962 7.4937 19.747 8.50523L21.2824 8.88892C21.284 8.93681 21.2903 8.98374 21.2903 9.03226V9.2786L19.3051 10.2709L17.5239 9.67679C14.955 8.82119 12.1418 8.82056 9.57283 9.67742L7.79171 10.2709L5.80645 9.2786V9.03226ZM13.5484 1.55746L14.0373 2.04637C15.2659 3.27495 15.9844 4.87305 16.1045 6.58833C14.4052 6.42704 12.6922 6.42704 10.9929 6.58833C11.113 4.8721 11.8315 3.27432 13.0601 2.04637L13.5484 1.55746ZM23.871 15.4839C23.871 16.3335 23.3168 17.0495 22.5536 17.3091C22.564 17.1311 22.5806 16.9547 22.5806 16.7742V13.6671C23.3298 13.9343 23.871 14.644 23.871 15.4839ZM21.1407 7.52394L20.0599 7.25365C19.1844 7.03408 18.2954 6.87153 17.402 6.74269C17.3214 4.78453 16.5767 2.9489 15.2728 1.49036C18.2302 2.16702 20.5478 4.53597 21.1407 7.52394ZM11.824 1.49099C10.5201 2.94953 9.77539 4.78453 9.69475 6.74332C8.80135 6.87216 7.91299 7.03472 7.03692 7.25428L5.95609 7.52457C6.54895 4.53597 8.86656 2.16702 11.824 1.49099ZM3.22581 15.4839C3.22581 14.644 3.76701 13.9343 4.51613 13.6671V16.7742C4.51613 16.9547 4.53283 17.1311 4.54322 17.3091C3.77993 17.0495 3.22581 16.3335 3.22581 15.4839ZM5.80645 16.7742V10.7214L7.45369 11.5445C7.60711 11.622 7.78257 11.6356 7.94638 11.5795L9.98141 10.9006C12.2858 10.1336 14.811 10.1336 17.116 10.9006L19.151 11.5795C19.2175 11.6019 19.2865 11.6129 19.3548 11.6129C19.4534 11.6129 19.553 11.5902 19.6431 11.5452L21.2903 10.7214V16.7742C21.2903 21.0433 17.8175 24.5161 13.5484 24.5161C9.27923 24.5161 5.80645 21.0433 5.80645 16.7742ZM17.1947 25.0309C16.7269 26.2361 15.562 27.0968 14.1935 27.0968H12.9032C11.5348 27.0968 10.3698 26.2361 9.90203 25.0309C11.0188 25.5258 12.2502 25.8064 13.5484 25.8064C14.8466 25.8064 16.078 25.5258 17.1947 25.0309ZM3.56697 26.227L8.46963 24.7187C8.86845 26.8044 10.7031 28.3871 12.9032 28.3871H14.1935C16.3937 28.3871 18.2283 26.8044 18.6271 24.7193L23.5298 26.2276C24.891 26.6463 25.8065 27.8859 25.8065 29.3111V34.1935H22.5806V30.9677C22.5806 30.6108 22.2924 30.3226 21.9355 30.3226H5.16129C4.80437 30.3226 4.51613 30.6108 4.51613 30.9677V34.1935H1.29032V29.3111C1.29032 27.8859 2.20577 26.6463 3.56697 26.227ZM16.3555 36.1697L17.4194 35.1058L18.4832 36.1697C18.2387 36.2613 18.0645 36.4973 18.0645 36.7742V38.7097H16.7742V36.7742C16.7742 36.4973 16.6 36.2613 16.3555 36.1697ZM20.4562 36.318L17.8755 33.7374C17.6232 33.4851 17.2155 33.4851 16.9632 33.7374L14.3826 36.318C14.198 36.5026 14.1425 36.7799 14.2427 37.0212C14.3419 37.2625 14.5782 37.4194 14.8387 37.4194H15.4839V38.7097H5.80645V31.6129H7.09677V36.7742C7.09677 37.1311 7.38502 37.4194 7.74194 37.4194H10.3226C10.6795 37.4194 10.9677 37.1311 10.9677 36.7742V31.6129H21.2903V38.7097H19.3548V37.4194H20C20.2605 37.4194 20.4968 37.2625 20.596 37.0212C20.6962 36.7799 20.6408 36.5026 20.4562 36.318ZM8.3871 31.6129H9.67742V36.129H8.3871V31.6129ZM1.29032 35.4839H4.51613V38.7097H1.29032V35.4839ZM22.5806 38.7097V35.4839H25.8065V38.7097H22.5806Z" fill="#F78484"/>
</svg>
