<svg width="33" height="40" viewBox="0 0 33 40" fill="none" xmlns="http://www.w3.org/2000/svg">
<path d="M30.6529 7.01993C30.0831 6.6942 29.513 6.53133 28.9427 6.4499C29.4315 6.12417 29.7571 5.71701 30.0828 5.30985C30.5714 4.41409 30.4901 3.35547 29.5942 2.70401C28.8612 2.13399 27.884 2.13399 27.0697 2.45972C26.5811 2.70401 26.2553 3.02974 25.9297 3.35547C25.9297 2.94831 25.9297 2.54115 25.8483 2.21542C25.6853 1.4011 25.2784 0.179614 24.3011 0.0167491C23.3239 -0.146115 22.5096 0.912504 22.1839 1.72683C22.021 2.05256 21.9396 2.45972 21.9396 2.78545C20.7996 1.4011 18.9264 0.586775 17.3795 1.72683C16.6466 2.29685 16.2394 3.35547 16.6466 4.25123C16.7279 4.49552 16.8909 4.65839 17.0539 4.82125C16.5652 5.22842 16.1583 5.79844 15.8324 6.4499C15.5881 5.96131 15.2624 5.47271 14.8552 4.98412C15.9138 3.76263 15.9951 0.505343 14.2038 0.179614C12.3308 -0.146115 10.7836 1.72683 10.295 3.35547C10.0507 1.64539 9.07352 -0.0646832 7.03784 0.179614C6.06066 0.261046 5.4092 0.993936 5.24633 1.88969C5.1649 2.21542 5.24633 2.62258 5.32776 2.94831C3.53625 1.80826 1.09329 1.1568 0.441827 3.35547C0.0346659 4.65839 1.01185 6.12417 2.23334 7.01993C1.17472 7.50852 0.278963 8.40427 0.0346657 9.62576C-0.128199 10.6029 0.278963 11.6616 1.33758 11.9059C1.98904 12.0687 2.80336 11.9873 3.61769 11.743C2.3962 13.2902 1.74474 15.6517 3.86198 16.7104C4.9206 17.2804 6.22352 17.0361 7.20071 16.3846C7.9336 15.896 8.82935 14.8374 9.07365 13.8602C9.48081 13.9417 9.88797 13.9417 10.3766 13.9417C8.91079 15.1632 7.85217 17.0361 8.58506 18.8276C9.15508 20.2934 10.9466 20.3748 12.1681 19.8862C12.4938 19.8048 12.8195 19.6419 13.1453 19.3976C14.7739 22.3292 15.2625 26.1565 15.3439 29.9838C14.1225 29.4952 12.2495 29.3324 11.9238 30.9613C11.7609 31.7753 12.4938 32.1011 13.2267 32.1828C13.3081 32.1828 13.3896 32.1828 13.471 32.2639C13.3896 32.3454 13.2267 32.4271 13.1453 32.5085C12.6567 32.9157 11.9238 33.404 12.3309 34.1369C12.901 35.1955 14.4482 34.6255 15.3441 33.974C15.2626 36.0098 15.2626 38.0456 15.2626 39.7557C15.2626 40.0814 15.6699 40.0814 15.7512 39.7557C15.9955 37.7199 16.077 35.6027 16.077 33.5668C16.5654 33.648 17.0541 33.7297 17.5427 33.7297C17.4614 35.7655 17.5427 37.8013 18.1126 39.7557C18.1941 40.0814 18.7641 40.0814 18.7641 39.6743C18.5197 31.7753 20.7185 25.3422 23.5685 18.2576C24.4641 18.1761 25.197 17.6876 25.5228 16.5475C25.6857 15.8146 25.5228 15.2446 25.2785 14.6746C25.4414 14.756 25.6041 14.8374 25.6857 14.9189C26.663 15.4074 27.8029 15.4074 28.6988 14.8374C29.5946 14.2674 29.9205 13.1273 29.5946 12.1502C29.5132 11.743 29.2689 11.3358 29.0246 11.0101C29.2689 11.0101 29.5132 10.9287 29.8389 10.9287C30.7345 10.7658 32.2817 10.3586 32.526 9.30003C32.6073 8.40427 31.386 7.42709 30.6529 7.01993ZM13.2264 1.48253C14.4479 1.07537 14.4479 2.54115 14.3665 3.35547C14.2851 3.6812 14.1222 4.00693 14.0408 4.41409C13.2264 3.76263 12.0049 3.11118 11.0276 3.4369C11.4349 2.45972 12.2494 1.80826 13.2264 1.48253ZM7.52617 9.38146C6.79328 9.87005 6.30469 10.6844 6.30469 11.5801C6.30469 12.5573 6.79328 13.2088 7.6076 13.6159C6.87471 14.5931 6.30469 15.896 4.92034 15.7332C3.94315 15.6517 3.69885 14.5931 3.86172 13.7788C4.10601 12.883 4.75747 12.1502 5.16463 11.4173C5.24607 11.2544 5.24607 11.0915 5.16463 11.0101C5.3275 10.6844 5.24607 10.1958 4.75747 10.2772C4.02458 10.3586 3.29169 10.6029 2.5588 10.6844C2.23307 10.7658 1.66305 10.8472 1.41875 10.5215C1.25588 10.2772 1.41875 9.87006 1.50018 9.70719C1.82591 8.89287 2.64023 8.24141 3.45456 7.91568C4.18745 8.15998 4.92034 8.24141 5.5718 7.91568C5.89752 7.75282 5.81609 7.26422 5.5718 7.10136C4.92034 6.6942 4.10601 6.61276 3.45456 6.2056C2.88453 5.87987 1.82591 5.06555 1.82591 4.33266C1.74448 2.78545 4.51318 4.08836 5.89752 4.82125C6.06039 5.06555 6.30469 5.30985 6.63042 5.47271C6.87471 5.55414 7.20044 5.47271 7.20044 5.14698C7.28187 5.06555 7.28187 4.90269 7.20044 4.73982C7.11901 4.65839 7.11901 4.57696 7.03758 4.49552C6.63042 3.27404 5.73466 1.48253 7.52617 1.48253C9.23625 1.48253 9.48055 3.59977 9.80627 4.90269C9.72484 5.55414 9.88771 6.28703 10.0506 6.93849C9.64341 6.53133 9.07338 6.36847 8.50349 6.4499C7.7706 6.53133 7.11914 7.01993 6.95628 7.75282C6.79341 8.40427 7.03771 8.9743 7.52617 9.38146ZM9.64354 8.73C9.15495 8.73 8.74779 8.81143 8.25919 8.9743C8.25919 8.9743 8.17776 8.9743 8.17776 9.05573C8.17776 9.05573 8.17776 9.05573 8.17776 8.9743C7.68917 8.40427 8.09633 7.58995 8.74779 7.50852C9.07352 7.50852 9.39925 7.67138 9.56211 7.99711C9.64354 8.24141 9.64354 8.48571 9.64354 8.73ZM12.9007 31.3682C12.6564 30.9609 13.5522 30.7167 13.8779 30.6353C14.3666 30.6353 14.8552 30.7981 15.2622 30.9609C15.2622 31.0422 15.2622 31.0422 15.2622 31.1239C15.0179 31.2867 14.6922 31.4496 14.4479 31.6939C14.1225 31.6939 13.0637 31.6939 12.9007 31.3682ZM13.7965 33.6483C14.2036 33.3226 14.6108 32.9968 15.0179 32.5897C15.0994 32.5897 15.2622 32.5897 15.3437 32.5897C15.3437 32.7528 15.3437 32.834 15.3437 32.9971C14.9364 33.2414 14.5293 33.4857 14.1222 33.5671C13.9593 33.6483 13.8779 33.6483 13.7965 33.6483ZM17.4609 33.2411C16.9723 33.3223 16.4837 33.3223 15.9951 33.2411C15.9951 32.9968 15.9951 32.7525 15.9951 32.5082C16.0766 32.5082 16.1581 32.5082 16.3209 32.4268C16.4837 32.3454 16.565 32.2638 16.565 32.1011C16.8908 32.1011 17.298 32.1011 17.7051 32.1825C17.5425 32.5897 17.4609 32.9154 17.4609 33.2411ZM17.9495 29.9838C17.3795 29.9838 16.8095 30.0653 16.2393 30.147C15.995 30.147 16.0764 30.5541 16.3207 30.5541C16.8092 30.5541 17.3793 30.5541 17.8678 30.6356C17.7865 31.0427 17.7048 31.3684 17.6235 31.7753C17.2162 31.7753 16.7279 31.8568 16.3206 31.8568C16.2392 31.8568 16.2392 31.7753 16.1577 31.7753C16.0763 31.7753 15.9947 31.7753 15.9134 31.7753L15.9947 31.6942C16.1577 31.531 16.0762 31.2056 15.9134 31.0427C15.9947 30.8798 16.0763 30.717 15.832 30.5541C15.832 30.5541 15.832 30.5541 15.7506 30.5541C15.6693 29.0883 15.5063 27.6226 15.3434 26.0753C15.0177 23.7138 14.8548 21.2711 13.5519 19.3165C13.9591 18.9907 14.3662 18.665 14.6918 18.1764C14.3662 19.1536 14.2847 20.2122 14.7732 21.108C15.3433 22.1666 16.5648 22.9809 17.7864 22.6552C20.2292 22.0037 20.1479 19.1539 19.2523 17.1992C20.1479 17.6878 21.2881 18.1764 22.3467 18.3393C20.6369 22.0035 18.8454 25.9122 17.9495 29.9838ZM24.0571 16.2218C23.8128 18.5833 19.5783 16.3846 18.6011 15.9775C18.6011 15.9775 18.6011 15.9775 18.5197 15.9775C18.1941 15.7332 17.624 16.1403 17.7055 16.6289C18.1941 18.0133 19.5783 19.9675 18.0311 21.2706C17.1354 22.0848 16.1583 21.2706 15.751 20.3748C15.3438 19.3976 15.6697 18.1761 15.9953 17.199C16.0767 16.8732 15.6697 16.5475 15.4254 16.7104C15.3439 16.4661 15.0181 16.3032 14.7739 16.4661C13.7967 17.199 10.9466 20.212 9.96941 18.339C9.07378 16.7104 11.028 14.756 12.5752 13.8602C12.901 13.7788 13.2267 13.6974 13.471 13.5345C13.9596 13.2902 13.7153 12.5573 13.2267 12.5573C12.1681 12.5573 7.60787 13.2088 7.77073 11.3358C7.9336 9.54433 10.7023 9.95149 12.3308 10.1958C12.7381 10.4401 13.2266 10.6844 13.6337 10.7658C14.1223 10.8472 14.7738 10.1958 14.2038 9.78862C13.3894 9.2186 12.5751 8.73 12.0052 7.91568C11.5979 7.34565 10.8652 6.04274 11.1095 5.22842C11.5166 4.00693 13.3896 5.63558 13.8782 6.12417C14.6112 6.85706 14.9368 7.75282 15.3441 8.64857C15.5069 8.9743 16.077 8.81143 16.077 8.48571C16.077 8.40427 16.077 8.40427 16.077 8.32284C16.9726 7.26422 17.1356 4.98412 19.09 5.30985C20.4742 5.55414 20.3116 7.50852 19.5786 8.73C19.253 9.05573 18.9271 9.30003 18.7644 9.62576C18.7644 9.62576 18.6829 9.62576 18.6829 9.70719C18.4386 9.78862 18.4386 10.2772 18.7644 10.2772C18.9272 10.4401 19.09 10.5215 19.253 10.3586C20.3929 9.62576 22.5917 7.58995 23.976 8.48571C25.6861 9.62576 22.1031 13.1273 20.6372 12.3945C20.2299 12.2316 19.9857 12.5573 19.9857 12.8016H19.9044C19.4971 12.883 19.4971 13.4531 19.9044 13.6159C21.2882 14.1045 24.3014 14.0231 24.0571 16.2218ZM23.7312 13.4531C23.4869 13.2902 23.2426 13.2088 22.9983 13.0459C23.1613 12.9645 23.3239 12.883 23.4869 12.8016C23.4869 12.9645 23.5685 13.2088 23.7312 13.4531ZM30.8972 9.2186C30.7344 9.54433 29.1872 9.78862 28.8614 9.87006C28.21 9.95149 27.7215 9.70719 27.0699 9.46289C26.6626 9.30003 26.2556 9.78862 26.3369 10.1958C26.3369 10.3586 26.4183 10.4401 26.4999 10.5215C26.5813 10.5215 26.5813 10.6029 26.6629 10.6029C26.7442 10.6844 26.8259 10.7658 26.9885 10.8472C27.4772 11.2544 27.9658 11.743 28.1285 12.3945C28.2914 13.1273 28.0471 13.8602 27.2329 13.9417C25.8486 14.0231 25.36 12.7202 24.4641 11.9873C25.4413 11.0915 26.1743 10.0329 25.767 8.64857C25.197 6.53133 22.9982 6.85706 21.1252 7.75282C21.3697 6.61276 21.2067 5.39128 20.3923 4.73982C19.6593 4.1698 18.6821 4.08836 17.8678 4.41409C17.5422 4.08836 17.4605 3.6812 17.6235 3.27404C17.9492 2.62258 18.7636 2.45972 19.415 2.70401C20.7179 3.11118 21.1252 4.33266 22.0209 5.14698C22.2653 5.39128 22.6723 5.22842 22.6723 4.90269C22.7537 4.82125 22.8353 4.65839 22.8353 4.49552C22.754 3.9255 22.6723 3.35547 22.8353 2.86688C22.9983 2.45972 23.4053 1.31967 24.0569 1.56396C24.4642 1.72683 24.627 3.02974 24.5455 3.35547C24.5455 4.00693 24.2199 4.49552 24.1382 5.06555C24.2197 5.30985 24.464 5.55414 24.7897 5.55414C24.9527 5.79844 25.2783 5.87987 25.5227 5.63558C26.1742 4.65839 27.2329 2.94831 28.6171 3.59977C30.7344 4.49552 26.9069 6.2056 26.4999 6.6942C26.1743 7.01993 26.4999 7.67138 26.9885 7.50852C26.9885 7.50852 26.9885 7.50852 27.0699 7.50852C27.1512 7.58995 27.3142 7.67138 27.4772 7.58995C28.2101 7.42709 28.943 7.58995 29.5943 7.83425C29.9201 7.91568 31.1417 8.64857 30.8972 9.2186Z" fill="#F78484"/>
<path d="M17.7052 11.173C17.1352 10.6844 16.2393 10.6844 15.6694 11.0915C15.5879 11.0101 15.4251 10.9287 15.2621 11.0915C14.4478 11.8244 13.7149 13.1273 14.5292 14.186C15.3435 15.1631 16.972 15.0003 17.7864 14.186C18.6011 13.3716 18.6824 11.9873 17.7052 11.173ZM16.9723 13.5345C16.4837 13.9417 15.5065 14.186 15.0995 13.5345C14.8552 13.1273 15.0181 12.5573 15.2623 12.0687C15.3438 12.1502 15.5066 12.1502 15.6696 12.0687C16.0768 11.5801 16.8094 11.4173 17.2167 11.9873C17.6238 12.4759 17.4609 13.1273 16.9723 13.5345Z" fill="#F78484"/>
</svg>
