<svg width="28" height="40" viewBox="0 0 28 40" fill="none" xmlns="http://www.w3.org/2000/svg">
<path d="M0.624987 32.9991C1.44452 32.9991 1.46624 31.6797 0.624987 31.6797C-0.216576 31.6797 -0.194311 32.9991 0.624987 32.9991Z" fill="#F78484"/>
<path d="M21.5148 22.7344H5.51641C2.47469 22.7344 0 25.2091 0 28.2508V30.1562C0 30.5014 0.279844 30.7812 0.625 30.7812C0.970156 30.7812 1.25 30.5014 1.25 30.1562V28.2508C1.25 25.8983 3.16391 23.9844 5.51641 23.9844H7.71828C6.65414 24.7355 6.44836 24.7963 6.40961 25.1698C6.39102 25.3493 6.45078 25.528 6.57367 25.6601L9.51055 28.8171L9.29906 31.3544C9.2707 31.695 9.52125 31.9952 9.86141 32.0284L14.9219 32.5203V38.75H6.40625V30.4688C6.40625 30.1236 6.12641 29.8438 5.78125 29.8438C5.43609 29.8438 5.15625 30.1236 5.15625 30.4688V38.75H1.40625C1.32008 38.75 1.25 38.6799 1.25 38.5938V34.6224C1.25 34.2773 0.970156 33.9974 0.625 33.9974C0.279844 33.9974 0 34.2773 0 34.6224V38.5938C0 39.3691 0.630859 40 1.40625 40H25.625C26.4004 40 27.0312 39.3691 27.0312 38.5938V28.2508C27.0312 25.2091 24.5566 22.7344 21.5148 22.7344ZM16.1612 23.9844L14.272 26.7551C14.0776 27.0402 14.1511 27.4291 14.4363 27.6235C14.7213 27.8179 15.1104 27.7445 15.3048 27.4592L17.5023 24.2362L19.0552 25.3324L16.4173 28.168C16.2975 28.2968 16.2375 28.4702 16.2521 28.6455L16.4364 30.8571L15.6223 30.9544L10.8701 23.9844H16.1612ZM10.5959 30.8438L10.7791 28.6456C10.7938 28.4703 10.7338 28.2969 10.6139 28.168L7.97609 25.3325L9.52898 24.2363L14.2782 31.2019L10.5959 30.8438ZM25.7812 38.5938C25.7812 38.6799 25.7112 38.75 25.625 38.75H21.875V30.4688C21.875 30.1236 21.5952 29.8438 21.25 29.8438C20.9048 29.8438 20.625 30.1236 20.625 30.4688V38.75H16.1719V32.1477L17.1834 32.0269C17.5176 31.987 17.7602 31.6898 17.7322 31.3545L17.5207 28.8172L20.4576 25.6602C20.7153 25.3829 20.6694 24.942 20.3604 24.7238L19.313 23.9844H21.5148C23.8673 23.9844 25.7812 25.8983 25.7812 28.2508V38.5938Z" fill="#F78484"/>
<path d="M12.5 35.5469H12.9688C13.3139 35.5469 13.5938 35.267 13.5938 34.9219C13.5938 34.5767 13.3139 34.2969 12.9688 34.2969H12.5C12.1548 34.2969 11.875 34.5767 11.875 34.9219C11.875 35.267 12.1548 35.5469 12.5 35.5469Z" fill="#F78484"/>
<path d="M12.5 38.6719H12.9688C13.3139 38.6719 13.5938 38.392 13.5938 38.0469C13.5938 37.7017 13.3139 37.4219 12.9688 37.4219H12.5C12.1548 37.4219 11.875 37.7017 11.875 38.0469C11.875 38.392 12.1548 38.6719 12.5 38.6719Z" fill="#F78484"/>
<path d="M3.20307 11.0938H5.62495V14.1526C5.62495 18.4377 9.09042 22.0312 13.5274 22.0312C17.8718 22.0312 21.4062 18.4969 21.4062 14.1525V11.0938H23.8281C24.3871 11.0938 24.6653 10.4118 24.2642 10.0212L21.4062 7.23633V2.5C21.4062 1.12148 20.2847 0 18.9062 0H16.1672C15.4994 0 14.8716 0.26 14.3994 0.732188C13.9121 1.21953 13.119 1.21953 12.6317 0.732188C12.1596 0.26 11.5317 0 10.8639 0H8.12495C6.74643 0 5.62495 1.12148 5.62495 2.5V7.23633L2.7669 10.0212C2.36651 10.4112 2.64307 11.0938 3.20307 11.0938ZM20.1562 14.1525C20.1562 17.7638 17.2364 20.7812 13.5036 20.7812C9.84862 20.7812 6.87495 17.8077 6.87495 14.1526V11.0938H7.49995V13.3008C7.49995 14.3346 8.34112 15.1758 9.37495 15.1758H12.1093C12.3114 15.1758 12.501 15.0781 12.6183 14.9136L13.5156 13.6548L14.4128 14.9135C14.5302 15.078 14.7198 15.1757 14.9218 15.1757H17.5781C18.6119 15.1757 19.4531 14.3345 19.4531 13.3007V11.0938H20.1562V14.1525ZM18.2031 11.0938V13.3008C18.2031 13.6454 17.9227 13.9258 17.5781 13.9258H15.2439L14.0246 12.2153C13.7755 11.8659 13.2557 11.866 13.0067 12.2153L11.7874 13.9258H9.37495C9.03034 13.9258 8.74995 13.6454 8.74995 13.3008V11.0938H18.2031ZM6.50409 8.125H15.2343C15.5795 8.125 15.8593 7.84516 15.8593 7.5C15.8593 7.15484 15.5795 6.875 15.2343 6.875H6.87495V2.5C6.87495 1.81078 7.43573 1.25 8.12495 1.25H10.8639C11.1978 1.25 11.5117 1.38 11.7478 1.61617C12.725 2.59328 14.3061 2.59328 15.2834 1.61617C15.5194 1.38008 15.8333 1.25 16.1672 1.25H18.9062C19.5954 1.25 20.1562 1.81078 20.1562 2.5V6.875H17.8906C17.5454 6.875 17.2656 7.15484 17.2656 7.5C17.2656 7.84516 17.5454 8.125 17.8906 8.125H20.5271L22.291 9.84375H4.7401L6.50409 8.125Z" fill="#F78484"/>
</svg>
