<svg width="47" height="53" viewBox="0 0 47 53" fill="none" xmlns="http://www.w3.org/2000/svg">
<path d="M46.1274 10.731L23.5768 0.116786C23.2423 -0.0409341 22.8413 -0.0387206 22.5093 0.12232L0.582639 10.7366C0.223031 10.9109 0 11.2441 0 11.6065V25.4715C0.0131564 36.8688 7.65763 47.1798 19.4796 51.7459L22.5231 52.9175C22.8075 53.027 23.1314 53.0276 23.4164 52.9186L26.8459 51.6103C38.8871 47.1433 46.7207 36.7327 46.722 25.1964V11.6065C46.722 11.2402 46.4933 10.9032 46.1274 10.731ZM44.4766 25.1964C44.4741 35.9374 37.1786 45.6292 25.9669 49.7858L25.9594 49.7891L22.9729 50.928L20.3779 49.928C9.37359 45.6779 2.25725 36.0808 2.24472 25.4715V12.1937L23.0562 2.11844L44.4766 12.2009V25.1964Z" fill="#F78484"/>
<path d="M14.7733 24.8285C14.3705 24.4118 13.6619 24.3625 13.1902 24.7183C12.7184 25.0736 12.6627 25.7001 13.0655 26.1162L18.9959 32.2507C19.3918 32.6602 20.0854 32.7161 20.5577 32.3763L34.3694 22.4505C34.8505 22.1052 34.9232 21.4804 34.5317 21.0554C34.1407 20.6309 33.4334 20.5662 32.9523 20.912L19.9914 30.2258L14.7733 24.8285Z" fill="#F78484"/>
</svg>
