<svg width="58" height="60" viewBox="0 0 58 60" fill="none" xmlns="http://www.w3.org/2000/svg">
<path d="M54.7964 30.7773C54.555 30.2834 54.555 29.7169 54.7964 29.2231L57.0342 24.6452C58.2802 22.0963 57.293 19.0582 54.7868 17.7285L50.2857 15.3402C49.8001 15.0826 49.4671 14.6242 49.3721 14.0829L48.4918 9.06392C48.0016 6.26948 45.4167 4.39168 42.6081 4.78906L37.5628 5.50273C37.0183 5.5796 36.4798 5.40452 36.0847 5.02238L32.4225 1.47959C30.3834 -0.493137 27.1889 -0.493254 25.1498 1.47959L21.4875 5.02273C21.0923 5.40499 20.5539 5.57972 20.0094 5.50308L14.9642 4.78941C12.1546 4.3918 9.57065 6.26983 9.08046 9.06427L8.20015 14.083C8.10511 14.6244 7.77218 15.0827 7.28668 15.3404L2.78553 17.7287C0.279374 19.0583 -0.707808 22.0966 0.538123 24.6455L2.7758 29.2233C3.01721 29.7173 3.01721 30.2838 2.7758 30.7776L0.538005 35.3554C-0.707925 37.9043 0.279257 40.9424 2.78541 42.2721L7.28656 44.6603C7.77218 44.9179 8.10511 45.3764 8.20015 45.9176L9.08046 50.9366C9.5267 53.4805 11.708 55.2646 14.215 55.2643C14.4619 55.2643 14.7125 55.247 14.9643 55.2114L20.0095 54.4977C20.5536 54.4205 21.0925 54.5959 21.4876 54.9781L25.1498 58.5209C26.1696 59.5073 27.4776 60.0005 28.7861 60.0003C30.0943 60.0002 31.4031 59.5071 32.4224 58.5209L36.0847 54.9781C36.4799 54.5959 37.0185 54.4213 37.5628 54.4977L42.6081 55.2114C45.418 55.6089 48.0016 53.731 48.4918 50.9365L49.3722 45.9178C49.4672 45.3764 49.8002 44.918 50.2857 44.6603L54.7868 42.2721C57.293 40.9425 58.2802 37.9042 57.0342 35.3552L54.7964 30.7773ZM53.1648 39.215L48.6637 41.6033C47.2286 42.3649 46.2444 43.7193 45.9637 45.3196L45.0834 50.3385C44.9176 51.284 44.0435 51.919 43.0928 51.7848L38.0475 51.0712C36.4385 50.8432 34.8464 51.3611 33.6787 52.4907L30.0163 56.0333C29.3266 56.7006 28.2458 56.7006 27.5558 56.0333L23.8936 52.4905C22.9066 51.5358 21.6164 51.0184 20.2695 51.0184C20.0227 51.0184 19.7739 51.0358 19.5247 51.0711L14.4795 51.7847C13.5296 51.919 12.6548 51.2839 12.4888 50.3384L11.6084 45.3194C11.3276 43.7191 10.3435 42.3645 8.90831 41.6032L4.40716 39.2149C3.5592 38.765 3.22522 37.7372 3.64674 36.8748L5.88454 32.2969C6.59797 30.8372 6.59797 29.1631 5.88454 27.7034L3.64674 23.1255C3.22522 22.2631 3.5592 21.2353 4.40716 20.7854L8.90831 18.3971C10.3434 17.6355 11.3276 16.2811 11.6083 14.6808L12.4886 9.66192C12.6545 8.71646 13.5285 8.08131 14.4793 8.2156L19.5245 8.92927C21.1329 9.15696 22.7256 8.63935 23.8933 7.50979L27.5557 3.96699C28.2454 3.29973 29.3262 3.29973 30.0162 3.96699L33.6784 7.50979C34.8462 8.63947 36.4387 9.15696 38.0473 8.92927L43.0925 8.2156C44.0426 8.08119 44.9174 8.71646 45.0832 9.66192L45.9635 14.6809C46.2443 16.2812 47.2284 17.6358 48.6636 18.3971L53.1647 20.7854C54.0127 21.2353 54.3467 22.2631 53.9252 23.1255L51.6874 27.7033C50.9739 29.1629 50.9739 30.8372 51.6874 32.2968L53.9252 36.8746C54.3468 37.7372 54.0128 38.7651 53.1648 39.215Z" fill="#F78484"/>
<path d="M41.4289 17.3575C40.7533 16.6818 39.6576 16.6818 38.9819 17.3575L16.1435 40.196C15.4678 40.8717 15.4678 41.9673 16.1435 42.643C16.4813 42.9808 16.9242 43.1498 17.3669 43.1498C17.8097 43.1498 18.2526 42.981 18.5904 42.643L41.4288 19.8046C42.1047 19.1288 42.1047 18.0333 41.4289 17.3575Z" fill="#F78484"/>
<path d="M35.7072 32.884C32.2089 32.884 29.3628 35.7302 29.3628 39.2284C29.3628 42.7267 32.2089 45.5728 35.7072 45.5728C39.2054 45.5728 42.0515 42.7267 42.0515 39.2284C42.0515 35.7302 39.2054 32.884 35.7072 32.884ZM35.7072 42.1121C34.1171 42.1121 32.8233 40.8185 32.8233 39.2284C32.8233 37.6383 34.1169 36.3447 35.7072 36.3447C37.2973 36.3447 38.5909 37.6383 38.5909 39.2284C38.5909 40.8185 37.2973 42.1121 35.7072 42.1121Z" fill="#F78484"/>
<path d="M21.8649 14.4279C18.3666 14.4279 15.5205 17.274 15.5205 20.7722C15.5205 24.2705 18.3666 27.1166 21.8649 27.1166C25.3631 27.1166 28.2093 24.2705 28.2093 20.7722C28.2093 17.274 25.3631 14.4279 21.8649 14.4279ZM21.8649 23.656C20.2748 23.656 18.9812 22.3623 18.9812 20.7721C18.9812 19.182 20.2748 17.8884 21.8649 17.8884C23.455 17.8884 24.7487 19.182 24.7487 20.7721C24.7486 22.3623 23.455 23.656 21.8649 23.656Z" fill="#F78484"/>
</svg>
