<svg width="34" height="40" viewBox="0 0 34 40" fill="none" xmlns="http://www.w3.org/2000/svg">
<path d="M8.38712 36.129H3.87099C3.69988 36.129 3.53578 36.197 3.41479 36.318C3.2938 36.439 3.22583 36.6031 3.22583 36.7742C3.22583 36.9453 3.2938 37.1094 3.41479 37.2304C3.53578 37.3514 3.69988 37.4194 3.87099 37.4194H8.38712C8.55823 37.4194 8.72233 37.3514 8.84332 37.2304C8.96431 37.1094 9.03228 36.9453 9.03228 36.7742C9.03228 36.6031 8.96431 36.439 8.84332 36.318C8.72233 36.197 8.55823 36.129 8.38712 36.129Z" fill="#F78484"/>
<path d="M10.9678 36.129H10.3226C10.1515 36.129 9.98738 36.197 9.86639 36.318C9.7454 36.439 9.67743 36.6031 9.67743 36.7742C9.67743 36.9453 9.7454 37.1094 9.86639 37.2304C9.98738 37.3514 10.1515 37.4194 10.3226 37.4194H10.9678C11.1389 37.4194 11.303 37.3514 11.424 37.2304C11.5449 37.1094 11.6129 36.9453 11.6129 36.7742C11.6129 36.6031 11.5449 36.439 11.424 36.318C11.303 36.197 11.1389 36.129 10.9678 36.129Z" fill="#F78484"/>
<path d="M24.8387 9.67742C24.2976 9.67764 23.7577 9.72785 23.2258 9.82742V3.22581C23.225 2.37053 22.8848 1.55053 22.28 0.94576C21.6753 0.340989 20.8553 0.000853995 20 0H3.22581C2.37053 0.000853995 1.55053 0.340989 0.94576 0.94576C0.340989 1.55053 0.000853995 2.37053 0 3.22581V36.7742C0.000853995 37.6295 0.340989 38.4495 0.94576 39.0542C1.55053 39.659 2.37053 39.9991 3.22581 40H20C20.8553 39.9991 21.6753 39.659 22.28 39.0542C22.8848 38.4495 23.225 37.6295 23.2258 36.7742V27.0968C23.2258 27.0968 25.0734 27.0944 25.1863 27.0887C27.4642 26.9977 29.6156 26.0172 31.1786 24.3577C32.7417 22.6982 33.5917 20.492 33.5462 18.2127C33.5007 15.9335 32.5633 13.7629 30.9353 12.1671C29.3073 10.5713 27.1184 9.6774 24.8387 9.67742ZM15.9871 1.29032L15.6 3.22581H7.62581L7.23871 1.29032H15.9871ZM21.9355 36.7742C21.9348 37.2873 21.7307 37.7792 21.3678 38.142C21.005 38.5049 20.5131 38.709 20 38.7097H3.22581C2.71269 38.709 2.22079 38.5049 1.85797 38.142C1.49514 37.7792 1.29101 37.2873 1.29032 36.7742V3.22581C1.29101 2.71269 1.49514 2.22079 1.85797 1.85797C2.22079 1.49514 2.71269 1.29101 3.22581 1.29032H5.92258L6.46452 3.99758C6.49363 4.14382 6.57256 4.27544 6.68785 4.37C6.80315 4.46455 6.94766 4.5162 7.09677 4.51613H16.129C16.2781 4.5162 16.4227 4.46455 16.538 4.37C16.6532 4.27544 16.7322 4.14382 16.7613 3.99758L17.3032 1.29032H20C20.5131 1.29101 21.005 1.49514 21.3678 1.85797C21.7307 2.22079 21.9348 2.71269 21.9355 3.22581V10.1758C20.2387 10.7781 18.7697 11.8906 17.7301 13.3607C16.6906 14.8308 16.1313 16.5866 16.129 18.3871C16.1204 20.4618 16.8606 22.47 18.2137 24.0427L14.55 25.8742C14.4198 25.9391 14.3153 26.0461 14.2536 26.1778C14.1919 26.3096 14.1765 26.4583 14.2099 26.5999C14.2433 26.7415 14.3236 26.8676 14.4378 26.9578C14.5519 27.048 14.6932 27.097 14.8387 27.0968H21.9355V36.7742ZM30.1823 23.5347C28.8563 24.916 27.0456 25.7282 25.1323 25.8C25.0347 25.804 17.5718 25.8064 17.5718 25.8064L19.5694 24.8081C19.662 24.7616 19.742 24.6935 19.8028 24.6096C19.8636 24.5257 19.9033 24.4284 19.9186 24.3259C19.9338 24.2234 19.9242 24.1188 19.8905 24.0208C19.8568 23.9228 19.8001 23.8343 19.725 23.7629C18.6604 22.7501 17.9205 21.444 17.5991 20.0102C17.2777 18.5764 17.3893 17.0795 17.9197 15.7092C18.4501 14.3389 19.3755 13.1569 20.5785 12.3132C21.7815 11.4694 23.2079 11.0019 24.6769 10.9698C26.1459 10.9378 27.5914 11.3426 28.8301 12.1331C30.0687 12.9235 31.0448 14.064 31.6345 15.4099C32.2242 16.7557 32.4009 18.2464 32.1424 19.6928C31.8839 21.1393 31.2017 22.4764 30.1823 23.5347Z" fill="#F78484"/>
<path d="M25.1613 16.129C24.7785 16.129 24.4043 16.2425 24.086 16.4552C23.7677 16.6679 23.5197 16.9702 23.3732 17.3238C23.2267 17.6775 23.1883 18.0667 23.263 18.4421C23.3377 18.8176 23.522 19.1624 23.7927 19.4331C24.0634 19.7038 24.4083 19.8881 24.7837 19.9628C25.1592 20.0375 25.5483 19.9992 25.902 19.8527C26.2557 19.7062 26.5579 19.4581 26.7706 19.1398C26.9833 18.8215 27.0968 18.4473 27.0968 18.0645C27.0962 17.5514 26.8921 17.0594 26.5292 16.6966C26.1664 16.3337 25.6745 16.1296 25.1613 16.129ZM25.1613 18.7097C25.0337 18.7097 24.909 18.6718 24.8029 18.6009C24.6968 18.5301 24.6141 18.4293 24.5653 18.3114C24.5164 18.1935 24.5037 18.0638 24.5286 17.9386C24.5534 17.8135 24.6149 17.6985 24.7051 17.6083C24.7953 17.5181 24.9103 17.4566 25.0354 17.4317C25.1606 17.4069 25.2903 17.4196 25.4082 17.4685C25.5261 17.5173 25.6269 17.6 25.6977 17.7061C25.7686 17.8122 25.8065 17.9369 25.8065 18.0645C25.8063 18.2356 25.7383 18.3995 25.6173 18.5205C25.4964 18.6414 25.3324 18.7095 25.1613 18.7097Z" fill="#F78484"/>
<path d="M20.6452 16.129C20.2624 16.129 19.8882 16.2425 19.5699 16.4552C19.2516 16.6679 19.0035 16.9702 18.857 17.3238C18.7106 17.6775 18.6722 18.0667 18.7469 18.4421C18.8216 18.8176 19.0059 19.1624 19.2766 19.4331C19.5473 19.7038 19.8922 19.8881 20.2676 19.9628C20.6431 20.0375 21.0322 19.9992 21.3859 19.8527C21.7395 19.7062 22.0418 19.4581 22.2545 19.1398C22.4672 18.8215 22.5807 18.4473 22.5807 18.0645C22.5801 17.5514 22.376 17.0594 22.0131 16.6966C21.6503 16.3337 21.1583 16.1296 20.6452 16.129ZM20.6452 18.7097C20.5176 18.7097 20.3929 18.6718 20.2868 18.6009C20.1807 18.5301 20.098 18.4293 20.0492 18.3114C20.0003 18.1935 19.9875 18.0638 20.0124 17.9386C20.0373 17.8135 20.0988 17.6985 20.189 17.6083C20.2792 17.5181 20.3942 17.4566 20.5193 17.4317C20.6445 17.4069 20.7742 17.4196 20.8921 17.4685C21.01 17.5173 21.1107 17.6 21.1816 17.7061C21.2525 17.8122 21.2904 17.9369 21.2904 18.0645C21.2902 18.2356 21.2221 18.3995 21.1012 18.5205C20.9802 18.6414 20.8163 18.7095 20.6452 18.7097Z" fill="#F78484"/>
<path d="M29.6774 16.129C29.2946 16.129 28.9204 16.2425 28.6021 16.4552C28.2838 16.6679 28.0358 16.9702 27.8893 17.3238C27.7428 17.6775 27.7045 18.0667 27.7791 18.4421C27.8538 18.8176 28.0382 19.1624 28.3088 19.4331C28.5795 19.7038 28.9244 19.8881 29.2998 19.9628C29.6753 20.0375 30.0644 19.9992 30.4181 19.8527C30.7718 19.7062 31.074 19.4581 31.2867 19.1398C31.4994 18.8215 31.6129 18.4473 31.6129 18.0645C31.6123 17.5514 31.4082 17.0594 31.0454 16.6966C30.6825 16.3337 30.1906 16.1296 29.6774 16.129ZM29.6774 18.7097C29.5498 18.7097 29.4251 18.6718 29.319 18.6009C29.2129 18.5301 29.1302 18.4293 29.0814 18.3114C29.0325 18.1935 29.0198 18.0638 29.0447 17.9386C29.0696 17.8135 29.131 17.6985 29.2212 17.6083C29.3115 17.5181 29.4264 17.4566 29.5516 17.4317C29.6767 17.4069 29.8064 17.4196 29.9243 17.4685C30.0422 17.5173 30.143 17.6 30.2139 17.7061C30.2848 17.8122 30.3226 17.9369 30.3226 18.0645C30.3224 18.2356 30.2544 18.3995 30.1334 18.5205C30.0125 18.6414 29.8485 18.7095 29.6774 18.7097Z" fill="#F78484"/>
</svg>
