<svg width="40" height="40" viewBox="0 0 40 40" fill="none" xmlns="http://www.w3.org/2000/svg">
<path d="M20 40C14.6578 40 9.63539 37.9196 5.85781 34.1422C2.08039 30.3646 0 25.3422 0 20C0 14.6578 2.08039 9.63539 5.85781 5.85781C9.63539 2.08039 14.6578 0 20 0C25.3422 0 30.3646 2.08039 34.1422 5.85781C37.9196 9.63539 40 14.6578 40 20C40 25.3422 37.9196 30.3646 34.1422 34.1422C30.3646 37.9196 25.3422 40 20 40ZM20 2.34375C15.2838 2.34375 10.85 4.18031 7.51516 7.51516C4.18031 10.85 2.34375 15.2838 2.34375 20C2.34375 24.7162 4.18031 29.15 7.51516 32.4848C10.85 35.8197 15.2838 37.6562 20 37.6562C24.7162 37.6562 29.15 35.8197 32.4848 32.4848C35.8197 29.15 37.6562 24.7162 37.6562 20C37.6562 15.2838 35.8197 10.85 32.4848 7.51516C29.15 4.18031 24.7162 2.34375 20 2.34375Z" fill="#F78484"/>
<path d="M18.8281 4.6908H21.1719V7.8183H18.8281V4.6908Z" fill="#F78484"/>
<path d="M27.781 10.5597L29.9921 8.34855L31.6492 10.0056L29.438 12.2167L27.781 10.5597Z" fill="#F78484"/>
<path d="M32.1821 18.8281H35.3096V21.1719H32.1821V18.8281Z" fill="#F78484"/>
<path d="M27.7797 29.4426L29.4367 27.7856L31.6478 29.9967L29.9908 31.6538L27.7797 29.4426Z" fill="#F78484"/>
<path d="M18.8281 32.1827H21.1719V35.3102H18.8281V32.1827Z" fill="#F78484"/>
<path d="M8.34229 29.9952L10.5534 27.7841L12.2105 29.4411L9.99932 31.6523L8.34229 29.9952Z" fill="#F78484"/>
<path d="M4.68994 18.8281H7.81744V21.1719H4.68994V18.8281Z" fill="#F78484"/>
<path d="M8.34363 10.0038L10.0007 8.34675L12.2118 10.5579L10.5548 12.2149L8.34363 10.0038Z" fill="#F78484"/>
<path d="M28.2728 21.1715H18.8281V11.7268H21.1719V18.8277H28.2728V21.1715Z" fill="#F78484"/>
</svg>
