<svg width="27" height="40" viewBox="0 0 27 40" fill="none" xmlns="http://www.w3.org/2000/svg">
<path d="M20.4905 10.6913C20.6533 10.6913 20.8173 10.6784 20.9812 10.6525C21.7966 10.5232 22.5129 10.0841 22.998 9.41602L25.9422 5.36228C26.0615 5.19798 26.0872 4.98361 26.0102 4.79572C25.9332 4.60783 25.7643 4.47322 25.564 4.43994C25.5118 4.43126 24.3572 4.24165 22.9472 4.22603C22.4957 2.89056 21.9592 1.85158 21.9344 1.80377C21.8408 1.62354 21.6606 1.50463 21.4581 1.48955C21.2558 1.47408 21.0597 1.56518 20.9404 1.72955L17.9962 5.78329C17.5111 6.45134 17.3151 7.26829 17.4444 8.08375C17.5401 8.68758 17.8061 9.23672 18.2087 9.6782C17.763 10.2078 16.9784 11.1716 16.118 12.3709V11.8586C16.118 11.535 15.8557 11.2727 15.5321 11.2727C15.2085 11.2727 14.9462 11.535 14.9462 11.8586V14.0973C14.4759 14.8334 14.018 15.6117 13.6131 16.4018V13.1113C13.6131 13.1112 13.6131 13.1111 13.6131 13.1109V12.1013L15.3202 10.3941C15.5491 10.1653 15.5491 9.7943 15.3202 9.56555C15.0914 9.33672 14.7204 9.33672 14.4916 9.56555L13.6129 10.4441V8.63055C15.0379 8.35586 16.1179 7.10001 16.1179 5.59603V0.585961C16.1179 0.382914 16.0127 0.194321 15.84 0.0875245C15.6673 -0.0192721 15.4516 -0.0289596 15.2699 0.0618996C15.2226 0.0855714 14.1777 0.611117 13.027 1.42666C11.8769 0.611429 10.8321 0.085962 10.784 0.0618996C10.6023 -0.0289596 10.3866 -0.019194 10.2139 0.0875245C10.0412 0.194321 9.93603 0.382914 9.93603 0.585961V5.59603C9.93603 7.10001 11.016 8.35594 12.441 8.63055V11.6966L10.9363 10.1918C10.7074 9.96297 10.3364 9.96297 10.1077 10.1918C9.87884 10.4206 9.87884 10.7916 10.1077 11.0204L12.4411 13.3538V16.4018C10.9466 13.486 8.72923 10.7284 7.84541 9.6782C8.24806 9.23672 8.51408 8.68758 8.60978 8.08375C8.73908 7.26829 8.54306 6.45134 8.05791 5.78329L5.11377 1.72955C4.99448 1.56518 4.79831 1.47416 4.59604 1.48955C4.39354 1.50463 4.21331 1.62354 4.11971 1.80377C4.09471 1.85158 3.55823 2.89064 3.10675 4.22611C1.69746 4.24189 0.542224 4.43126 0.489958 4.43994C0.289646 4.47322 0.120741 4.60783 0.0437878 4.79572C-0.0332432 4.98361 -0.00746245 5.19798 0.111834 5.36228L3.05597 9.41602C3.54112 10.0841 4.25737 10.5231 5.07284 10.6525C5.23674 10.6785 5.40065 10.6913 5.56346 10.6913C6.02948 10.6913 6.48572 10.5855 6.90401 10.3819C7.08502 10.5973 7.3351 10.9001 7.63111 11.2727H7.11666C6.79307 11.2727 6.53072 11.5351 6.53072 11.8587C6.53072 12.1823 6.79307 12.4446 7.11666 12.4446H8.53197C9.38806 13.5958 10.3802 15.0443 11.1869 16.5387C10.2338 15.6023 9.17478 14.7619 8.0183 14.0259C4.5094 11.793 1.34785 11.2991 1.21496 11.2792C1.04644 11.254 0.874958 11.3034 0.745739 11.4147C0.616443 11.526 0.542146 11.6881 0.542146 11.8587C0.542146 11.9523 0.555036 14.1883 1.67253 17.3015C2.68167 20.1127 4.82526 24.1947 9.30978 27.7962V29.9434L6.82455 39.2631C6.7776 39.4389 6.8151 39.6266 6.92604 39.771C7.03689 39.9154 7.20861 40 7.39064 40H18.6633C18.8453 40 19.017 39.9154 19.1279 39.771C19.2388 39.6266 19.2763 39.439 19.2294 39.2631L16.7441 29.9434V27.7962C21.2286 24.1947 23.3722 20.1127 24.3814 17.3015C25.499 14.1883 25.5118 11.9523 25.5118 11.8587C25.5118 11.6881 25.4374 11.526 25.3082 11.4147C25.179 11.3034 25.0078 11.2538 24.8389 11.2792C24.7613 11.2909 22.9101 11.5772 20.4727 12.699C18.8757 13.434 16.8025 14.6441 14.862 16.5486C15.6698 15.051 16.6644 13.5985 17.5224 12.4446H18.9372C19.2608 12.4446 19.5231 12.1823 19.5231 11.8587C19.5231 11.5351 19.2608 11.2727 18.9372 11.2727H18.4231C18.7191 10.9002 18.969 10.5973 19.1499 10.382C19.5683 10.5855 20.0245 10.6913 20.4905 10.6913ZM24.4094 5.47861L23.5246 6.69681C23.4829 6.29579 23.407 5.86642 23.294 5.40657C23.7065 5.42064 24.0888 5.44837 24.4094 5.47861ZM2.52933 6.69681L1.64441 5.47837C1.96464 5.44814 2.34683 5.42056 2.75995 5.40665C2.64691 5.8665 2.57105 6.29579 2.52933 6.69681ZM6.68463 9.15242C6.26979 9.45367 5.7626 9.57539 5.25627 9.49508C4.75003 9.41477 4.30534 9.14219 4.00409 8.72743C3.16386 7.57055 4.05511 4.83665 4.74909 3.22174L7.10963 6.47188C7.73142 7.32805 7.5408 8.53055 6.68463 9.15242ZM14.946 1.58072V3.08392C14.677 2.78478 14.3621 2.4826 14.0013 2.17783C14.3434 1.94674 14.6688 1.74463 14.946 1.58072ZM11.1079 5.59603V1.57908C12.6185 2.47799 14.9461 4.16619 14.9461 5.59603C14.9461 6.65423 14.0852 7.51508 13.027 7.51508C11.9689 7.51508 11.1079 6.65423 11.1079 5.59603ZM2.79355 16.9558C2.10019 15.0399 1.85206 13.4607 1.76324 12.5902C2.85597 12.8563 5.05104 13.5267 7.38916 15.0146C9.32611 16.2472 10.971 17.7897 12.2779 19.5994C13.7899 21.693 14.8527 24.1564 15.4441 26.9292H14.0794C13.3301 23.6422 11.8554 20.8441 9.69072 18.6075C9.46572 18.3749 9.09478 18.3688 8.8622 18.594C8.62962 18.819 8.62361 19.19 8.84869 19.4225C10.8048 21.4436 12.1564 23.9668 12.8748 26.9292H10.1016C5.80955 23.5025 3.75847 19.6222 2.79355 16.9558ZM15.5723 28.101V29.4342H10.4816V28.101H15.5723ZM17.9006 38.8281H15.4187L15.3196 38.0842C15.2769 37.7635 14.9822 37.538 14.6614 37.5809C14.3406 37.6236 14.1153 37.9183 14.158 38.2391L14.2366 38.828H8.15338L10.3459 30.606H13.1402L13.824 35.734C13.8632 36.0285 14.1148 36.2426 14.4041 36.2426C14.4298 36.2426 14.4559 36.2409 14.4822 36.2374C14.803 36.1946 15.0283 35.8999 14.9855 35.5792L14.3224 30.606H15.708L17.9006 38.8281ZM20.9255 13.7807C22.3418 13.1252 23.5611 12.7684 24.2905 12.5905C24.2017 13.4614 23.9535 15.0403 23.2603 16.9558C22.3403 19.4981 20.4335 23.144 16.5379 26.448C15.9741 23.9293 15.0344 21.6522 13.7355 19.6567C15.9879 16.5138 18.8755 14.7293 20.9255 13.7807ZM18.9443 6.47188L21.3052 3.22119C21.9998 4.83533 22.8917 7.56829 22.0498 8.72743C21.7486 9.14219 21.3039 9.41477 20.7976 9.49508C20.2913 9.57531 19.7841 9.45367 19.3694 9.15242C18.5131 8.53055 18.3225 7.32813 18.9443 6.47188Z" fill="#F78484"/>
</svg>
