<svg width="40" height="40" viewBox="0 0 40 40" fill="none" xmlns="http://www.w3.org/2000/svg">
<path d="M30.2864 36.2514C30.07 35.8784 29.5921 35.7514 29.2186 35.9678L29.1886 35.9851C28.8154 36.2016 28.6885 36.6797 28.9049 37.0529C29.0498 37.3026 29.3119 37.4422 29.5813 37.4422C29.7143 37.4422 29.8493 37.408 29.9726 37.3365L30.0027 37.3191C30.3758 37.1026 30.5028 36.6246 30.2864 36.2514Z" fill="#F78484"/>
<path d="M37.32 10.0062C34.6495 5.38081 30.3377 2.07228 25.1787 0.689929C20.02 -0.69242 14.6315 0.0170363 10.0061 2.68744C5.38077 5.35784 2.07217 9.66973 0.689895 14.8286C-0.692376 19.9874 0.0170014 25.376 2.6874 30.0013C5.0828 34.1503 8.89 37.3035 13.4077 38.8799C15.5492 39.6271 17.7847 40 20.0168 40C22.4438 40 24.8664 39.5589 27.1563 38.6788C27.5591 38.5241 27.76 38.0721 27.6052 37.6694C27.4503 37.2666 26.9983 37.0655 26.5957 37.2205C20.5004 39.5633 13.9017 38.4988 8.9718 34.7983L9.67172 31.1448L10.009 31.0353C11.2835 30.6212 11.9835 29.2475 11.5695 27.9729L11.322 27.2113C11.2648 27.035 11.2651 26.8487 11.3228 26.6726C11.5399 26.0107 11.4624 25.2866 11.1099 24.6856C10.7575 24.0848 10.1634 23.6635 9.47969 23.5298L7.7164 23.1852L4.31421 20.5985C4.11038 20.4435 3.84358 20.3983 3.59998 20.4773L1.6081 21.1244C1.56584 20.412 1.56521 19.6998 1.60537 18.9913C1.68396 19.0645 1.73513 19.1143 1.76662 19.147C1.8056 19.2119 1.85388 19.2714 1.91045 19.323C2.0731 19.4711 2.22045 19.5383 2.52982 19.5383C2.81412 19.5382 3.23498 19.4816 3.92991 19.3789C4.58897 19.2815 5.2446 19.1717 5.25108 19.1706C5.51382 19.1266 5.73593 18.9516 5.84046 18.7067C5.94499 18.4617 5.91741 18.1804 5.76734 17.9602L4.80944 16.5552L6.18148 15.5741C6.27288 15.5087 6.34913 15.4244 6.40499 15.3269L8.5318 11.614L9.38907 10.6954C10.2651 9.75653 10.5151 8.38285 10.0259 7.19566C9.73727 6.49542 9.23321 5.91245 8.60274 5.51956C9.28555 4.98276 10.0136 4.48713 10.7874 4.04049C13.6263 2.40142 16.7244 1.60712 19.79 1.57673L18.395 3.32666L13.2219 5.14018C13.0118 5.21377 12.8431 5.37362 12.7582 5.5794L11.3135 9.0816C11.2109 9.33043 11.2435 9.61434 11.3999 9.8334L13.5099 12.789C13.2077 13.0647 12.9135 13.4663 12.5622 13.9649C12.4081 14.1836 12.2627 14.3901 12.1621 14.5058C12.0747 14.6066 11.9872 14.7051 11.9005 14.8026C11.4467 15.3131 10.9774 15.8412 10.6441 16.5465C9.9111 18.098 10.0591 19.9013 11.0304 21.2527C11.9695 22.5593 13.5178 23.2235 15.1703 23.0292C15.4396 22.9976 15.6906 22.9355 15.9335 22.8753C16.6032 22.7096 16.8154 22.6931 17.0303 22.8942C17.1348 22.992 17.1444 23.0106 17.1423 23.3425C17.1408 23.5538 17.1392 23.8166 17.212 24.1167C17.3286 24.5967 17.6301 24.9285 17.8723 25.1951C17.9927 25.3275 18.1172 25.4646 18.1556 25.5565C18.3993 26.1404 18.2932 26.4638 18.0607 27.1724C18.0407 27.233 18.0204 27.2949 18 27.3583C17.6468 28.4517 18.1392 29.5362 18.5736 30.4929C18.7146 30.8036 18.8479 31.0969 18.9351 31.3561C19.6375 33.4404 20.1641 33.9178 20.5867 34.11C20.808 34.2106 21.0371 34.2547 21.2685 34.2547C22.3947 34.2546 23.5698 33.209 24.1097 32.5461C24.4487 32.1298 24.5322 31.713 24.5932 31.4086C24.6236 31.2572 24.6475 31.1376 24.6931 31.0595C24.763 30.94 24.8452 30.8473 24.9494 30.73C25.1588 30.4941 25.4195 30.2007 25.5883 29.6687C25.7166 29.2646 25.8098 29.1656 26.1185 28.8368C26.1723 28.7797 26.2295 28.7186 26.291 28.6518C27.3316 27.5195 27.0636 26.6546 26.7798 25.7388C26.5409 24.9682 26.9587 24.4754 27.9687 23.5349C28.4065 23.1271 28.8591 22.7056 29.2091 22.199C29.3622 21.9773 29.8281 21.3028 29.5398 20.6343C29.2572 19.9788 28.539 19.8687 27.962 19.7802C27.7341 19.7452 27.3897 19.6924 27.2801 19.6208C26.7967 19.3048 26.501 18.6452 26.215 18.0073C26.158 17.8804 26.1019 17.7551 26.0449 17.6334C25.9433 17.4164 25.8419 17.1538 25.7344 16.8759C25.4502 16.1402 25.1281 15.3064 24.5798 14.7251C24.0869 14.2029 23.1577 13.9513 22.3379 13.7293C22.0622 13.6547 21.802 13.5842 21.6304 13.5208C21.4865 13.4677 21.3304 13.4581 21.1815 13.4931C20.7825 13.5866 20.5336 13.6897 20.3488 13.8378C20.3 13.8769 20.1554 14.0054 20.0707 14.212C19.7847 14.0747 19.3914 13.8126 19.1493 13.6513C19.1443 13.6479 19.1393 13.6446 19.1343 13.6412C19.2158 13.3148 19.142 13.0529 19.0646 12.8893C18.6282 11.9661 17.1796 12.0384 16.8938 12.0627C16.7314 12.0763 16.526 12.0836 16.3088 12.0912C15.9675 12.1033 15.5903 12.1169 15.2171 12.1588L15.2364 12.1052C15.5196 11.3159 16.2734 10.7856 17.112 10.7856H17.5561C17.9875 10.7856 18.3373 10.4357 18.3373 10.0044C18.3373 9.57309 17.9875 9.22324 17.5561 9.22324H17.112C15.867 9.22324 14.7269 9.87848 14.0879 10.9098L12.9227 9.27754L14.0691 6.4987L19.124 4.72651C19.2626 4.67791 19.3848 4.59119 19.4764 4.47627L21.7236 1.65759C27.4653 2.20376 32.87 5.42299 35.9671 10.7872C36.792 12.2161 37.4022 13.7203 37.8079 15.2588L37.4767 15.5541C37.0445 15.9398 36.7912 16.493 36.7815 17.072C36.7814 17.0784 36.7813 17.0846 36.781 17.0909L36.2415 15.6071C36.1611 15.3857 36.0427 15.1826 35.8897 15.0037L34.9273 13.8769C34.5542 13.4401 34.0109 13.1897 33.4366 13.1897H32.2585C31.8403 13.1897 31.4581 13.4187 31.2609 13.7872C31.0636 14.1558 31.0852 14.601 31.3171 14.9488L31.4363 15.1278C30.6751 15.7824 29.7946 16.3062 28.8571 16.6595L27.2423 13.5663V12.8762C27.2423 12.6628 27.1549 12.4585 27.0005 12.3112L25.5463 10.923C25.4661 10.8465 25.3705 10.7879 25.2658 10.7511L23.9569 10.2911C23.5496 10.1478 23.1038 10.3621 22.9608 10.769C22.8178 11.1761 23.0318 11.622 23.4388 11.7651L24.5891 12.1693L25.6799 13.2105V13.758C25.6799 13.8839 25.7104 14.0079 25.7687 14.1196L27.7903 17.992C27.9721 18.3405 28.3848 18.4997 28.753 18.3634L29.3417 18.1464C30.7093 17.642 31.9769 16.8307 33.0075 15.8002C33.2708 15.5369 33.3117 15.1244 33.1051 14.8145L33.0635 14.7521H33.4366C33.5532 14.7521 33.6636 14.803 33.7394 14.8917L34.7018 16.0185C34.7328 16.0548 34.7568 16.0959 34.7732 16.141L35.8353 19.0616C35.9266 19.3125 36.1397 19.4994 36.4002 19.5572C36.4564 19.5696 36.5131 19.5757 36.5694 19.5757C36.7743 19.5757 36.9738 19.495 37.1217 19.3469L37.6273 18.8413C37.9475 18.5211 38.1678 18.1159 38.2732 17.6668C39.055 23.9328 36.5981 30.4147 31.4048 34.4908C31.0653 34.7572 31.0061 35.2482 31.2726 35.5876C31.5389 35.9271 32.0299 35.9863 32.3694 35.7198C36.1188 32.7771 38.6946 28.5681 39.6223 23.8681C40.5587 19.1229 39.7411 14.1998 37.32 10.0062ZM3.69389 22.0896L6.91523 24.5389C7.01047 24.6113 7.12093 24.6609 7.23828 24.6838L9.17985 25.0631C9.42766 25.1116 9.63438 25.2581 9.76212 25.476C9.88985 25.6937 9.91673 25.9456 9.83813 26.1856C9.67641 26.6788 9.67563 27.2004 9.83602 27.6939L10.0835 28.4555C10.2314 28.9107 9.98126 29.4014 9.52618 29.5493L8.74985 29.8015C8.47899 29.8895 8.27758 30.1179 8.22406 30.3975L7.59922 33.6591C6.22554 32.4018 5.01944 30.9159 4.04045 29.2202C2.84607 27.1517 2.09982 24.9453 1.77091 22.7144L3.69389 22.0896ZM8.2468 9.62949L7.32781 10.6141C7.28679 10.6581 7.25093 10.7067 7.22101 10.7589L5.13413 14.4023L3.27936 15.7286C2.93389 15.9756 2.84904 16.4532 3.08826 16.8041L3.78194 17.8216C3.38209 17.8812 3.02326 17.9302 2.78467 17.9562C2.73881 17.9123 2.69084 17.8677 2.64123 17.8216C2.45553 17.6491 2.19748 17.4187 1.81279 17.082C2.44724 13.1552 4.33944 9.45582 7.31539 6.63198C7.88523 6.81144 8.35289 7.23652 8.58133 7.79097C8.83836 8.41457 8.70696 9.13629 8.2468 9.62949ZM14.6164 13.8985C14.9648 13.7024 15.7735 13.6737 16.364 13.6528C16.6007 13.6444 16.8243 13.6365 17.0239 13.6197C17.1293 13.6109 17.2464 13.6126 17.3568 13.6212C17.3075 13.7477 17.2914 13.8866 17.3128 14.0244C17.3504 14.2669 17.4999 14.4774 17.7161 14.5931C17.8627 14.6715 18.0667 14.8076 18.2826 14.9515C18.8932 15.3586 19.5853 15.8199 20.2354 15.8613C20.8267 15.8997 21.1557 15.5627 21.2966 15.4192C21.3079 15.4078 21.3185 15.3964 21.3297 15.386C21.4091 15.3213 21.4835 15.2346 21.5388 15.13C21.6637 15.1657 21.795 15.2012 21.9295 15.2377C22.3921 15.363 23.2531 15.5961 23.4433 15.7976C23.7812 16.1558 24.0446 16.8376 24.277 17.4391C24.3944 17.7431 24.5054 18.03 24.6298 18.296C24.6833 18.4102 24.7358 18.5277 24.7893 18.6468C25.1498 19.4509 25.5583 20.3623 26.4251 20.9288C26.8182 21.1858 27.3 21.2596 27.7252 21.3249C27.7766 21.3327 27.8355 21.3418 27.8953 21.3516C27.643 21.7037 27.2837 22.0382 26.9041 22.3917C25.9369 23.2924 24.7333 24.4133 25.2876 26.2015C25.5493 27.0459 25.5615 27.1371 25.1408 27.5948C25.0834 27.6572 25.03 27.7141 24.9799 27.7674C24.6196 28.151 24.335 28.4539 24.0994 29.1961C24.0309 29.4117 23.9422 29.5115 23.7812 29.6928C23.6525 29.8378 23.4921 30.0184 23.3442 30.2715C23.167 30.5748 23.1084 30.8668 23.0615 31.1014C23.0151 31.3323 22.9889 31.4482 22.8983 31.5594C22.6919 31.8127 22.3071 32.1805 21.912 32.4315C21.5448 32.6647 21.3304 32.6965 21.2574 32.6922C21.174 32.6028 20.8721 32.2115 20.4158 30.8573C20.3033 30.5232 20.1472 30.1795 19.9963 29.8471C19.6636 29.1143 19.3196 28.3564 19.4869 27.8385C19.5067 27.7775 19.5262 27.7178 19.5454 27.6594C19.8128 26.8446 20.0651 26.0751 19.5976 24.9548C19.4553 24.6136 19.2286 24.3643 19.0289 24.1443C18.8996 24.002 18.7531 23.8408 18.7305 23.748C18.703 23.6348 18.7039 23.5041 18.7049 23.3528C18.7075 22.9445 18.7116 22.3277 18.0984 21.7535C17.2339 20.9443 16.2257 21.1936 15.5585 21.3586C15.3536 21.4092 15.16 21.4572 14.9885 21.4774C13.891 21.6059 12.9111 21.1919 12.2994 20.3406C11.6595 19.4502 11.5666 18.252 12.057 17.2137C12.2945 16.7113 12.6531 16.3076 13.0685 15.8405C13.1592 15.7383 13.2507 15.6354 13.3423 15.5299C13.4946 15.3543 13.6623 15.1165 13.8396 14.8647C14.0512 14.5643 14.4453 14.0049 14.6164 13.8985Z" fill="#F78484"/>
<path d="M21.0961 9.28589L21.0434 9.26745C20.6366 9.12495 20.1905 9.33894 20.0477 9.74605C19.9049 10.1532 20.1192 10.5989 20.5263 10.7418L20.5789 10.7602C20.6645 10.7902 20.7517 10.8044 20.8375 10.8044C21.16 10.8044 21.4619 10.6031 21.5747 10.2816C21.7175 9.87441 21.5032 9.42863 21.0961 9.28589Z" fill="#F78484"/>
<path d="M32.0331 26.8967L31.6573 25.48C31.5751 25.1706 31.3126 24.9427 30.9949 24.9047C30.6768 24.8675 30.3683 25.0266 30.2155 25.3079C30.1299 25.4657 30.0528 25.6329 29.9783 25.7946C29.8529 26.0665 29.7232 26.3478 29.5883 26.503C29.5125 26.5902 29.3178 26.6842 29.1297 26.7749C28.6799 26.992 28.0639 27.2892 27.8286 28.0394C27.6825 28.5047 27.737 28.8728 27.7768 29.1416C27.8113 29.3746 27.8193 29.4554 27.7568 29.602L27.749 29.6202C27.5004 30.2037 27.0377 31.29 27.6865 32.2136C28.1494 32.8726 28.6361 33.0421 29.0143 33.0421C29.0881 33.0423 29.1579 33.0358 29.2226 33.0253C30.0194 32.895 30.6185 32.0661 31.108 30.4164L32.0269 27.3195C32.0678 27.1817 32.07 27.0355 32.0331 26.8967ZM29.6103 29.972C29.3608 30.8131 29.14 31.2057 29.0126 31.3798C28.9979 31.3611 28.9819 31.3398 28.9649 31.3155C28.8156 31.1029 29.0387 30.5791 29.1864 30.2325L29.1943 30.2142C29.4324 29.6553 29.3687 29.226 29.3224 28.9126C29.2926 28.7119 29.282 28.6257 29.3193 28.5071C29.3499 28.4097 29.5329 28.3152 29.8087 28.1821C29.931 28.123 30.0656 28.0581 30.2015 27.9795L29.6103 29.972Z" fill="#F78484"/>
</svg>
