<svg width="40" height="40" viewBox="0 0 40 40" fill="none" xmlns="http://www.w3.org/2000/svg">
<path d="M39.6381 24.6575C38.477 23.0403 37.2954 22.9964 34.3562 24.542L28.5361 28.0978C27.8752 28.4478 26.4852 28.6443 24.5452 28.6914C24.4541 28.6936 24.364 28.6955 24.2738 28.6971C24.5755 28.0719 24.43 27.3061 23.8697 26.4697C22.953 25.1018 21.4528 24.2233 19.7991 24.0244C19.9815 23.6661 20.1621 23.2781 20.3365 22.8624C20.3648 22.8415 20.3923 22.8188 20.4177 22.7928C20.9588 22.2402 21.5813 21.9296 22.8133 21.5415C22.9664 21.4933 22.9837 21.4877 23.3083 21.3891C26.7337 22.928 29.0775 22.3989 30.4651 20.496C30.6919 20.1849 30.8754 19.8594 31.0354 19.5096C31.1199 19.3248 31.2751 18.9398 31.2728 18.9446C31.426 18.6098 31.2787 18.2142 30.9439 18.0611C31.0965 18.1309 30.3166 17.7263 29.9047 17.5533C28.6448 17.0241 27.385 16.8201 26.1623 17.1389C24.8017 17.4936 23.6717 18.4744 22.8499 20.1348C22.8257 20.1421 22.8033 20.149 22.7815 20.1557C22.6402 20.1988 22.5232 20.2351 22.4126 20.2699C21.8925 20.4337 21.457 20.5907 21.0774 20.7602C21.7627 18.3762 21.9617 15.8598 21.4801 13.3036C24.0138 12.9955 26.1099 11.2697 26.9492 8.94194L26.9898 8.95933L27.1175 8.40231C27.2166 8.03099 27.2838 7.64681 27.3175 7.25301C27.3232 7.19034 27.3279 7.12767 27.3318 7.06493C27.3336 7.03276 27.3351 7.00051 27.3364 6.96818C27.3409 6.8712 27.3438 6.77422 27.3438 6.67724C27.3438 2.98978 24.3541 0 20.6666 0C20.6666 0 20.6666 0 20.6665 0C20.595 0 20.5325 0.00158853 20.4585 0.00524216C20.2772 0.010802 20.0977 0.0227955 19.9204 0.0424933L19.4483 0.0769645L19.4541 0.111833C16.9124 0.578385 14.8744 2.48296 14.2156 4.95194L14.1918 4.94955L14.1356 5.28569C14.0586 5.64843 14.0116 6.02197 13.9963 6.40386C13.9954 6.42284 13.9955 6.44166 13.9948 6.46057C13.9925 6.53269 13.9893 6.60457 13.9893 6.67716C13.9893 6.72196 13.9918 6.7662 13.9928 6.81076C13.994 6.87081 13.9945 6.93101 13.9973 6.99074C13.9999 7.04745 14.0046 7.10353 14.0086 7.15992C14.0121 7.20885 14.0152 7.25785 14.0198 7.30654C14.0254 7.36683 14.0326 7.42656 14.0399 7.48628C14.0451 7.52925 14.0502 7.5723 14.0562 7.61503C14.0651 7.67858 14.0753 7.74164 14.086 7.80455C14.0923 7.84132 14.0988 7.8781 14.1057 7.91471C14.1183 7.98222 14.1319 8.04934 14.1465 8.11614C14.1529 8.14481 14.1596 8.17332 14.1663 8.20184C14.1835 8.27531 14.2013 8.34846 14.2209 8.42098C14.2249 8.43599 14.2295 8.45084 14.2336 8.46585C14.386 9.01517 14.6067 9.53573 14.8863 10.0183C14.8865 10.0187 14.8868 10.0192 14.887 10.0196C15.8851 11.7415 17.6289 12.9769 19.6776 13.2812L20.134 13.3658C20.3312 14.3418 20.4189 15.3138 20.41 16.2756C19.6818 15.1484 18.6441 14.4427 17.3759 14.1237C16.2902 13.8505 15.1633 13.883 14.0565 14.099C13.7916 14.1507 13.576 14.2034 13.3824 14.2549C13.0287 14.3411 12.8096 14.6953 12.8903 15.0503C12.8939 15.0661 12.9342 15.2614 12.9527 15.3456C12.9915 15.5205 13.0341 15.6889 13.0862 15.8648C13.2298 16.3497 13.4234 16.8149 13.6863 17.2565C14.83 19.1777 16.9045 20.084 20.0274 19.4915C19.8344 20.3405 19.573 21.1747 19.2526 21.989C19.0004 22.6302 18.7306 23.2055 18.4616 23.7055C18.4057 23.8095 18.3548 23.9012 18.309 23.9814H16.4784C15.0662 23.9814 13.7226 23.555 12.6586 22.7525C11.6343 21.9804 10.3162 21.8435 8.80787 22.1965C7.82877 22.4257 6.80131 22.8533 5.75955 23.4214C5.37862 23.6291 5.01349 23.8471 4.66648 24.068V22.6668H0V40H4.66664V38H13.3332C14.6974 38 16.061 37.8969 17.4107 37.6918L26.0522 36.3777C26.3645 36.3741 26.6749 36.3379 26.9832 36.2709C27.7837 36.1568 28.5434 35.7647 29.1712 35.1727L39.276 27.3035C40.0778 26.6388 40.2326 25.4863 39.6381 24.6575ZM26.4986 18.429C27.389 18.1968 28.3734 18.3562 29.3883 18.7825C29.5347 18.844 29.674 18.9078 29.8131 18.9761C29.6904 19.2416 29.5527 19.4842 29.3877 19.7104C28.5384 20.8752 27.2129 21.325 25.0882 20.6514C25.5404 20.5012 25.9985 20.3863 26.4759 20.3069C26.8391 20.2466 27.0846 19.9032 27.0242 19.54C26.9639 19.1768 26.6205 18.9313 26.2573 18.9916C25.8475 19.0597 25.4506 19.1509 25.0605 19.2638C25.4956 18.8368 25.9763 18.5652 26.4986 18.429ZM15.5912 8.35029C15.5718 8.29167 15.5537 8.23258 15.5363 8.17317C15.5322 8.15903 15.5282 8.14489 15.5243 8.13075C15.508 8.07309 15.4923 8.01527 15.4779 7.95689C15.4757 7.94783 15.4738 7.9387 15.4716 7.92964C15.4447 7.81789 15.4216 7.70471 15.4019 7.59049C15.3985 7.57064 15.3945 7.55102 15.3912 7.53108C15.3838 7.48557 15.3779 7.43958 15.3717 7.39367C15.3669 7.35817 15.3622 7.32259 15.3581 7.28684C15.3533 7.24435 15.349 7.2017 15.3452 7.15897C15.3415 7.1179 15.3385 7.0766 15.3358 7.03522C15.3332 6.99559 15.3303 6.95603 15.3286 6.91624C15.3262 6.86247 15.3252 6.80838 15.3244 6.75413C15.324 6.72855 15.3229 6.70322 15.3229 6.67764C15.3229 6.58741 15.3257 6.49623 15.3313 6.40338L16.1894 6.489C17.1154 6.58169 17.9601 7.05809 18.5183 7.80232C19.0258 8.47864 19.2563 9.32318 19.163 10.1642L18.987 11.7475C17.3785 11.2167 16.1261 9.95097 15.5972 8.36808C15.5952 8.36204 15.5931 8.35617 15.5912 8.35029ZM21.1211 1.35391C21.161 1.35724 21.2011 1.36018 21.2408 1.36447C21.2899 1.36971 21.3385 1.37646 21.3871 1.38306C21.4258 1.38822 21.4645 1.39291 21.5028 1.39894C21.5524 1.40673 21.6013 1.41618 21.6504 1.42531C21.6871 1.43214 21.7241 1.43826 21.7605 1.44588C21.8114 1.45645 21.8616 1.46884 21.9119 1.48083C21.9458 1.48893 21.9801 1.49624 22.0137 1.50498C22.0678 1.51904 22.1211 1.53492 22.1744 1.55065C22.2037 1.55923 22.2333 1.56693 22.2623 1.57598C22.3277 1.59648 22.3923 1.61888 22.4566 1.64175C22.4729 1.64755 22.4895 1.65255 22.5056 1.65843C22.5863 1.68798 22.6659 1.71943 22.7446 1.75263C22.76 1.75914 22.775 1.76653 22.7903 1.7732C22.853 1.80037 22.9155 1.82808 22.9769 1.85755C23.0032 1.87018 23.0288 1.88408 23.055 1.89719C23.1046 1.92205 23.1544 1.94675 23.2031 1.97304C23.2322 1.98877 23.2606 2.00576 23.2894 2.02204C23.3342 2.0473 23.3791 2.07232 23.423 2.09885C23.453 2.11688 23.4821 2.1361 23.5117 2.15469C23.5534 2.18098 23.5953 2.20711 23.6363 2.23459C23.6663 2.25469 23.6955 2.27581 23.7251 2.29646C23.7644 2.32395 23.8039 2.35135 23.8425 2.37994C23.8721 2.40186 23.901 2.42474 23.9302 2.44722C23.9675 2.47605 24.0049 2.50488 24.0414 2.53466C24.0703 2.55818 24.0985 2.58256 24.1268 2.6067C24.1624 2.63697 24.198 2.66731 24.2328 2.69852C24.2607 2.72362 24.288 2.74936 24.3154 2.77501C24.3492 2.8067 24.383 2.83847 24.4161 2.87104C24.443 2.89757 24.4693 2.92465 24.4956 2.95165C24.5278 2.98478 24.5599 3.01806 24.5912 3.05197C24.617 3.07977 24.6421 3.10805 24.6672 3.1364C24.6977 3.17087 24.728 3.20558 24.7577 3.24093C24.7822 3.27 24.8062 3.29946 24.83 3.32909C24.8588 3.36491 24.8873 3.40105 24.9153 3.43767C24.9384 3.46793 24.9612 3.49859 24.9837 3.52933C25.0108 3.5665 25.0375 3.60399 25.0637 3.64187C25.0854 3.67325 25.1068 3.70486 25.1278 3.73671C25.1532 3.77523 25.1781 3.81415 25.2026 3.85339C25.2227 3.88579 25.2428 3.91828 25.2623 3.95116C25.286 3.99103 25.309 4.0313 25.3316 4.07173C25.3502 4.10501 25.3687 4.13837 25.3867 4.17205C25.4086 4.21327 25.4297 4.25497 25.4506 4.29683C25.4675 4.33082 25.4845 4.36481 25.5007 4.39921C25.5209 4.44186 25.5401 4.48507 25.5591 4.52828C25.5744 4.56283 25.5896 4.59738 25.6042 4.63232C25.6224 4.67641 25.6397 4.72104 25.6567 4.76568C25.6702 4.80087 25.6839 4.83589 25.6967 4.8714C25.713 4.91691 25.7281 4.96306 25.7433 5.00912C25.7549 5.04455 25.7669 5.07981 25.7779 5.11556C25.7923 5.16289 25.8053 5.21087 25.8185 5.25876C25.8282 5.29411 25.8385 5.32921 25.8474 5.36488C25.8599 5.41436 25.8709 5.46456 25.882 5.5146C25.8897 5.54938 25.898 5.58386 25.9051 5.61888C25.9157 5.67122 25.9244 5.7242 25.9334 5.7771C25.939 5.81054 25.9455 5.84374 25.9506 5.87742C25.9591 5.93413 25.9657 5.99147 25.9724 6.04874C25.9759 6.07916 25.9805 6.10934 25.9835 6.14C25.9901 6.20616 25.9945 6.27296 25.9987 6.33984C26 6.36208 26.0024 6.384 26.0035 6.40624C26.008 6.49607 26.0103 6.58638 26.0103 6.67732C26.0103 6.75492 26.0078 6.83189 26.0045 6.90869C26.0022 6.95714 25.9993 7.00567 25.9956 7.05428C25.9949 7.06342 25.9941 7.07255 25.9935 7.08176L24.1757 6.30259C24.0143 6.23365 23.8974 6.08949 23.8626 5.91642L23.5128 4.16728C23.3385 3.29502 22.5728 2.66667 21.6831 2.66667C21.4223 2.66667 21.1996 2.47819 21.1567 2.22085L21.011 1.34565C21.0479 1.34795 21.0845 1.35089 21.1211 1.35391ZM19.673 1.42698L19.8416 2.44007C19.992 3.34045 20.7707 3.99993 21.6832 3.99993C21.937 3.99993 22.1556 4.17927 22.2054 4.42851L22.5554 6.17868C22.677 6.78217 23.0862 7.28676 23.651 7.5283L25.7198 8.41502C24.9984 10.5129 23.009 12.0213 20.6664 12.0213C20.543 12.0213 20.4209 12.0156 20.2996 12.0073L20.4881 10.3113C20.6189 9.13312 20.2958 7.94974 19.5848 7.0021C18.8028 5.95954 17.6195 5.29212 16.322 5.16226L15.5634 5.08657C16.1446 3.22028 17.722 1.79409 19.673 1.42698ZM14.832 16.5744C14.6305 16.236 14.4787 15.8713 14.3646 15.4861C14.3563 15.458 14.3483 15.4301 14.3405 15.4022C15.2622 15.2255 16.1934 15.201 17.0505 15.4167C17.9985 15.6552 18.7614 16.1679 19.307 17.025C19.2343 16.9817 19.1633 16.9402 19.0924 16.8995C18.8906 16.7834 18.698 16.6791 18.5077 16.5833C18.1788 16.4177 17.778 16.5501 17.6125 16.879C17.4469 17.208 17.5794 17.6087 17.9083 17.7743C18.0755 17.8585 18.2466 17.9511 18.428 18.0554C18.5658 18.1346 18.7059 18.2183 18.8634 18.3152C16.8365 18.4989 15.5779 17.8274 14.832 16.5744ZM3.3333 38.6666H1.33334V24H3.3333V25.005L3.33322 25.0051V38H3.3333V38.6666ZM38.4473 26.2588L28.3262 34.1406L28.2748 34.185C27.8335 34.6074 27.3133 34.8782 26.7838 34.9524C26.4779 35.0173 26.2388 35.0446 25.9998 35.0446L25.8995 35.0522L17.2103 36.3735C15.9268 36.5686 14.6303 36.6666 13.3332 36.6666H4.66664V25.6714C4.74948 25.6128 4.84662 25.5455 4.95678 25.4709C5.39975 25.1712 5.88576 24.8713 6.39806 24.5919C7.343 24.0766 8.26483 23.693 9.11191 23.4947C10.2704 23.2236 11.1962 23.3198 11.8559 23.817C13.1573 24.7986 14.7837 25.3147 16.4786 25.3147H18.5202C18.6225 25.339 18.7278 25.3385 18.828 25.3147H19.0792C20.5746 25.3147 21.9667 26.0251 22.762 27.2118C23.1264 27.7557 23.1535 28.0257 23.0357 28.1758C22.9002 28.3482 22.5334 28.5039 22.0079 28.5928C21.5467 28.6709 21.0474 28.6892 20.6166 28.6727C20.6146 28.6726 20.6127 28.6756 20.6105 28.6799C20.5679 28.6713 20.5238 28.6667 20.4787 28.6667H14.0001C12.0079 28.6667 10.6668 29.5445 10.6668 31.3334C10.6668 31.7016 10.9653 32 11.3334 32C11.7015 32 12 31.7015 12 31.3334C12 30.4288 12.6552 30 14 30H20.4786C20.7696 30 20.8779 30.0017 21.8016 30.0183C23.0104 30.0401 23.7586 30.0443 24.5776 30.0244C26.723 29.9723 28.2557 29.7556 29.1969 29.2554L35.0143 25.7009C37.3961 24.45 37.8602 24.4673 38.5551 25.4349C38.7377 25.6897 38.691 26.0511 38.4473 26.2588Z" fill="#F78484"/>
</svg>
