<svg width="60" height="44" viewBox="0 0 60 44" fill="none" xmlns="http://www.w3.org/2000/svg">
<path d="M20.0401 33.9443C18.2631 33.9443 16.8174 35.39 16.8174 37.167C16.8174 38.944 18.2631 40.3897 20.0401 40.3897C21.817 40.3897 23.2627 38.944 23.2627 37.167C23.2627 35.3901 21.817 33.9443 20.0401 33.9443ZM20.0401 38.6319C19.2323 38.6319 18.5752 37.9748 18.5752 37.167C18.5752 36.3592 19.2323 35.7022 20.0401 35.7022C20.8478 35.7022 21.5049 36.3592 21.5049 37.167C21.5049 37.9748 20.8477 38.6319 20.0401 38.6319Z" fill="#F78484"/>
<path d="M47.4019 33.9443C45.6249 33.9443 44.1792 35.39 44.1792 37.167C44.1792 38.944 45.6249 40.3897 47.4019 40.3897C49.1788 40.3897 50.6245 38.944 50.6245 37.167C50.6245 35.3901 49.1788 33.9443 47.4019 33.9443ZM47.4019 38.6319C46.5941 38.6319 45.937 37.9748 45.937 37.167C45.937 36.3592 46.5941 35.7022 47.4019 35.7022C48.2096 35.7022 48.8667 36.3592 48.8667 37.167C48.8667 37.9748 48.2096 38.6319 47.4019 38.6319Z" fill="#F78484"/>
<path d="M8.32025 14.0227H4.02344C3.53793 14.0227 3.14453 14.4162 3.14453 14.9016C3.14453 15.387 3.53793 15.7805 4.02344 15.7805H8.32025C8.80576 15.7805 9.19916 15.387 9.19916 14.9016C9.19916 14.4162 8.80576 14.0227 8.32025 14.0227Z" fill="#F78484"/>
<path d="M48.5742 14.0225H44.7967L45.9349 0.954965C45.937 0.931293 45.9373 0.907973 45.9374 0.884652C45.9374 0.88266 45.9377 0.880785 45.9377 0.878793C45.9377 0.878441 45.9377 0.878207 45.9377 0.877856C45.9377 0.52219 45.7231 0.208712 45.4078 0.0724226C45.4051 0.0712507 45.4025 0.0698447 45.3998 0.0686729C45.3802 0.0604697 45.3599 0.053438 45.3396 0.0466411C45.3319 0.0441802 45.3247 0.0411331 45.3171 0.0387894C45.3004 0.0337503 45.2833 0.0297659 45.2663 0.0256644C45.2544 0.0228519 45.2429 0.0194536 45.2308 0.0171099C45.2159 0.0141802 45.2005 0.0123055 45.1852 0.0100789C45.1709 0.0079695 45.1569 0.0055082 45.1424 0.00421913C45.14 0.00398476 45.1378 0.00351562 45.1353 0.00328125C45.1198 0.00187499 45.1046 0.00210944 45.0892 0.0015235C45.0789 0.00117194 45.0688 0 45.0585 0H45.0475C45.0466 0 45.0456 0 45.0448 0H27.0716C26.5864 0 26.1927 0.393752 26.1927 0.87891C26.1927 1.3629 26.5864 1.75782 27.0716 1.75782H44.1005L42.3514 21.8409C42.3511 21.8424 42.3511 21.844 42.3509 21.8455L41.9096 26.9128H11.3693L11.8802 21.6396H17.6951C18.1807 21.6396 18.5741 21.2461 18.5741 20.7607C18.5741 20.2753 18.1807 19.8818 17.6951 19.8818H12.0506L13.1292 8.74949H22.3841C22.8696 8.74949 23.263 8.35597 23.263 7.87058C23.263 7.38519 22.8696 6.99167 22.3841 6.99167H13.2995L13.8067 1.75782H23.556C24.0399 1.75782 24.4349 1.3629 24.4349 0.87891C24.4349 0.393752 24.0399 0 23.556 0H13.009C13.0086 0 13.0082 0.000117124 13.0077 0.000117124C12.5949 -6.43788e-08 12.2368 0.290627 12.1502 0.693519C12.1496 0.696449 12.1485 0.699261 12.1479 0.702191C12.1435 0.724105 12.1406 0.746488 12.1376 0.768988C12.1368 0.776136 12.1353 0.782933 12.1346 0.790082C12.1345 0.791488 12.1341 0.792777 12.134 0.794183L11.5335 6.99167H0.87891C0.3934 6.99167 0 7.38519 0 7.87058C0 8.35597 0.3934 8.74949 0.87891 8.74949H11.3631L10.2845 19.8818H7.1487C6.66319 19.8818 6.26979 20.2753 6.26979 20.7607C6.26979 21.2461 6.66319 21.6396 7.1487 21.6396H10.1143L9.52691 27.7007C9.5268 27.7016 9.5268 27.7025 9.52668 27.7034L8.61859 37.0759C8.61847 37.077 8.61835 37.0781 8.61824 37.0791L8.61789 37.0825C8.61671 37.0947 8.61683 37.1066 8.61613 37.1188C8.61531 37.135 8.61367 37.1508 8.61367 37.1672C8.61367 37.1679 8.61378 37.1686 8.61378 37.1694C8.61378 37.1921 8.61542 37.2143 8.61706 37.2366C8.61777 37.2437 8.61753 37.251 8.61835 37.258C8.6207 37.2808 8.62457 37.3032 8.62867 37.3254C8.62984 37.332 8.63042 37.3387 8.63171 37.3451C8.63511 37.362 8.63992 37.3783 8.64437 37.3948C8.64742 37.4064 8.64988 37.4182 8.65339 37.4296C8.65445 37.4328 8.65585 37.4358 8.65679 37.4391C8.69933 37.5699 8.77152 37.6873 8.86574 37.7832C8.8675 37.7849 8.8689 37.7869 8.87066 37.7885C8.88003 37.7979 8.89023 37.8064 8.90007 37.8153C8.96066 37.8708 9.0291 37.9179 9.10398 37.9548C9.11957 37.9626 9.13492 37.9707 9.15086 37.9773C9.15566 37.9794 9.16082 37.9808 9.16574 37.9827C9.18777 37.9915 9.20992 38 9.23277 38.0071C9.23488 38.0077 9.23687 38.008 9.23898 38.0087C9.265 38.0165 9.29125 38.0233 9.31808 38.0288C9.3216 38.0295 9.32523 38.0297 9.32863 38.0304C9.35418 38.0352 9.37984 38.0393 9.40597 38.0419C9.40656 38.0419 9.40703 38.042 9.40762 38.0421C9.43644 38.045 9.46504 38.0464 9.4934 38.0464C9.49375 38.0464 9.49422 38.0462 9.49469 38.0462H13.4074C13.8394 41.322 16.6478 43.8591 20.0398 43.8591C23.4316 43.8591 26.24 41.322 26.6721 38.0462H40.7697C41.2019 41.322 44.0102 43.8591 47.4021 43.8591C50.7938 43.8591 53.6025 41.322 54.0347 38.0462H57.9483C57.9489 38.0462 57.9496 38.0464 57.9502 38.0464C57.9795 38.0464 58.0083 38.0446 58.0369 38.0418C58.042 38.0413 58.0469 38.0403 58.0521 38.0397C58.075 38.037 58.0977 38.0338 58.12 38.0294C58.1296 38.0275 58.1388 38.0249 58.1483 38.0227C58.1655 38.0187 58.1829 38.0145 58.1998 38.0094C58.2112 38.006 58.2224 38.0021 58.2336 37.9982C58.248 37.9933 58.2625 37.9881 58.2766 37.9824C58.2888 37.9776 58.3004 37.9723 58.3123 37.967C58.3252 37.961 58.338 37.955 58.3506 37.9485C58.3625 37.9424 58.374 37.9361 58.3855 37.9295C58.3976 37.9225 58.4095 37.9152 58.4214 37.9077C58.4324 37.9007 58.4434 37.8935 58.4539 37.886C58.4659 37.8777 58.4773 37.8689 58.4889 37.86C58.4985 37.8524 58.5082 37.8449 58.5176 37.8369C58.5296 37.8267 58.541 37.8161 58.5525 37.8052C58.5605 37.7976 58.5688 37.7901 58.5765 37.7821C58.5887 37.7697 58.6003 37.7565 58.6119 37.7433C58.6181 37.7362 58.6246 37.7292 58.6305 37.722C58.6434 37.706 58.6552 37.6896 58.6669 37.6731C58.6709 37.6674 58.6753 37.662 58.6792 37.6561C58.6935 37.6347 58.707 37.6126 58.7194 37.5899C58.7203 37.5885 58.7212 37.5872 58.7218 37.5857C58.7351 37.5613 58.7473 37.5364 58.7582 37.5106C58.7612 37.5032 58.7635 37.4956 58.7665 37.4882C58.7736 37.47 58.7807 37.4519 58.7866 37.433C58.7905 37.4208 58.7933 37.4083 58.7967 37.396C58.8006 37.3813 58.8047 37.3668 58.808 37.3519C58.8109 37.3387 58.8128 37.3251 58.815 37.3116C58.817 37.2998 58.8196 37.2882 58.8211 37.2761C58.8584 36.9775 59.5466 31.4557 59.854 27.8852C59.8543 27.8818 59.8545 27.8783 59.8548 27.8749C59.9433 26.8456 60 25.9789 60 25.4483C60 19.1482 54.8744 14.0225 48.5742 14.0225ZM44.6436 15.7805H48.2393L47.78 21.0535H44.1843L44.6436 15.7805ZM20.0401 42.1012C17.3193 42.1012 15.1059 39.8877 15.1059 37.1671C15.1059 34.4465 17.3194 32.233 20.0401 32.233C22.7607 32.233 24.9742 34.4465 24.9742 37.1671C24.9742 39.8877 22.7607 42.1012 20.0401 42.1012ZM47.4021 42.1012C44.6814 42.1012 42.4681 39.8877 42.4681 37.1671C42.4681 34.4465 44.6815 32.233 47.4021 32.233C50.1228 32.233 52.3363 34.4465 52.3363 37.1671C52.3363 39.8877 50.1228 42.1012 47.4021 42.1012ZM57.1717 36.2878H54.0349C53.6029 33.0118 50.7944 30.4746 47.4023 30.4746C44.0104 30.4746 41.2019 33.012 40.7699 36.2878H26.6724C26.2405 33.0118 23.4321 30.4746 20.0401 30.4746C16.6481 30.4746 13.8394 33.012 13.4075 36.2878H10.4609L11.1991 28.6702H42.715V28.6706C42.7155 28.6706 42.7158 28.6706 42.7163 28.6706C42.7457 28.6706 42.7749 28.669 42.8037 28.666C42.8091 28.6656 42.8144 28.6644 42.8198 28.6637C42.8427 28.661 42.8656 28.6577 42.8881 28.6533C42.8978 28.6513 42.9073 28.6486 42.9169 28.6462C42.9345 28.642 42.9521 28.6379 42.9692 28.6328C42.9809 28.6293 42.992 28.625 43.0034 28.621C43.0182 28.6159 43.0329 28.6109 43.0472 28.605C43.0595 28.6 43.0714 28.5943 43.0833 28.5887C43.0963 28.5827 43.1093 28.5768 43.1219 28.5702C43.1338 28.5639 43.1456 28.5571 43.1574 28.5503C43.1695 28.5432 43.1814 28.5361 43.1931 28.5286C43.2045 28.5212 43.2153 28.5135 43.2262 28.5057C43.2378 28.4975 43.249 28.4891 43.2603 28.4803C43.2704 28.4722 43.2803 28.4639 43.2902 28.4553C43.3013 28.4457 43.3122 28.4359 43.3228 28.4257C43.3317 28.4171 43.3406 28.4084 43.3492 28.3993C43.3598 28.3883 43.37 28.3769 43.3801 28.3653C43.3879 28.3562 43.3956 28.3471 43.4031 28.3377C43.4129 28.3254 43.4221 28.3127 43.4313 28.3C43.4382 28.2903 43.4449 28.2807 43.4514 28.2709C43.46 28.2576 43.4682 28.2441 43.476 28.2302C43.482 28.2199 43.4881 28.2096 43.4935 28.1991C43.5009 28.1852 43.5072 28.1712 43.5139 28.157C43.519 28.1456 43.5243 28.1345 43.529 28.1228C43.5347 28.1089 43.5395 28.0948 43.5446 28.0806C43.5489 28.068 43.5535 28.0555 43.5574 28.0426C43.5612 28.029 43.5644 28.0151 43.5679 28.0012C43.5713 27.9873 43.5751 27.9735 43.5778 27.9593C43.5804 27.9455 43.5821 27.9314 43.5842 27.9173C43.5863 27.9028 43.5888 27.8885 43.5902 27.8737C43.5904 27.8716 43.5909 27.8696 43.591 27.8675L44.0315 22.8109H48.5739C51.2668 22.8109 52.4813 24.2061 53.767 25.6834C54.8279 26.9023 56.0123 28.2622 58.0256 28.594C57.7699 31.2975 57.3566 34.7681 57.1717 36.2878ZM58.1759 26.8326C56.8698 26.5664 56.0662 25.6482 55.0928 24.5298C53.8753 23.1311 52.389 21.4243 49.5398 21.1063L49.9945 15.8858C54.6544 16.5749 58.2422 20.6001 58.2422 25.4485C58.2422 25.778 58.2176 26.2565 58.1759 26.8326Z" fill="#F78484"/>
</svg>
