<svg width="40" height="40" viewBox="0 0 40 40" fill="none" xmlns="http://www.w3.org/2000/svg">
<path d="M2.19598 21.9363L0.402767 23.9115C0.239974 24.091 0.187361 24.3446 0.265348 24.574C0.343336 24.8034 0.539644 24.9724 0.778076 25.0155C1.58262 25.1446 2.39643 25.2072 3.21125 25.2028C4.65069 25.2189 6.083 24.9984 7.45097 24.5502C7.33337 25.2236 7.56795 25.9105 8.07293 26.3714L10.5394 28.6106C10.8012 28.8485 11.1468 28.9726 11.5002 28.9556C11.8535 28.9386 12.1856 28.7818 12.4233 28.5199L12.666 28.2533V37.9953C12.666 39.0998 13.5613 39.9952 14.6658 39.9952H34.6672C35.7717 39.9952 36.6671 39.0998 36.6671 37.9953V21.3297C36.6671 20.5934 36.0701 19.9965 35.3338 19.9965H20.1608L27.657 11.7357C28.1519 11.1906 28.1114 10.3475 27.5663 9.85246L25.0998 7.6126C24.59 7.15292 23.8801 6.98683 23.2193 7.17263C23.6709 4.9587 23.6107 2.67084 23.0433 0.483729C22.977 0.251371 22.7901 0.0730813 22.5549 0.017738C22.3197 -0.0376053 22.073 0.0386636 21.91 0.21708L20.1161 2.19095L18.1409 0.397735C17.956 0.230016 17.6929 0.17967 17.4591 0.267279C17.2254 0.354889 17.0601 0.565769 17.031 0.813708L16.6417 4.13083C15.3995 4.00219 14.1442 4.13851 12.9586 4.5308C12.5785 4.65476 12.2425 4.88632 11.9913 5.19742C10.4474 7.15872 10.1345 9.82041 11.1814 12.0863C8.82455 11.2629 6.20501 11.8322 4.40251 13.5595C4.11836 13.84 3.92155 14.1968 3.83588 14.5868C3.55835 15.8045 3.54335 17.0673 3.79188 18.2912L0.525426 18.9999C0.281338 19.0528 0.0873011 19.2377 0.0227035 19.4789C-0.0418941 19.7202 0.0337856 19.9773 0.218779 20.1451L2.19598 21.9363ZM11.438 27.6233L8.97154 25.3834C8.84048 25.2647 8.762 25.0987 8.75337 24.922C8.74474 24.7453 8.80668 24.5725 8.92554 24.4415L10.7148 22.471V22.4676L12.9559 19.9965L15.9178 22.685L11.438 27.6233ZM12.82 17.1746C12.4271 16.8182 12.1919 16.3203 12.1661 15.7905C12.1404 15.2607 12.3262 14.7423 12.6826 14.3495L13.5786 13.3622C13.935 12.9693 14.4329 12.7341 14.9627 12.7084C15.4925 12.6826 16.0109 12.8684 16.4037 13.2249L16.897 13.6729L13.3126 17.622L12.82 17.1746ZM10.8428 15.9041C10.8542 16.0411 10.874 16.1774 10.9021 16.312C9.90158 16.4759 8.8754 16.367 7.93161 15.9967C8.86875 15.6639 9.88634 15.6315 10.8428 15.9041ZM15.3611 11.397C15.2226 11.3817 15.0832 11.3748 14.9438 11.3764C14.5848 10.4511 14.5217 9.4372 14.7632 8.47454C15.2247 9.37616 15.4314 10.3866 15.3611 11.397ZM16.8144 21.697L13.8526 19.0092L18.3323 14.0728L21.2941 16.7607L16.8144 21.697ZM35.3338 37.9953C35.3338 38.3635 35.0354 38.6619 34.6672 38.6619H28.001V21.3297H35.3338V37.9953ZM26.6677 21.3297V38.6619H22.668V21.3297H26.6677ZM21.3347 21.3297V38.6619H14.6685C14.3003 38.6619 14.0019 38.3635 14.0019 37.9953V26.7827L18.9509 21.3297H21.3347ZM23.2599 8.64587C23.5065 8.37259 23.9278 8.3508 24.2012 8.5972L26.6677 10.8391L22.188 15.7754L19.2282 13.0882L21.4681 10.6217V10.6184L23.2599 8.64587ZM18.2016 2.25628L19.7108 3.62619C19.8417 3.74514 20.0145 3.80719 20.1912 3.79869C20.3679 3.79019 20.5339 3.71183 20.6528 3.58086L22.0107 2.08363C22.294 3.87884 22.4947 7.22929 20.6774 9.47915C20.6659 8.46724 20.5209 7.46129 20.2461 6.48734C20.0211 5.689 19.4537 5.03151 18.6969 4.69212C18.4531 4.58293 18.2028 4.48854 17.9476 4.40947L18.2016 2.25628ZM13.0346 6.02804C13.1258 5.91931 13.2464 5.83922 13.3819 5.79738C14.9318 5.25289 16.6269 5.29151 18.1503 5.90604C18.5478 6.08255 18.8464 6.42637 18.9656 6.84465C19.4148 8.27709 19.4564 9.80631 19.0855 11.261L17.793 12.6849L17.2997 12.237C17.1049 12.0643 16.8906 11.915 16.661 11.7923C16.8383 10.0935 16.4034 8.38725 15.4345 6.98064C15.2723 6.72577 14.9847 6.579 14.6832 6.59733C14.3524 6.6148 14.0549 6.80426 13.8992 7.09663C13.1682 8.5209 13.0737 10.188 13.6392 11.6857C13.3084 11.8467 13.0067 12.0619 12.7466 12.3223C12.0867 11.1104 11.0861 8.47654 13.0346 6.02804ZM5.13579 14.8855C5.16377 14.7466 5.23137 14.6188 5.33044 14.5175C7.57963 12.341 10.2981 13.0822 11.5714 13.6215C11.3379 13.9068 11.1536 14.229 11.0261 14.5748C9.4785 14.1522 7.82421 14.4071 6.4757 15.2761C6.20597 15.4619 6.04905 15.772 6.05906 16.0994C6.07204 16.3974 6.23959 16.667 6.50104 16.8107C7.58529 17.3949 8.794 17.7101 10.0255 17.7299C10.4944 17.7301 10.9619 17.6767 11.4187 17.5706C11.563 17.7874 11.7324 17.9863 11.9233 18.1632L12.4166 18.6112L11.1247 20.0351C9.713 20.5459 8.18674 20.6526 6.71769 20.3431C6.28978 20.265 5.9186 20.0011 5.70442 19.6225C4.94487 18.1652 4.7427 16.4811 5.13579 14.8855ZM4.19585 19.5678C4.29899 19.8144 4.4172 20.0544 4.54983 20.2864C4.96018 21.0059 5.66802 21.5068 6.48304 21.6544C7.16985 21.7767 7.86594 21.8396 8.56357 21.8423C8.86755 21.8423 9.18486 21.823 9.50551 21.7917C7.44697 23.8135 4.09053 23.9415 2.27264 23.8335L3.62922 22.339C3.74863 22.2083 3.81116 22.0355 3.80303 21.8587C3.7949 21.6819 3.71678 21.5155 3.58589 21.3964L2.07666 20.0278L4.19585 19.5678Z" fill="#F78484"/>
<path d="M33.3339 25.3294C33.702 25.3294 34.0005 25.0309 34.0005 24.6628V23.3295C34.0005 22.9614 33.702 22.6629 33.3339 22.6629C32.9657 22.6629 32.6672 22.9614 32.6672 23.3295V24.6628C32.6672 25.0309 32.9657 25.3294 33.3339 25.3294Z" fill="#F78484"/>
<path d="M33.3339 37.3286C33.702 37.3286 34.0005 37.0302 34.0005 36.662V27.3293C34.0005 26.9611 33.702 26.6627 33.3339 26.6627C32.9657 26.6627 32.6672 26.9611 32.6672 27.3293V36.662C32.6672 37.0302 32.9657 37.3286 33.3339 37.3286Z" fill="#F78484"/>
<path d="M16.0017 37.3286C16.3699 37.3286 16.6683 37.0302 16.6683 36.662V27.3293C16.6683 26.9611 16.3699 26.6627 16.0017 26.6627C15.6335 26.6627 15.3351 26.9611 15.3351 27.3293V36.662C15.3351 37.0302 15.6335 37.3286 16.0017 37.3286Z" fill="#F78484"/>
<path d="M27.8057 15.5254C27.5441 15.2728 27.1283 15.2764 26.8712 15.5335C26.6141 15.7906 26.6104 16.2064 26.8631 16.468L27.0584 16.6633L26.8631 16.8586C26.6898 17.026 26.6203 17.2739 26.6813 17.5069C26.7423 17.74 26.9243 17.922 27.1574 17.983C27.3905 18.044 27.6383 17.9745 27.8057 17.8012L28.001 17.6059L28.1963 17.8012C28.4579 18.0539 28.8737 18.0503 29.1308 17.7931C29.3879 17.536 29.3916 17.1202 29.1389 16.8586L28.9436 16.6633L29.1389 16.468C29.3916 16.2064 29.3879 15.7906 29.1308 15.5335C28.8737 15.2764 28.4579 15.2728 28.1963 15.5254L28.001 15.7207L27.8057 15.5254Z" fill="#F78484"/>
<path d="M35.5292 14.8588L35.3339 15.0541L35.1386 14.8588C34.877 14.6061 34.4612 14.6097 34.2041 14.8669C33.9469 15.124 33.9433 15.5398 34.196 15.8014L34.3913 15.9967L34.196 16.192C34.0227 16.3594 33.9532 16.6072 34.0142 16.8403C34.0752 17.0734 34.2572 17.2554 34.4903 17.3164C34.7233 17.3774 34.9712 17.3079 35.1386 17.1346L35.3339 16.9393L35.5292 17.1346C35.7908 17.3872 36.2065 17.3836 36.4637 17.1265C36.7208 16.8694 36.7244 16.4536 36.4718 16.192L36.2765 15.9967L36.4718 15.8014C36.7244 15.5398 36.7208 15.124 36.4637 14.8669C36.2065 14.6097 35.7908 14.6061 35.5292 14.8588Z" fill="#F78484"/>
<path d="M39.8048 9.52581C39.5445 9.26557 39.1225 9.26557 38.8622 9.52581L38.6669 9.72113L38.4716 9.52581C38.21 9.27317 37.7942 9.27679 37.5371 9.53393C37.2799 9.79107 37.2763 10.2068 37.529 10.4684L37.7243 10.6637L37.529 10.8591C37.3557 11.0264 37.2862 11.2743 37.3472 11.5073C37.4082 11.7404 37.5902 11.9224 37.8233 11.9834C38.0563 12.0444 38.3042 11.975 38.4716 11.8017L38.6669 11.6063L38.8622 11.8017C39.1238 12.0543 39.5396 12.0507 39.7967 11.7935C40.0538 11.5364 40.0575 11.1206 39.8048 10.8591L39.6095 10.6637L39.8048 10.4684C40.0651 10.2081 40.0651 9.78612 39.8048 9.52581Z" fill="#F78484"/>
<path d="M30.8627 13.1349C31.123 13.3952 31.5449 13.3952 31.8053 13.1349L32.0006 12.9396L32.1959 13.1349C32.4575 13.3875 32.8732 13.3839 33.1304 13.1268C33.3875 12.8697 33.3911 12.4539 33.1385 12.1923L32.9432 11.997L33.1385 11.8017C33.3911 11.5401 33.3875 11.1243 33.1304 10.8672C32.8732 10.61 32.4575 10.6064 32.1959 10.8591L32.0006 11.0544L31.8053 10.8591C31.5437 10.6064 31.1279 10.61 30.8708 10.8672C30.6136 11.1243 30.61 11.5401 30.8627 11.8017L31.058 11.997L30.8627 12.1923C30.6024 12.4526 30.6024 12.8746 30.8627 13.1349Z" fill="#F78484"/>
<path d="M33.5292 7.80191C33.7895 8.06214 34.2115 8.06214 34.4718 7.80191L34.6671 7.60659L34.8624 7.80191C35.124 8.05454 35.5398 8.05093 35.7969 7.79379C36.054 7.53665 36.0576 7.12087 35.805 6.8593L35.6097 6.66398L35.805 6.46866C36.0576 6.20709 36.054 5.79132 35.7969 5.53418C35.5398 5.27704 35.124 5.27343 34.8624 5.52606L34.6671 5.72138L34.4718 5.52606C34.2102 5.27343 33.7944 5.27704 33.5373 5.53418C33.2801 5.79132 33.2765 6.20709 33.5292 6.46866L33.7245 6.66398L33.5292 6.8593C33.2689 7.11962 33.2689 7.54159 33.5292 7.80191Z" fill="#F78484"/>
</svg>
