<svg width="60" height="60" viewBox="0 0 60 60" fill="none" xmlns="http://www.w3.org/2000/svg">
<path d="M30.0001 0C13.4576 0 0 13.4583 0 30.0001C0 46.542 13.4576 60.0003 30.0001 60.0003C46.542 60.0003 60.0003 46.542 60.0003 30.0001C60.0003 13.4583 46.542 0 30.0001 0ZM30.0001 57.8176C14.6614 57.8176 2.18207 45.3383 2.18207 30.0001C2.18207 14.6607 14.6614 2.18207 30.0001 2.18207C45.3389 2.18207 57.8176 14.6607 57.8176 30.0001C57.8176 45.3383 45.3389 57.8176 30.0001 57.8176Z" fill="#F78484"/>
<path d="M30.0002 7.06378C17.5971 7.06378 7.48713 16.9664 7.10066 29.2772C7.09005 29.3383 7.06445 29.3939 7.06445 29.4582C7.06445 29.4969 7.08193 29.5294 7.08631 29.5669C7.08318 29.7123 7.06445 29.854 7.06445 30.0001C7.06445 42.6468 17.3529 52.9359 30.0002 52.9359C42.6468 52.9359 52.9359 42.6468 52.9359 30.0001C52.9359 17.3535 42.6468 7.06378 30.0002 7.06378ZM45.1042 44.1895L42.4695 41.6397C42.0368 41.2195 41.3463 41.2314 40.9268 41.6653C40.5078 42.0986 40.5191 42.7885 40.9524 43.208L43.5303 45.7029C40.1626 48.6086 35.859 50.4385 31.1352 50.6964V47.3674C31.1352 46.7649 30.647 46.276 30.0445 46.276C29.442 46.276 28.9532 46.7649 28.9532 47.3674V50.7007C24.2069 50.4622 19.879 48.6361 16.4939 45.7241L18.5779 43.5714C18.9975 43.1387 18.9862 42.4476 18.5535 42.0287C18.1196 41.6097 17.4285 41.621 17.0108 42.0536L14.9193 44.2139C11.5316 40.6214 9.41384 35.8327 9.27462 30.5496H13.1305C13.733 30.5496 14.2213 30.0613 14.2213 29.4588C14.2213 28.8564 13.733 28.3675 13.1305 28.3675H9.32893C9.66545 24.0758 11.3018 20.1474 13.8598 16.982L16.6468 19.6798C16.8578 19.8846 17.1319 19.9864 17.4054 19.9864C17.6901 19.9864 17.9754 19.8752 18.1896 19.6542C18.6079 19.2215 18.5973 18.5304 18.164 18.1108L15.3139 15.3519C18.8414 11.815 23.64 9.56613 28.9532 9.29954V12.5442C28.9532 13.1473 29.4414 13.6356 30.0439 13.6356C30.6464 13.6356 31.1352 13.1473 31.1352 12.5442V9.30391C35.947 9.56613 40.3205 11.4648 43.7157 14.4653L41.2302 17.0332C40.8113 17.4659 40.8225 18.1564 41.2558 18.576C41.4674 18.7808 41.7409 18.8825 42.0144 18.8825C42.2997 18.8825 42.5844 18.7714 42.7985 18.5504L45.2715 15.9956C48.3177 19.3139 50.2981 23.6125 50.6708 28.3675H46.9585C46.3554 28.3675 45.8672 28.8557 45.8672 29.4582C45.8672 30.0607 46.3554 30.5496 46.9585 30.5496H50.7258C50.5872 35.8202 48.4781 40.5989 45.1042 44.1895Z" fill="#F78484"/>
<path d="M34.0239 24.3873C31.7769 24.3873 29.9482 26.216 29.9482 28.4636V32.4432C29.9482 34.6908 31.7769 36.5189 34.0239 36.5189C36.2716 36.5189 38.1002 34.6908 38.1002 32.4432V28.4636C38.1002 26.216 36.2716 24.3873 34.0239 24.3873ZM35.9176 32.4432C35.9176 33.4877 35.0678 34.3368 34.0239 34.3368C32.9794 34.3368 32.1303 33.4877 32.1303 32.4432V28.4636C32.1303 27.4191 32.9794 26.5694 34.0239 26.5694C35.0678 26.5694 35.9176 27.4191 35.9176 28.4636V32.4432Z" fill="#F78484"/>
<path d="M25.0689 28.3675H23.1752V27.5502C23.1752 25.5654 24.7904 23.9509 26.7745 23.9509C27.3777 23.9509 27.8659 23.462 27.8659 22.8595C27.8659 22.257 27.3777 21.7682 26.7745 21.7682C23.5867 21.7682 20.9932 24.3623 20.9932 27.5502V32.4431C20.9932 33.6506 21.5239 34.7888 22.4491 35.5661C23.189 36.1867 24.1174 36.5182 25.0757 36.5182C25.3155 36.5182 25.5577 36.4976 25.7993 36.4551C27.4426 36.1661 28.7924 34.8169 29.0809 33.173C29.2925 31.9686 28.9685 30.7474 28.1912 29.8234C27.4145 28.8975 26.2763 28.3675 25.0689 28.3675ZM26.9319 32.7953C26.8008 33.5395 26.1658 34.1751 25.4216 34.3062C24.8422 34.4054 24.2878 34.26 23.8526 33.8947C23.4218 33.5332 23.1752 33.0044 23.1752 32.4431V30.5495H25.0689C25.6301 30.5495 26.159 30.7961 26.5198 31.2263C26.8869 31.6627 27.0324 32.2203 26.9319 32.7953Z" fill="#F78484"/>
</svg>
