<svg width="40" height="36" viewBox="0 0 40 36" fill="none" xmlns="http://www.w3.org/2000/svg">
<path d="M33.3891 7.59027H6.61075C6.24064 7.59027 5.94104 7.89033 5.94104 8.25998V27.005C5.94104 27.3747 6.2411 27.6743 6.61075 27.6743H33.3891C33.7588 27.6743 34.0584 27.3747 34.0584 27.005V8.25998C34.0584 7.89033 33.7588 7.59027 33.3891 7.59027ZM7.91146 26.3353L13.3051 18.7841L16.2578 22.9112L14.2601 26.3353H7.91146ZM15.8111 26.3353L24.0164 12.2667L32.2235 26.3353H15.8111ZM32.7194 8.92924V24.5281L24.5953 10.6028C24.3805 10.2834 23.9472 10.1986 23.6278 10.4134C23.5532 10.4636 23.4886 10.5282 23.4384 10.6028L16.9966 21.6492L13.8504 17.2488C13.7255 17.0709 13.5227 16.9639 13.3051 16.963C13.0889 16.963 12.8861 17.0672 12.7603 17.2433L7.28047 24.9152V8.92924H32.7194Z" fill="#F78484"/>
<path d="M39.9337 24.7695L38.0753 17.8332V5.58199C38.0753 4.47302 37.1761 3.57377 36.0671 3.57377H34.2516L33.6938 1.48213C33.4021 0.415105 32.3033 -0.216813 31.2344 0.0684949L18.1448 3.57377H3.93289C2.82392 3.57377 1.92467 4.47302 1.92467 5.58199V7.9193L1.48818 8.03545C0.420237 8.32721 -0.213985 9.42419 0.0662527 10.4954L1.92467 17.4317V29.6829C1.92467 30.7919 2.82392 31.6911 3.93289 31.6911H5.74844L6.30615 33.7823C6.59422 34.8516 7.69443 35.4849 8.76376 35.1968C8.76422 35.1964 8.76514 35.1964 8.7656 35.1964L21.8552 31.6911H36.0671C37.1761 31.6911 38.0753 30.7919 38.0753 29.6824V27.3456L38.5118 27.229C39.5798 26.9377 40.214 25.8407 39.9337 24.7695ZM31.5815 1.36459C31.9368 1.26965 32.3019 1.4789 32.3996 1.83289L32.8642 3.57377H23.3204L31.5815 1.36459ZM1.36005 10.1511C1.26694 9.79293 1.47896 9.4265 1.83525 9.32832L1.92467 9.30482V12.2584L1.36005 10.1511ZM8.41807 33.9035C8.06317 33.9985 7.69812 33.7892 7.59994 33.4352L7.13442 31.6911H16.6796L8.41807 33.9035ZM36.7364 29.6829C36.7364 30.0525 36.4368 30.3521 36.0671 30.3521H3.93289C3.56323 30.3521 3.26364 30.0525 3.26364 29.6829V5.58199C3.26364 5.21233 3.56323 4.91273 3.93289 4.91273H36.0671C36.4368 4.91273 36.7364 5.21233 36.7364 5.58199V29.6829ZM38.1643 25.9338L38.0753 25.9596V23.006L38.64 25.1134C38.7312 25.4706 38.5197 25.8356 38.1643 25.9338Z" fill="#F78484"/>
<path d="M15.9831 16.2933C17.4622 16.2933 18.661 15.0944 18.661 13.6158C18.661 12.1367 17.4622 10.9379 15.9831 10.9379C14.504 10.9379 13.3052 12.1367 13.3052 13.6158C13.3052 15.0944 14.504 16.2933 15.9831 16.2933ZM15.9831 12.2768C16.7224 12.2768 17.3221 12.876 17.3221 13.6158C17.3221 14.3551 16.7224 14.9543 15.9831 14.9543C15.2438 14.9543 14.6441 14.3551 14.6441 13.6158C14.6441 12.876 15.2438 12.2768 15.9831 12.2768Z" fill="#F78484"/>
</svg>
