<svg width="40" height="42" viewBox="0 0 40 42" fill="none" xmlns="http://www.w3.org/2000/svg">
<path d="M18.6134 9.86325C18.6421 9.8615 21.4919 9.68242 22.6664 10.585C22.6704 10.588 22.6749 10.5902 22.679 10.593C23.5161 11.2894 24.591 11.709 25.7624 11.709C26.9004 11.709 27.9652 11.3061 28.8038 10.6257C28.8115 10.6208 28.8195 10.6168 28.8269 10.6114C30.1325 9.64997 33.2848 9.861 33.3162 9.86316C33.499 9.87581 33.6595 9.74899 33.69 9.56958C34.202 6.5527 33.0522 3.95439 30.365 2.05575C28.4013 0.668218 26.3246 0.143463 26.1746 0.106765C25.9839 0.054922 25.6306 0 25.4017 0C24.7017 0 24.2404 0.325538 23.9097 0.667469C23.6916 0.592242 23.4646 0.553547 23.232 0.553547C22.6794 0.553547 22.1589 0.764415 21.7647 1.1477C21.6379 1.2558 20.5549 2.19846 19.5868 3.65057C18.2319 5.68293 17.7686 7.73976 18.2471 9.59862C18.2897 9.76339 18.4442 9.87498 18.6134 9.86325ZM21.6411 6.8804C21.6411 5.74709 22.1032 4.67711 22.9167 3.90071C24.1513 5.08403 26.7233 7.2438 29.7257 8.01113C29.2273 9.76106 27.6078 11.0017 25.7623 11.0017C23.4899 11.0016 21.6411 9.15284 21.6411 6.8804ZM22.2306 1.67995C22.2377 1.67404 22.2445 1.6678 22.2511 1.66122C22.5134 1.40301 22.8617 1.26079 23.232 1.26079C23.4459 1.26079 23.6532 1.30972 23.8479 1.40625C23.9967 1.4799 24.1717 1.43837 24.2743 1.31696L24.2751 1.31763C24.6414 0.884078 24.9678 0.707246 25.4016 0.707246C25.5455 0.707246 25.8435 0.74902 25.9919 0.790045C25.9956 0.791127 25.9995 0.792042 26.0033 0.792958C26.0238 0.797867 28.0712 1.3009 29.9568 2.63334C32.3479 4.3227 33.3838 6.51117 33.0393 9.14152C32.4262 9.12055 31.0693 9.11722 29.8717 9.41388C30.1095 9.03026 30.2948 8.60936 30.418 8.16075C30.8243 8.23256 31.2367 8.27741 31.6536 8.28832C31.6568 8.28848 31.6598 8.28848 31.663 8.28848C31.8541 8.28848 32.0113 8.1362 32.0164 7.94405C32.0216 7.74875 31.8674 7.5864 31.6721 7.58124C27.0154 7.45908 22.7122 2.68577 22.6693 2.63759C22.5394 2.49171 22.3159 2.47881 22.17 2.60846C22.0241 2.73836 22.011 2.96171 22.1409 3.10767C22.1646 3.13438 22.2592 3.23948 22.4155 3.40159C21.4705 4.31021 20.9337 5.55828 20.9337 6.88015C20.9337 7.79909 21.192 8.65879 21.6394 9.39083C20.5779 9.1332 19.41 9.12846 18.8688 9.14402C18.0896 5.22267 22.1883 1.71565 22.2306 1.67995Z" fill="#F78484"/>
<path d="M39.7965 11.9885C39.6362 11.5456 39.2611 10.5084 38.2246 10.883C38.0761 10.9367 37.9082 11.0226 37.7357 11.1307C37.7789 10.931 37.8028 10.7432 37.8028 10.5847C37.8028 9.48228 36.6997 9.48228 36.2287 9.48228C35.7577 9.48228 34.6546 9.48228 34.6546 10.5847C34.6546 10.7327 34.6754 10.9063 34.7133 11.0914C34.5527 10.9904 34.3967 10.9098 34.2575 10.8577C33.7267 10.6591 33.3747 10.8535 33.1731 11.0516C32.9434 11.2773 32.7972 11.6147 32.6734 11.9455C32.5495 12.2766 32.4383 12.627 32.4634 12.948C32.4855 13.2299 32.6232 13.6076 33.1541 13.8062C33.2949 13.8589 33.468 13.9009 33.6582 13.9302C33.5044 14.0475 33.3721 14.1677 33.2733 14.282C32.552 15.1154 33.3859 15.8373 33.7422 16.1456C33.9765 16.3485 34.4178 16.7304 34.8979 16.7303C35.1473 16.7303 35.4072 16.6271 35.654 16.3421C35.7274 16.2572 35.8015 16.1533 35.8735 16.0362V19.7252L29.9663 13.6378C29.9298 13.5993 30.004 13.6753 29.9663 13.6378C29.9656 13.6371 29.9668 13.6385 29.9663 13.6378C28.9365 12.6168 27.3878 11.945 25.7624 11.945C24.1581 11.945 22.6607 12.5655 21.6331 13.5581C21.6116 13.5721 21.591 13.5882 21.5724 13.6075L15.4382 19.9289C14.6199 20.7693 14.6378 22.1188 15.4782 22.9373C15.8907 23.3389 16.426 23.5392 16.9611 23.5392C17.3869 23.5392 17.8125 23.4119 18.1764 23.159L17.9065 24.0795H11.3054C10.3078 21.9737 10.3129 19.9254 11.3219 17.819C11.4063 17.6429 11.3319 17.4317 11.1557 17.3473C11.0523 17.2978 10.9371 17.3043 10.8423 17.3527L10.8418 17.3519C9.95204 17.8162 9.07254 18.0749 8.19445 18.1292V15.7051C8.25095 15.7946 8.30854 15.876 8.36604 15.9444C8.626 16.254 8.90494 16.3447 9.1426 16.3447C9.2383 16.3447 9.32734 16.33 9.40573 16.3089C9.71662 16.2254 10.01 16.0034 10.2804 15.7763C10.551 15.549 10.8201 15.2984 10.9561 15.0066C11.0755 14.7503 11.1413 14.3537 10.7767 13.9196C10.6778 13.8019 10.5444 13.6775 10.3889 13.5559C10.5851 13.5287 10.7639 13.4881 10.9088 13.4357C11.4419 13.2429 11.5839 12.8667 11.6091 12.5851C11.6378 12.2644 11.5305 11.9127 11.4103 11.5805C11.2501 11.1376 10.8751 10.1005 9.83837 10.475C9.68991 10.5287 9.52198 10.6146 9.34948 10.7227C9.39275 10.523 9.41663 10.3352 9.41663 10.1767C9.41663 9.07428 8.31353 9.07428 7.84253 9.07428C7.37153 9.07428 6.26843 9.07428 6.26843 10.1767C6.26843 10.3247 6.28915 10.4983 6.32718 10.6834C6.16641 10.5824 6.01047 10.5018 5.87133 10.4497C5.34058 10.2511 4.9885 10.4454 4.78687 10.6436C4.5572 10.8693 4.41099 11.2067 4.28716 11.5375C4.16334 11.8686 4.05208 12.219 4.07721 12.54C4.09926 12.8219 4.23698 13.1996 4.7679 13.3982C4.9087 13.4509 5.08179 13.4929 5.27202 13.5222C5.11823 13.6395 4.98592 13.7597 4.88715 13.874C4.16584 14.7074 4.99982 15.4293 5.35598 15.7377C5.59031 15.9405 6.0316 16.3225 6.51167 16.3224C6.76107 16.3224 7.02103 16.2192 7.26777 15.9342C7.34124 15.8492 7.41539 15.7454 7.48729 15.6283V18.1287C6.60995 18.0729 5.73136 17.8132 4.84237 17.3494L4.84038 17.3533C4.74526 17.3043 4.62984 17.2977 4.52607 17.3474C4.34991 17.4317 4.27551 17.6429 4.35989 17.8191C5.36879 19.9255 5.37404 21.9739 4.37645 24.0796H1.18582C0.531995 24.0796 0 24.6116 0 25.2654V40.1532C0 40.8071 0.531995 41.3391 1.18582 41.3391H38.41C39.0638 41.3391 39.5958 40.8071 39.5958 40.1532V25.2654C39.5958 24.6116 39.0638 24.0796 38.41 24.0796H33.6159L33.3499 23.1719C33.7092 23.4166 34.128 23.5396 34.5471 23.5396C35.0824 23.5396 35.6182 23.3394 36.031 22.9373C36.6219 22.3619 36.8057 21.5241 36.5787 20.7853C36.5791 20.7782 36.5807 20.7715 36.5807 20.7643V16.1132C36.6372 16.2027 36.6948 16.2841 36.7522 16.3525C37.0122 16.6621 37.2911 16.7527 37.5288 16.7527C37.6245 16.7527 37.7135 16.738 37.7919 16.7169C38.1028 16.6334 38.3962 16.4114 38.6666 16.1843C38.9372 15.9569 39.2063 15.7064 39.3423 15.4146C39.4617 15.1583 39.5275 14.7617 39.1629 14.3276C39.064 14.2099 38.9306 14.0855 38.7751 13.9639C38.9713 13.9367 39.1501 13.8961 39.295 13.8437C39.8281 13.6509 39.9701 13.2747 39.9953 12.9931C40.024 12.6725 39.9167 12.3208 39.7965 11.9885ZM36.2271 13.8391C36.1961 13.8391 36.166 13.8359 36.1364 13.8311C36.1349 13.8309 36.1334 13.8306 36.132 13.8304C35.9029 13.7911 35.7209 13.6132 35.6761 13.386C35.6758 13.3844 35.6757 13.3829 35.6754 13.3813C35.669 13.3475 35.6654 13.3129 35.6654 13.2773C35.6654 12.9676 35.9173 12.7156 36.2271 12.7156C36.5368 12.7156 36.7888 12.9676 36.7888 13.2773C36.7888 13.3397 36.7781 13.3996 36.7593 13.4556C36.7591 13.4563 36.7588 13.4569 36.7586 13.4574C36.6833 13.679 36.4737 13.8391 36.2271 13.8391ZM36.2287 10.1896C37.0955 10.1896 37.0955 10.364 37.0955 10.5847C37.0955 10.9316 36.8959 11.6302 36.6032 12.0653C36.4843 12.0283 36.358 12.0084 36.227 12.0084C36.0971 12.0084 35.9718 12.0281 35.8538 12.0646C35.5613 11.6292 35.362 10.9314 35.362 10.5848C35.362 10.364 35.362 10.1896 36.2287 10.1896ZM33.1687 12.8929C33.1543 12.7089 33.2451 12.4362 33.3359 12.1936C33.4267 11.9511 33.5371 11.6857 33.6689 11.5563C33.7324 11.4938 33.8064 11.4444 34.0097 11.5203C34.3349 11.6419 34.9202 12.0746 35.2249 12.5017C35.0729 12.6977 34.9775 12.9388 34.9619 13.2016C34.4516 13.3232 33.7269 13.2654 33.4021 13.1438C33.1986 13.0677 33.1756 12.9816 33.1687 12.8929ZM35.119 15.8793C34.9745 16.0461 34.8603 16.1779 34.205 15.6107C33.5497 15.0434 33.6638 14.9117 33.8081 14.7448C34.0354 14.4823 34.6447 14.0842 35.151 13.9469C35.2854 14.1621 35.4817 14.3343 35.7156 14.4379C35.652 14.9584 35.3459 15.6172 35.119 15.8793ZM29.4868 14.1582C29.4923 14.1647 29.4806 14.1519 29.4868 14.1582C29.8698 14.5879 30.2863 15.2197 30.4402 15.7607L33.9537 27.7461H17.5685L19.1545 22.3374H28.4919C28.6873 22.3374 28.8455 22.1792 28.8455 21.9838C28.8455 21.7884 28.6873 21.6301 28.4919 21.6301H19.3802C19.3737 21.6301 19.3678 21.6317 19.3613 21.632L21.084 15.757C21.5908 13.9581 23.5582 12.6524 25.7623 12.6524C27.188 12.6525 28.5893 13.2803 29.4868 14.1582ZM21.1579 30.1203H24.5991C24.5964 30.1377 24.5937 30.155 24.5937 30.1732V38.7726C24.5937 39.7184 23.8243 40.4878 22.8786 40.4878C21.9328 40.4878 21.1633 39.7184 21.1633 38.7726V30.1732C21.1632 30.155 21.1605 30.1377 21.1579 30.1203ZM25.3011 38.7726V30.1732C25.3011 30.155 25.2984 30.1377 25.2958 30.1203H26.2264C26.2238 30.1377 26.221 30.155 26.221 30.1732V38.7726C26.221 39.5188 26.5604 40.187 27.0926 40.6318H24.4296C24.9617 40.187 25.3011 39.5187 25.3011 38.7726ZM28.6436 40.4878C27.6978 40.4878 26.9284 39.7184 26.9284 38.7726V30.1732C26.9284 30.155 26.9257 30.1377 26.923 30.1203H30.3642C30.3616 30.1377 30.3589 30.155 30.3589 30.1732V38.7726C30.3588 39.7184 29.5893 40.4878 28.6436 40.4878ZM17.0797 29.413L17.3617 28.4513C17.3689 28.4517 17.3758 28.4533 17.3832 28.4533H34.1611L34.4424 29.4129H17.0797V29.413ZM17.9797 22.4039C17.4333 22.9647 16.5325 22.9769 15.9715 22.4305C15.4105 21.8843 15.3986 20.9833 15.9453 20.4218L20.2927 15.9417L18.5834 21.7711L17.9797 22.4039ZM7.28973 12.9781C7.28948 12.9765 7.2894 12.975 7.28907 12.9734C7.28266 12.9396 7.279 12.905 7.279 12.8694C7.279 12.5597 7.53097 12.3077 7.8407 12.3077C8.15043 12.3077 8.4024 12.5597 8.4024 12.8694C8.4024 12.9321 8.39159 12.9921 8.37261 13.0485C8.37253 13.0487 8.37245 13.049 8.37236 13.0492C8.29714 13.2709 8.08743 13.4311 7.8407 13.4311C7.56825 13.4311 7.34058 13.236 7.28973 12.9781ZM10.3149 14.7079C10.2368 14.8754 10.0237 15.0681 9.8253 15.2347C9.62708 15.4013 9.40049 15.578 9.22207 15.6259C9.1362 15.649 9.04724 15.6559 8.90769 15.4896C8.6845 15.224 8.38809 14.5607 8.33225 14.0392C8.56834 13.9397 8.76747 13.7703 8.90552 13.5575C9.40956 13.7025 10.012 14.109 10.2351 14.3746C10.3747 14.5409 10.3525 14.6271 10.3149 14.7079ZM10.0788 11.1403C10.2863 11.0652 10.4504 11.006 10.745 11.8211C10.8331 12.0646 10.9209 12.3384 10.9044 12.5223C10.8965 12.6109 10.8725 12.6968 10.6682 12.7705C10.3417 12.8886 9.6156 12.9384 9.10674 12.8106C9.09459 12.5473 9.00239 12.3053 8.85318 12.1076C9.16282 11.6841 9.7524 11.2583 10.0788 11.1403ZM7.84245 9.78169C8.70922 9.78169 8.70922 9.95611 8.70922 10.1768C8.70922 10.5236 8.50959 11.2222 8.21692 11.6574C8.098 11.6204 7.97168 11.6004 7.8407 11.6004C7.7108 11.6004 7.58556 11.6201 7.46748 11.6566C7.17506 11.2213 6.97568 10.5234 6.97568 10.1768C6.97568 9.95611 6.97568 9.78169 7.84245 9.78169ZM4.78238 12.4849C4.76798 12.3009 4.85885 12.0282 4.94964 11.7856C5.04043 11.5431 5.15085 11.2777 5.28258 11.1483C5.34616 11.0859 5.42014 11.0363 5.62343 11.1123C5.94864 11.2339 6.53389 11.6666 6.83871 12.0937C6.68667 12.2897 6.59131 12.5308 6.57566 12.7936C6.06539 12.9153 5.34075 12.8574 5.01588 12.7358C4.81233 12.6598 4.78928 12.5737 4.78238 12.4849ZM6.73269 15.4714C6.58823 15.6382 6.47406 15.77 5.81874 15.2028C5.16342 14.6355 5.27751 14.5037 5.4218 14.3369C5.64906 14.0743 6.25845 13.6762 6.76473 13.539C6.89912 13.7542 7.09543 13.9264 7.32934 14.0299C7.2656 14.5505 6.95962 15.2092 6.73269 15.4714ZM5.35132 18.3571C6.17898 18.6791 7.00996 18.8402 7.84078 18.8402C8.67169 18.8402 9.50259 18.6791 10.3302 18.3572C9.64414 20.2601 9.71096 22.1798 10.5296 24.0796H5.15202C5.97061 22.1798 6.03743 20.2601 5.35132 18.3571ZM0.707329 40.1532V39.0922H16.3585C16.5539 39.0922 16.7122 38.934 16.7122 38.7386C16.7122 38.5432 16.5539 38.3849 16.3585 38.3849H0.707329V28.8568H7.87615C8.07154 28.8568 8.22982 28.6985 8.22982 28.5031C8.22982 28.3077 8.07154 28.1494 7.87615 28.1494H0.707329V25.2654C0.707329 25.0015 0.921941 24.7869 1.18582 24.7869H17.699L16.2681 29.6671C16.2367 29.7741 16.2576 29.8895 16.3243 29.9787C16.3911 30.0678 16.496 30.1203 16.6074 30.1203H20.4613C20.4586 30.1377 20.456 30.155 20.456 30.1732V38.7726C20.456 39.5188 20.7953 40.187 21.3276 40.6318H1.18582C0.921941 40.6317 0.707329 40.4171 0.707329 40.1532ZM38.41 24.7869C38.6738 24.7869 38.8885 25.0015 38.8885 25.2654V38.0521H32.5967C32.4013 38.0521 32.2431 38.2103 32.2431 38.4057C32.2431 38.6011 32.4013 38.7594 32.5967 38.7594H38.8885V40.1532C38.8885 40.4171 38.6738 40.6317 38.41 40.6317H30.1945C30.7267 40.1869 31.0661 39.5187 31.0661 38.7725V30.1731C31.0661 30.1549 31.0635 30.1376 31.0608 30.1202H34.9146C35.026 30.1202 35.131 30.0677 35.1976 29.9786C35.2644 29.8895 35.2853 29.774 35.2539 29.6671L33.8234 24.7869H38.41ZM35.5375 22.4306C34.9766 22.9769 34.0757 22.965 33.5318 22.4065L32.9452 21.7916L31.2364 15.9625L35.5642 20.4223C36.1104 20.9834 36.0985 21.8843 35.5375 22.4306ZM38.7011 15.1159C38.6231 15.2833 38.41 15.476 38.2116 15.6426C38.0134 15.8092 37.7868 15.9859 37.6084 16.0338C37.5224 16.057 37.4335 16.0639 37.294 15.8975C37.0708 15.6319 36.7744 14.9686 36.7186 14.4472C36.9546 14.3476 37.1538 14.1782 37.2918 13.9654C37.7958 14.1104 38.3982 14.517 38.6214 14.7825C38.761 14.9489 38.7388 15.0351 38.7011 15.1159ZM39.2907 12.9302C39.2828 13.0188 39.2588 13.1047 39.0545 13.1785C38.7281 13.2965 38.002 13.3463 37.493 13.2185C37.4809 12.9553 37.3887 12.7132 37.2395 12.5155C37.5491 12.092 38.1387 11.6662 38.4651 11.5483C38.6726 11.473 38.8366 11.414 39.1313 12.2291C39.2194 12.4725 39.3072 12.7463 39.2907 12.9302Z" fill="#F78484"/>
</svg>
