<svg width="60" height="40" viewBox="0 0 60 40" fill="none" xmlns="http://www.w3.org/2000/svg">
<path d="M53.75 0H6.24996C2.80254 0 0 2.805 0 6.25008V33.7501C0 37.1951 2.80254 40.0001 6.24996 40.0001H53.7499C57.1975 40.0001 59.9999 37.1951 59.9999 33.7501V6.25008C60 2.805 57.1975 0 53.75 0ZM57.5 33.75C57.5 35.8175 55.8176 37.5 53.75 37.5H6.24996C4.18242 37.5 2.49996 35.8175 2.49996 33.75V6.25008C2.49996 4.18254 4.18242 2.50008 6.24996 2.50008H53.7499C55.8175 2.50008 57.4999 4.18254 57.4999 6.25008V33.75H57.5Z" fill="#F78484"/>
<path d="M18.75 25.0001H8.75004C8.06004 25.0001 7.5 25.5601 7.5 26.2501C7.5 26.9401 8.06004 27.5 8.75004 27.5H18.75C19.44 27.5 20 26.94 20 26.25C20 25.56 19.44 25.0001 18.75 25.0001Z" fill="#F78484"/>
<path d="M26.25 30H8.75004C8.06004 30 7.5 30.56 7.5 31.25C7.5 31.94 8.06004 32.5001 8.75004 32.5001H26.25C26.94 32.5001 27.5 31.94 27.5 31.25C27.5 30.56 26.94 30 26.25 30Z" fill="#F78484"/>
<path d="M27.6749 5.57001C26.2124 5.13255 24.5824 5.69997 23.6599 6.94251C22.9549 7.88751 22.7399 9.06501 23.0699 10.175C24.7898 15.96 30.2099 20 36.2498 20C36.9398 20 37.4999 19.44 37.4999 18.75C37.4999 12.71 33.4598 7.28997 27.6749 5.57001ZM25.4648 9.46251C25.3223 8.99001 25.5273 8.61747 25.6623 8.43747C25.9048 8.11251 26.2723 7.91751 26.6423 7.91751C26.7473 7.91751 26.8548 7.93497 26.9598 7.96497C31.2648 9.24501 34.3873 13.0299 34.9173 17.42C30.5249 16.8875 26.7449 13.7651 25.4648 9.46251Z" fill="#F78484"/>
<path d="M48.84 6.94257C47.915 5.70261 46.2875 5.13261 44.825 5.57007C39.04 7.29003 35 12.7101 35 18.75C35 19.44 35.56 20.0001 36.25 20.0001C42.29 20.0001 47.71 15.96 49.43 10.1751C49.76 9.06754 49.545 7.88757 48.84 6.94257ZM47.0325 9.46257C45.755 13.7676 41.9724 16.89 37.58 17.4201C38.11 13.0275 41.235 9.24507 45.5375 7.96503C45.645 7.93503 45.7525 7.91757 45.8575 7.91757C46.2275 7.91757 46.595 8.11257 46.835 8.43753C46.97 8.61753 47.175 8.99007 47.0325 9.46257Z" fill="#F78484"/>
<path d="M36.25 0C35.56 0 35 0.560039 35 1.25004V38.75C35 39.44 35.56 40.0001 36.25 40.0001C36.94 40.0001 37.5001 39.44 37.5001 38.75V1.25004C37.5001 0.560039 36.94 0 36.25 0Z" fill="#F78484"/>
<path d="M37.1327 17.8676C36.6452 17.3801 35.8526 17.3801 35.3651 17.8676L27.8651 25.3676C27.3776 25.8551 27.3776 26.6476 27.8651 27.1351C28.1102 27.3776 28.4301 27.5002 28.7501 27.5002C29.0702 27.5002 29.3901 27.3777 29.6327 27.1351L37.1327 19.6351C37.6202 19.1475 37.6202 18.3551 37.1327 17.8676Z" fill="#F78484"/>
<path d="M44.6327 25.3676L37.1327 17.8676C36.6452 17.3801 35.8526 17.3801 35.3651 17.8676C34.8776 18.3551 34.8776 19.1476 35.3651 19.6351L42.8651 27.1351C43.1102 27.3776 43.4301 27.5002 43.7501 27.5002C44.0702 27.5002 44.3901 27.3777 44.6327 27.1351C45.1202 26.6475 45.1202 25.8551 44.6327 25.3676Z" fill="#F78484"/>
<path d="M58.75 17.5001H1.25004C0.560039 17.5001 0 18.06 0 18.75C0 19.44 0.560039 20 1.25004 20H58.7501C59.4401 20 60.0001 19.44 60.0001 18.75C60.0001 18.06 59.44 17.5001 58.75 17.5001Z" fill="#F78484"/>
</svg>
