<svg width="24" height="30" viewBox="0 0 24 30" fill="none" xmlns="http://www.w3.org/2000/svg">
<path d="M23.0637 6.07417L11.7884 0.066105C11.6211 -0.0231702 11.4207 -0.0219173 11.2546 0.0692375L0.291319 6.07731C0.111516 6.17598 0 6.36455 0 6.56973V14.4178C0.0065782 20.8691 3.82881 26.7055 9.73978 29.2901L11.2615 29.9533C11.4037 30.0153 11.5657 30.0156 11.7082 29.9539L13.4229 29.2134C19.4435 26.6849 23.3604 20.7921 23.361 14.2621V6.56973C23.361 6.36236 23.2467 6.17159 23.0637 6.07417ZM22.2383 14.2621C22.2371 20.3419 18.5893 25.8278 12.9834 28.1806L12.9797 28.1825L11.4864 28.8272L10.189 28.2611C4.6868 25.8554 1.12863 20.4231 1.12236 14.4178V6.90209L11.5281 1.19912L22.2383 6.90616V14.2621Z" fill="#38282B"/>
<path d="M7.3869 14.0537C7.18549 13.8178 6.83121 13.79 6.59533 13.9914C6.35946 14.1925 6.33158 14.5471 6.533 14.7826L9.49818 18.255C9.69616 18.4868 10.0429 18.5184 10.2791 18.3261L17.1849 12.7077C17.4255 12.5122 17.4618 12.1586 17.2661 11.918C17.0706 11.6777 16.7169 11.6411 16.4764 11.8369L9.99593 17.1088L7.3869 14.0537Z" fill="#38282B"/>
</svg>
