<svg width="30" height="30" viewBox="0 0 30 30" fill="none" xmlns="http://www.w3.org/2000/svg">
<path d="M22.7149 27.1886C22.5526 26.9089 22.1942 26.8136 21.9141 26.9759L21.8915 26.9889C21.6117 27.1513 21.5165 27.5098 21.6788 27.7897C21.7875 27.977 21.9841 28.0817 22.1861 28.0817C22.2858 28.0817 22.3871 28.0561 22.4796 28.0024L22.5021 27.9894C22.782 27.827 22.8772 27.4685 22.7149 27.1886Z" fill="#38282B"/>
<path d="M27.99 7.50466C25.9871 4.03561 22.7532 1.55421 18.8841 0.517447C15.015 -0.519315 10.9736 0.0127772 7.50458 2.01558C4.03558 4.01838 1.55412 7.2523 0.517421 11.1214C-0.519282 14.9906 0.012751 19.032 2.01555 22.501C3.8121 25.6127 6.6675 27.9776 10.0558 29.1599C11.6619 29.7203 13.3385 30 15.0126 30C16.8329 30 18.6498 29.6692 20.3672 29.0091C20.6693 28.893 20.82 28.5541 20.7039 28.252C20.5877 27.95 20.2487 27.7991 19.9468 27.9154C15.3753 29.6725 10.4263 28.8741 6.72885 26.0988L7.25379 23.3586L7.50674 23.2765C8.46259 22.9659 8.98759 21.9356 8.67716 20.9797L8.49153 20.4085C8.44858 20.2763 8.44882 20.1365 8.49212 20.0045C8.65495 19.508 8.59677 18.9649 8.33245 18.5142C8.06813 18.0636 7.62253 17.7476 7.10977 17.6473L5.7873 17.3889L3.23565 15.4489C3.08278 15.3326 2.88268 15.2987 2.69999 15.358L1.20608 15.8433C1.17438 15.309 1.17391 14.7748 1.20403 14.2435C1.26297 14.2984 1.30135 14.3357 1.32496 14.3602C1.3542 14.4089 1.39041 14.4536 1.43283 14.4922C1.55483 14.6033 1.66534 14.6537 1.89737 14.6537C2.11059 14.6537 2.42624 14.6112 2.94743 14.5342C3.44173 14.4611 3.93345 14.3788 3.93831 14.378C4.13536 14.345 4.30195 14.2137 4.38035 14.03C4.45875 13.8463 4.43806 13.6353 4.3255 13.4702L3.60708 12.4164L4.63611 11.6806C4.70466 11.6316 4.76185 11.5683 4.80375 11.4952L6.39885 8.71053L7.0418 8.02158C7.69882 7.31739 7.88632 6.28714 7.5194 5.39674C7.30295 4.87157 6.92491 4.43434 6.45205 4.13967C6.96416 3.73707 7.5102 3.36535 8.09052 3.03037C10.2197 1.80107 12.5433 1.20534 14.8425 1.18255L13.7962 2.49499L9.91642 3.85514C9.75886 3.91033 9.6323 4.03021 9.56867 4.18455L8.48515 6.8112C8.40821 6.99782 8.43265 7.21075 8.54989 7.37505L10.1324 9.59178C9.90576 9.79856 9.68515 10.0997 9.42165 10.4737C9.30611 10.6377 9.19701 10.7925 9.12159 10.8794C9.05603 10.955 8.9904 11.0288 8.92536 11.1019C8.58499 11.4848 8.23308 11.8809 7.98306 12.4099C7.43333 13.5735 7.54436 14.9259 8.2728 15.9395C8.97716 16.9195 10.1384 17.4176 11.3778 17.2719C11.5797 17.2482 11.7679 17.2016 11.9501 17.1565C12.4524 17.0322 12.6116 17.0198 12.7727 17.1706C12.8511 17.244 12.8583 17.2579 12.8567 17.5069C12.8556 17.6653 12.8544 17.8624 12.909 18.0875C12.9965 18.4476 13.2226 18.6964 13.4042 18.8963C13.4945 18.9956 13.5879 19.0984 13.6167 19.1674C13.7994 19.6053 13.7199 19.8478 13.5455 20.3793C13.5306 20.4247 13.5153 20.4712 13.5 20.5187C13.2351 21.3388 13.6044 22.1522 13.9302 22.8697C14.036 23.1027 14.1359 23.3227 14.2013 23.5171C14.7282 25.0803 15.1231 25.4383 15.44 25.5825C15.606 25.658 15.7778 25.6911 15.9514 25.691C16.796 25.6909 17.6774 24.9067 18.0823 24.4095C18.3366 24.0974 18.3992 23.7848 18.4449 23.5564C18.4677 23.4429 18.4856 23.3532 18.5198 23.2946C18.5722 23.205 18.6339 23.1355 18.712 23.0475C18.8691 22.8706 19.0646 22.6505 19.1913 22.2515C19.2875 21.9485 19.3574 21.8742 19.5889 21.6276C19.6292 21.5848 19.6721 21.539 19.7183 21.4888C20.4987 20.6396 20.2977 19.9909 20.0848 19.3041C19.9057 18.7262 20.219 18.3566 20.9765 17.6511C21.3049 17.3453 21.6444 17.0292 21.9068 16.6492C22.0216 16.483 22.371 15.9771 22.1548 15.4757C21.9429 14.9841 21.4042 14.9015 20.9715 14.8352C20.8005 14.8089 20.5423 14.7693 20.4601 14.7156C20.0975 14.4786 19.8758 13.9839 19.6612 13.5055C19.6185 13.4103 19.5764 13.3163 19.5337 13.2251C19.4575 13.0623 19.3814 12.8654 19.3008 12.6569C19.0877 12.1052 18.8461 11.4798 18.4348 11.0439C18.0651 10.6522 17.3683 10.4635 16.7535 10.297C16.5467 10.241 16.3515 10.1881 16.2228 10.1406C16.1149 10.1008 15.9978 10.0936 15.8862 10.1198C15.5869 10.19 15.4002 10.2673 15.2616 10.3783C15.225 10.4077 15.1165 10.5041 15.053 10.659C14.8385 10.5561 14.5435 10.3595 14.362 10.2385C14.3583 10.236 14.3544 10.2334 14.3507 10.2309C14.4119 9.98612 14.3565 9.78965 14.2985 9.66695C13.9712 8.97461 12.8847 9.02881 12.6703 9.04703C12.5486 9.05723 12.3945 9.06268 12.2316 9.06842C11.9756 9.0775 11.6928 9.0877 11.4129 9.1191L11.4273 9.07891C11.6397 8.48693 12.205 8.0892 12.834 8.0892H13.1671C13.4906 8.0892 13.753 7.82681 13.753 7.50331C13.753 7.17982 13.4906 6.91743 13.1671 6.91743H12.834C11.9002 6.91743 11.0452 7.40886 10.5659 8.18236L9.69201 6.95816L10.5518 4.87403L14.343 3.54488C14.447 3.50844 14.5386 3.4434 14.6073 3.3572L16.2927 1.24319C20.599 1.65282 24.6525 4.06725 26.9753 8.09043C27.594 9.16205 28.0517 10.2902 28.3559 11.4441L28.1076 11.6656C27.7834 11.9549 27.5934 12.3698 27.5861 12.804C27.5861 12.8088 27.586 12.8135 27.5858 12.8181L27.1811 11.7053C27.1208 11.5393 27.032 11.387 26.9173 11.2527L26.1955 10.4076C25.9156 10.08 25.5082 9.89225 25.0774 9.89225H24.1939C23.8802 9.89225 23.5936 10.064 23.4457 10.3404C23.2977 10.6169 23.3139 10.9507 23.4878 11.2116L23.5773 11.3458C23.0063 11.8368 22.346 12.2297 21.6428 12.4946L20.4317 10.1747V9.65717C20.4317 9.49709 20.3662 9.34387 20.2503 9.23342L19.1597 8.19226C19.0996 8.13484 19.0278 8.09089 18.9494 8.0633L17.9676 7.7183C17.6622 7.61083 17.3279 7.77156 17.2206 8.07677C17.1133 8.38211 17.2738 8.7165 17.5791 8.82379L18.4418 9.12701L19.2599 9.90789V10.3185C19.2599 10.4129 19.2828 10.506 19.3265 10.5897L20.8427 13.494C20.9791 13.7554 21.2886 13.8748 21.5648 13.7726L22.0063 13.6098C23.032 13.2315 23.9827 12.623 24.7556 11.8502C24.9531 11.6526 24.9838 11.3433 24.8288 11.1109L24.7977 11.0641H25.0774C25.1649 11.0641 25.2477 11.1022 25.3045 11.1688L26.0264 12.0139C26.0496 12.0411 26.0676 12.0719 26.0799 12.1058L26.8765 14.2962C26.9449 14.4844 27.1048 14.6245 27.3001 14.6679C27.3423 14.6772 27.3848 14.6818 27.4271 14.6818C27.5807 14.6818 27.7303 14.6213 27.8413 14.5102L28.2205 14.131C28.4606 13.8908 28.6259 13.587 28.7049 13.2501C29.2913 17.9496 27.4486 22.811 23.5536 25.8681C23.299 26.0679 23.2546 26.4361 23.4544 26.6907C23.6542 26.9453 24.0224 26.9897 24.277 26.7899C27.0891 24.5828 29.0209 21.4261 29.7167 17.9011C30.419 14.3422 29.8059 10.6499 27.99 7.50466ZM2.77042 16.5672L5.18642 18.4042C5.25785 18.4585 5.3407 18.4957 5.42871 18.5128L6.88489 18.7974C7.07075 18.8337 7.22579 18.9436 7.32159 19.107C7.41739 19.2703 7.43755 19.4592 7.3786 19.6392C7.25731 20.0091 7.25672 20.4003 7.37702 20.7705L7.56264 21.3416C7.67356 21.683 7.48594 22.051 7.14463 22.1619L6.56239 22.3511C6.35924 22.4171 6.20818 22.5884 6.16805 22.7981L5.69941 25.2443C4.66916 24.3014 3.76458 23.1869 3.03034 21.9151C2.13456 20.3638 1.57487 18.709 1.32819 17.0358L2.77042 16.5672ZM6.1851 7.22212L5.49586 7.96058C5.4651 7.99357 5.4382 8.03001 5.41576 8.06916L3.8506 10.8017L2.45952 11.7964C2.20042 11.9817 2.13678 12.3399 2.3162 12.6031L2.83645 13.3662C2.53657 13.4109 2.26745 13.4477 2.0885 13.4672C2.05411 13.4342 2.01813 13.4007 1.98092 13.3662C1.84164 13.2368 1.64811 13.064 1.35959 12.8115C1.83543 9.86641 3.25458 7.09187 5.48654 4.97399C5.91393 5.10858 6.26467 5.42739 6.436 5.84323C6.62877 6.31093 6.53022 6.85222 6.1851 7.22212ZM10.9623 10.4239C11.2236 10.2768 11.8302 10.2553 12.273 10.2396C12.4505 10.2333 12.6182 10.2273 12.768 10.2148C12.847 10.2082 12.9348 10.2094 13.0176 10.2159C12.9806 10.3108 12.9686 10.415 12.9846 10.5183C13.0128 10.7001 13.1249 10.8581 13.2871 10.9448C13.397 11.0037 13.55 11.1057 13.712 11.2137C14.1699 11.5189 14.689 11.8649 15.1766 11.896C15.62 11.9248 15.8668 11.672 15.9725 11.5644C15.9809 11.5558 15.9889 11.5473 15.9973 11.5395C16.0568 11.491 16.1126 11.4259 16.1541 11.3475C16.2478 11.3743 16.3462 11.4009 16.4471 11.4283C16.7941 11.5222 17.4398 11.6971 17.5825 11.8482C17.8359 12.1169 18.0334 12.6282 18.2078 13.0794C18.2958 13.3073 18.379 13.5225 18.4724 13.722C18.5125 13.8076 18.5519 13.8958 18.592 13.9851C18.8623 14.5881 19.1688 15.2717 19.8189 15.6966C20.1136 15.8893 20.475 15.9447 20.7939 15.9936C20.8324 15.9996 20.8766 16.0064 20.9215 16.0137C20.7322 16.2778 20.4628 16.5287 20.178 16.7938C19.4527 17.4693 18.55 18.31 18.9657 19.6511C19.162 20.2844 19.1711 20.3529 18.8556 20.6961C18.8126 20.7429 18.7725 20.7856 18.7349 20.8255C18.4647 21.1132 18.2512 21.3405 18.0745 21.8971C18.0232 22.0588 17.9567 22.1336 17.8359 22.2696C17.7394 22.3783 17.6191 22.5138 17.5082 22.7036C17.3753 22.9311 17.3313 23.1501 17.2961 23.3261C17.2614 23.4992 17.2417 23.5861 17.1737 23.6696C17.0189 23.8595 16.7303 24.1354 16.434 24.3237C16.1586 24.4985 15.9978 24.5224 15.943 24.5191C15.8805 24.4521 15.6541 24.1586 15.3119 23.143C15.2275 22.8924 15.1104 22.6346 14.9972 22.3853C14.7477 21.8357 14.4897 21.2673 14.6152 20.8789C14.63 20.8331 14.6447 20.7883 14.6591 20.7446C14.8596 20.1334 15.0488 19.5563 14.6982 18.7161C14.5915 18.4602 14.4215 18.2732 14.2717 18.1082C14.1747 18.0015 14.0648 17.8806 14.0479 17.811C14.0273 17.7261 14.0279 17.6281 14.0287 17.5146C14.0307 17.2084 14.0337 16.7458 13.5738 16.3151C12.9254 15.7082 12.1693 15.8952 11.6689 16.019C11.5152 16.0569 11.37 16.0929 11.2413 16.108C10.4182 16.2045 9.68334 15.8939 9.22454 15.2555C8.7446 14.5877 8.67493 13.689 9.04279 12.9103C9.22085 12.5335 9.48986 12.2307 9.80134 11.8803C9.86937 11.8038 9.93804 11.7265 10.0067 11.6474C10.121 11.5157 10.2467 11.3374 10.3797 11.1485C10.5384 10.9232 10.8339 10.5037 10.9623 10.4239Z" fill="#38282B"/>
<path d="M24.0247 20.1726L23.7428 19.1101C23.6813 18.878 23.4844 18.707 23.2461 18.6786C23.0075 18.6507 22.7761 18.77 22.6616 18.981C22.5973 19.0993 22.5395 19.2247 22.4836 19.346C22.3896 19.5499 22.2923 19.7609 22.1911 19.8773C22.1343 19.9427 21.9883 20.0132 21.8472 20.0813C21.5098 20.244 21.0478 20.467 20.8713 21.0296C20.7618 21.3786 20.8027 21.6547 20.8325 21.8562C20.8584 22.031 20.8644 22.0916 20.8175 22.2015L20.8117 22.2152C20.6252 22.6528 20.2782 23.4676 20.7648 24.1602C21.1119 24.6545 21.477 24.7816 21.7606 24.7816C21.816 24.7818 21.8684 24.7769 21.9168 24.769C22.5145 24.6713 22.9638 24.0496 23.3309 22.8124L24.0201 20.4897C24.0508 20.3864 24.0524 20.2767 24.0247 20.1726ZM22.2076 22.479C22.0205 23.1099 21.8549 23.4044 21.7593 23.5349C21.7483 23.5208 21.7364 23.5049 21.7236 23.4867C21.6116 23.3272 21.779 22.9344 21.8897 22.6744L21.8956 22.6607C22.0742 22.2415 22.0265 21.9196 21.9917 21.6845C21.9694 21.534 21.9614 21.4693 21.9894 21.3804C22.0123 21.3073 22.1496 21.2364 22.3565 21.1366C22.4482 21.0923 22.5491 21.0436 22.651 20.9847L22.2076 22.479Z" fill="#38282B"/>
<path d="M15.822 6.9644L15.7824 6.95057C15.4773 6.8437 15.1427 7.00419 15.0356 7.30952C14.9285 7.61491 15.0892 7.94919 15.3946 8.0563L15.4341 8.07013C15.4982 8.09263 15.5636 8.10329 15.628 8.10329C15.8699 8.10329 16.0963 7.9523 16.1809 7.71118C16.288 7.40579 16.1273 7.07145 15.822 6.9644Z" fill="#38282B"/>
</svg>
