<svg width="21" height="30" viewBox="0 0 21 30" fill="none" xmlns="http://www.w3.org/2000/svg">
<path d="M19.6199 4.80108C19.8859 4.34435 20.0379 3.81524 20.0379 3.25503V1.46627C20.0379 0.889767 19.7129 0.380938 19.1898 0.138301C18.6666 -0.104336 18.0683 -0.0237109 17.6283 0.348712L16.9584 0.915607L16.2887 0.34877C15.8336 -0.036543 15.2137 -0.101641 14.7012 0.15002C14.1887 -0.101289 13.569 -0.0361914 13.1146 0.348536L12.444 0.915607L11.7742 0.348712C11.3195 -0.0361914 10.6999 -0.101348 10.1872 0.15002C9.6747 -0.101699 9.05489 -0.0366016 8.59985 0.348653L7.92983 0.915607L7.25958 0.348712C6.80536 -0.035957 6.18579 -0.101172 5.67309 0.149844C5.16016 -0.101348 4.54035 -0.0361328 4.08613 0.348536L3.41553 0.915607L2.74551 0.348653C2.30553 -0.0235938 1.70746 -0.104336 1.18462 0.138184C0.661498 0.380763 0.336595 0.88965 0.336595 1.46621V3.25497C0.336595 3.8153 0.488588 4.3444 0.754428 4.8012C-0.0675266 5.6231 -0.35036 9.72959 0.585091 13.2133C1.16113 15.3586 2.12236 17.2597 3.44213 18.8638C4.87504 20.6057 6.7327 21.9944 8.97362 23.0032C8.41159 23.3384 7.92825 23.7496 7.53022 24.2333C7.35591 24.4452 7.38637 24.7582 7.59825 24.9325C7.81007 25.1067 8.12302 25.0763 8.29739 24.8644C8.72407 24.3458 9.27691 23.9265 9.94306 23.6126C10.1791 24.1402 10.5775 25.1249 10.8452 26.2909C10.898 26.5208 11.1025 26.6766 11.3288 26.6765C11.3656 26.6765 11.403 26.6724 11.4405 26.6637C11.7078 26.6023 11.8748 26.3359 11.8134 26.0685C11.6361 25.2965 11.4087 24.6053 11.2004 24.055C12.0714 24.6661 12.6615 25.5165 12.9591 26.5968C13.179 27.3952 13.178 28.1222 13.1551 28.5039C12.8141 28.6226 12.468 28.7199 12.1188 28.7964C12.1236 28.5688 12.1201 28.3365 12.1078 28.101C12.0933 27.827 11.8573 27.6165 11.5857 27.631C11.3118 27.6453 11.1013 27.879 11.1156 28.153C11.13 28.4284 11.1301 28.6972 11.1183 28.958C9.81017 29.094 8.48073 28.9427 7.21997 28.504C7.19337 28.0574 7.19688 27.1399 7.54745 26.1861C7.64208 25.9286 7.51013 25.6432 7.25255 25.5485C6.99514 25.454 6.70967 25.5859 6.61499 25.8434C6.31124 26.67 6.23155 27.4613 6.21825 27.9797C6.21215 28.2155 6.21772 28.4458 6.23483 28.664C6.25739 28.9518 6.27151 29.0368 6.34821 29.1467C6.40475 29.2279 6.48444 29.2902 6.57667 29.3258C7.74104 29.7752 8.96402 29.9998 10.1874 29.9998C11.4106 29.9998 12.6341 29.7751 13.7982 29.3258C13.9634 29.2621 14.0822 29.1151 14.1099 28.9402C14.1176 28.8918 14.2938 27.7372 13.9274 26.3727C13.6409 25.3055 12.9676 23.9388 11.4011 23.0034C17.4041 20.3051 19.4638 15.4326 20.1206 11.7213C20.1685 11.4512 19.9883 11.1935 19.7182 11.1457C19.448 11.098 19.1903 11.2781 19.1425 11.5482C18.505 15.1495 16.4545 19.9201 10.3351 22.3775C8.16544 19.7636 7.56884 16.7214 7.45575 14.5982C7.4411 14.3242 7.2052 14.1137 6.93339 14.1286C6.6594 14.1432 6.44917 14.3771 6.46376 14.6509C6.56706 16.5913 7.05104 19.251 8.64433 21.7423C6.87889 20.8395 5.39565 19.6703 4.22295 18.2497C2.99389 16.7609 2.09588 14.9915 1.55365 12.9906C1.07306 11.2168 0.959741 9.56822 0.963256 8.38381C1.48896 8.91836 2.24265 9.40082 3.20342 9.80711C4.2127 10.2339 5.39905 10.5563 6.68899 10.764C6.60655 11.2265 6.50096 11.9651 6.45819 12.8906C6.44553 13.1647 6.65741 13.397 6.93145 13.4097C6.93924 13.4101 6.94704 13.4102 6.95483 13.4102C7.21856 13.4102 7.43835 13.2027 7.45059 12.9364C7.49214 12.0375 7.59802 11.3222 7.67483 10.898C8.48589 10.9883 9.32823 11.0357 10.1871 11.0357C12.817 11.0357 15.2971 10.5994 17.1707 9.80711C18.1326 9.40035 18.8871 8.91719 19.4128 8.38181C19.4146 8.8668 19.3968 9.42871 19.3417 10.0446C19.3174 10.3179 19.5191 10.5592 19.7923 10.5836C19.8074 10.5849 19.8223 10.5856 19.8371 10.5856C20.0914 10.5856 20.3081 10.3913 20.3312 10.1331C20.5122 8.10935 20.4194 5.84511 19.6199 4.80108ZM15.6468 1.10697L16.6376 1.94539C16.8228 2.10213 17.0941 2.10213 17.2792 1.94539L18.27 1.10697C18.4827 0.926916 18.7079 1.00983 18.7719 1.03947C18.8359 1.06912 19.0445 1.1876 19.0445 1.46621V3.25497C19.0445 4.10557 18.5294 4.85142 17.7808 5.17304V3.98282C17.7808 3.55362 17.605 3.16356 17.2859 2.88442C16.7818 2.44374 16.0676 2.40002 15.5234 2.75428V1.46627C15.5234 1.30619 15.4989 1.15162 15.4516 1.00619C15.5178 1.02219 15.5842 1.05401 15.6468 1.10697ZM11.1324 1.10697L12.1229 1.94539C12.3081 2.10207 12.5794 2.10213 12.7645 1.94551L13.7562 1.10692C13.9686 0.92715 14.2256 0.985451 14.3745 1.11565C14.4454 1.1777 14.53 1.28885 14.53 1.46627V3.25503C14.53 3.26551 14.5291 3.27589 14.529 3.28637L14.0316 2.86538C13.577 2.48042 12.9572 2.41532 12.4447 2.66663C11.987 2.44192 11.4445 2.47098 11.0095 2.75387V1.46627C11.0095 1.30625 10.985 1.15186 10.9379 1.00655C11.004 1.02248 11.0701 1.0543 11.1324 1.10697ZM6.61786 1.10715L7.60915 1.94551C7.79431 2.10213 8.06571 2.10207 8.25075 1.94545L9.24163 1.10697C9.45427 0.927033 9.71097 0.985158 9.86056 1.11623C9.9314 1.17811 10.0161 1.28903 10.0161 1.46627V3.25503C10.0161 3.26563 10.0152 3.27606 10.0151 3.28661L9.51702 2.86532C9.06192 2.48006 8.44171 2.4152 7.9289 2.66721C7.92063 2.66323 7.91278 2.65866 7.90446 2.65485C7.43923 2.43905 6.91487 2.47965 6.49493 2.75311V1.46627C6.49493 1.30649 6.47049 1.15203 6.42327 1.0066C6.48942 1.02254 6.55557 1.05436 6.61786 1.10715ZM1.6024 1.03947C1.66632 1.00988 1.89109 0.927209 2.10367 1.10709L3.09443 1.94551C3.27965 2.10219 3.55094 2.10225 3.73604 1.94563L4.72774 1.10703C4.94008 0.927209 5.19743 0.985451 5.3452 1.11436C5.41645 1.17694 5.50135 1.28879 5.50135 1.46633V3.25508C5.50135 3.26563 5.50053 3.27606 5.50041 3.28661L5.00272 2.86549C4.56268 2.49313 3.96438 2.41245 3.44131 2.65503C2.91842 2.8976 2.5934 3.40643 2.5934 3.98294V5.17357C1.84486 4.85218 1.32982 4.10628 1.32982 3.2552V1.46633C1.32988 1.18754 1.53847 1.06906 1.6024 1.03947ZM5.1761 9.42936C4.60897 9.27666 4.07641 9.09771 3.59043 8.89223C1.99574 8.21787 1.08115 7.33796 1.08115 6.47822C1.08115 6.17962 1.18914 5.88032 1.40218 5.58443C1.74988 5.88595 2.16677 6.11113 2.62803 6.23277C2.82672 7.55037 3.86348 8.59656 5.17604 8.81043V9.42936H5.1761ZM3.58686 5.77169V3.98282C3.58686 3.70415 3.79539 3.58573 3.85932 3.55614C3.89242 3.54079 3.96859 3.51126 4.06404 3.51126C4.15299 3.51126 4.25846 3.53698 4.36106 3.62376L5.352 4.46224C5.53721 4.61892 5.8085 4.61897 5.99372 4.46224L6.98471 3.62376C7.19741 3.44382 7.42247 3.52649 7.48639 3.55614C7.55032 3.58579 7.75886 3.70415 7.75886 3.98282V5.77169C7.75886 6.92189 6.82311 7.85769 5.67286 7.85769C4.52266 7.85763 3.58686 6.92189 3.58686 5.77169ZM9.69064 10.0367C8.8889 10.0193 8.1072 9.95899 7.35901 9.85949C7.35327 9.85856 7.34753 9.85785 7.34178 9.85709C6.94059 9.80336 6.54872 9.73897 6.16956 9.66273V8.81043C6.86008 8.69793 7.47409 8.35504 7.93001 7.86338C8.39413 8.36371 9.01341 8.6981 9.69064 8.80902V10.0367ZM8.49849 6.99431C8.66138 6.61925 8.75226 6.20599 8.75226 5.77163V3.98276C8.75226 3.82263 8.72636 3.66805 8.67896 3.52262C8.74569 3.53844 8.81249 3.57044 8.87536 3.6237L9.86677 4.46212C10.0518 4.61874 10.3232 4.61862 10.5083 4.462L11.4991 3.62352C11.7118 3.44358 11.9685 3.50171 12.1181 3.63278C12.1889 3.69466 12.2736 3.80557 12.2736 3.98282V5.77157C12.2736 6.12741 12.1828 6.47775 12.0105 6.78554C11.6422 7.44689 10.9437 7.85769 10.1875 7.85769C9.51456 7.85769 8.88802 7.53185 8.49849 6.99431ZM14.2046 9.66279C13.1135 9.88193 11.9221 10.0097 10.6841 10.0367V8.80902C11.3613 8.6981 11.9805 8.36383 12.4444 7.86384C12.9085 8.36394 13.5276 8.6981 14.2046 8.80902V9.66279ZM13.0124 6.99431C13.1786 6.61058 13.2669 6.19368 13.2669 5.77157V3.98282C13.2669 3.8228 13.2424 3.66841 13.1953 3.52309C13.2614 3.53903 13.3276 3.57085 13.3898 3.62358L14.3806 4.462C14.5658 4.61868 14.8371 4.61874 15.0222 4.46206L16.0139 3.62346C16.2262 3.44364 16.4832 3.502 16.6321 3.63219C16.7031 3.69425 16.7876 3.8054 16.7876 3.98282V5.77152C16.7876 6.12736 16.6968 6.47769 16.5246 6.78548C16.1562 7.44689 15.4577 7.85769 14.7014 7.85769C14.0284 7.85769 13.4019 7.53185 13.0124 6.99431ZM16.7838 8.89223C16.2978 9.09771 15.7652 9.27666 15.198 9.42947V8.80902C16.1167 8.65849 16.9304 8.09799 17.3917 7.26982C17.5712 6.94925 17.6896 6.59693 17.7447 6.23306C18.2064 6.11142 18.6237 5.88607 18.9717 5.58431C19.1849 5.88038 19.2932 6.1798 19.2932 6.47822C19.2932 7.33796 18.3785 8.21787 16.7838 8.89223Z" fill="#38282B"/>
</svg>
