<svg width="25" height="30" viewBox="0 0 25 30" fill="none" xmlns="http://www.w3.org/2000/svg">
<path d="M23.4677 28.0645H21.5323V4.35484C21.5323 3.8204 21.099 3.3871 20.5645 3.3871H13.3065V0.967742C13.3065 0.433306 12.8732 0 12.3387 0H5.625C5.09056 0 4.65726 0.433306 4.65726 0.967742V3.3871H3.87097C3.33653 3.3871 2.90323 3.8204 2.90323 4.35484V28.0645H0.967742C0.433306 28.0645 0 28.4978 0 29.0323C0 29.5667 0.433306 30 0.967742 30H23.4677C24.0022 30 24.4355 29.5667 24.4355 29.0323C24.4355 28.4978 24.0022 28.0645 23.4677 28.0645ZM6.59274 1.93548H11.371V3.3871H6.59274V1.93548ZM10.2823 28.0645V23.9516H14.1532V28.0645H10.2823ZM16.0887 28.0645V23.9516H16.5121C17.0466 23.9516 17.4798 23.5183 17.4798 22.9839C17.4798 22.4494 17.0466 22.0161 16.5121 22.0161C13.1459 22.0161 11.0412 22.0161 7.92339 22.0161C7.38895 22.0161 6.95565 22.4494 6.95565 22.9839C6.95565 23.5183 7.38895 23.9516 7.92339 23.9516H8.34677V28.0645H4.83871V5.32258H19.5968V28.0645H16.0887ZM10.8266 8.16532C10.8266 8.69976 10.3933 9.13306 9.85887 9.13306H8.77016C8.23573 9.13306 7.80242 8.69976 7.80242 8.16532C7.80242 7.63089 8.23573 7.19758 8.77016 7.19758H9.85887C10.3933 7.19758 10.8266 7.63089 10.8266 8.16532ZM16.5726 8.16532C16.5726 8.69976 16.1393 9.13306 15.6048 9.13306H14.5161C13.9816 9.13306 13.5484 8.69976 13.5484 8.16532C13.5484 7.63089 13.9816 7.19758 14.5161 7.19758H15.6048C16.1393 7.19758 16.5726 7.63089 16.5726 8.16532ZM10.8266 11.7944C10.8266 12.3288 10.3933 12.7621 9.85887 12.7621H8.77016C8.23573 12.7621 7.80242 12.3288 7.80242 11.7944C7.80242 11.2599 8.23573 10.8266 8.77016 10.8266H9.85887C10.3933 10.8266 10.8266 11.2599 10.8266 11.7944ZM16.5726 11.7944C16.5726 12.3288 16.1393 12.7621 15.6048 12.7621H14.5161C13.9816 12.7621 13.5484 12.3288 13.5484 11.7944C13.5484 11.2599 13.9816 10.8266 14.5161 10.8266H15.6048C16.1393 10.8266 16.5726 11.2599 16.5726 11.7944ZM10.8266 15.4234C10.8266 15.9578 10.3933 16.3911 9.85887 16.3911H8.77016C8.23573 16.3911 7.80242 15.9578 7.80242 15.4234C7.80242 14.889 8.23573 14.4556 8.77016 14.4556H9.85887C10.3933 14.4556 10.8266 14.889 10.8266 15.4234ZM16.5726 15.4234C16.5726 15.9578 16.1393 16.3911 15.6048 16.3911H14.5161C13.9816 16.3911 13.5484 15.9578 13.5484 15.4234C13.5484 14.889 13.9816 14.4556 14.5161 14.4556H15.6048C16.1393 14.4556 16.5726 14.889 16.5726 15.4234ZM10.8266 19.0524C10.8266 19.5869 10.3933 20.0202 9.85887 20.0202H8.77016C8.23573 20.0202 7.80242 19.5869 7.80242 19.0524C7.80242 18.518 8.23573 18.0847 8.77016 18.0847H9.85887C10.3933 18.0847 10.8266 18.518 10.8266 19.0524ZM16.5726 19.0524C16.5726 19.5869 16.1393 20.0202 15.6048 20.0202H14.5161C13.9816 20.0202 13.5484 19.5869 13.5484 19.0524C13.5484 18.518 13.9816 18.0847 14.5161 18.0847H15.6048C16.1393 18.0847 16.5726 18.518 16.5726 19.0524Z" fill="#38282B"/>
</svg>
