<svg width="22" height="21" viewBox="0 0 22 21" fill="none" xmlns="http://www.w3.org/2000/svg">
<path d="M16.5859 9.26514C17.0606 9.26514 17.4453 8.90443 17.4453 8.45947C17.4453 8.01452 17.0606 7.65381 16.5859 7.65381C16.1113 7.65381 15.7266 8.01452 15.7266 8.45947C15.7266 8.90443 16.1113 9.26514 16.5859 9.26514Z" fill="#E1E1E1"/>
<path d="M18.5625 1.61133H17.4453V0.805664C17.4453 0.360696 17.0606 0 16.5859 0C16.1113 0 15.7266 0.360696 15.7266 0.805664V1.61133H11.8164V0.805664C11.8164 0.360696 11.4317 0 10.957 0C10.4824 0 10.0977 0.360696 10.0977 0.805664V1.61133H6.23047V0.805664C6.23047 0.360696 5.84573 0 5.37109 0C4.89646 0 4.51172 0.360696 4.51172 0.805664V1.61133H3.4375C1.54206 1.61133 0 3.05701 0 4.83398V17.4023C0 19.1793 1.54206 20.625 3.4375 20.625H10.0117C10.4864 20.625 10.8711 20.2643 10.8711 19.8193C10.8711 19.3744 10.4864 19.0137 10.0117 19.0137H3.4375C2.48978 19.0137 1.71875 18.2908 1.71875 17.4023V4.83398C1.71875 3.9455 2.48978 3.22266 3.4375 3.22266H4.51172V4.02832C4.51172 4.47329 4.89646 4.83398 5.37109 4.83398C5.84573 4.83398 6.23047 4.47329 6.23047 4.02832V3.22266H10.0977V4.02832C10.0977 4.47329 10.4824 4.83398 10.957 4.83398C11.4317 4.83398 11.8164 4.47329 11.8164 4.02832V3.22266H15.7266V4.02832C15.7266 4.47329 16.1113 4.83398 16.5859 4.83398C17.0606 4.83398 17.4453 4.47329 17.4453 4.02832V3.22266H18.5625C19.5102 3.22266 20.2812 3.9455 20.2812 4.83398V9.42627C20.2812 9.87124 20.666 10.2319 21.1406 10.2319C21.6153 10.2319 22 9.87124 22 9.42627V4.83398C22 3.05701 20.4579 1.61133 18.5625 1.61133Z" fill="#E1E1E1"/>
<path d="M16.8008 10.8765C13.9339 10.8765 11.6016 13.063 11.6016 15.7507C11.6016 18.4384 13.9339 20.625 16.8008 20.625C19.6677 20.625 22 18.4384 22 15.7507C22 13.063 19.6677 10.8765 16.8008 10.8765ZM16.8008 19.0137C14.8817 19.0137 13.3203 17.5499 13.3203 15.7507C13.3203 13.9515 14.8817 12.4878 16.8008 12.4878C18.7199 12.4878 20.2812 13.9515 20.2812 15.7507C20.2812 17.5499 18.7199 19.0137 16.8008 19.0137Z" fill="#E1E1E1"/>
<path d="M18.0469 14.9451H17.6602V14.0991C17.6602 13.6542 17.2754 13.2935 16.8008 13.2935C16.3261 13.2935 15.9414 13.6542 15.9414 14.0991V15.7507C15.9414 16.1957 16.3261 16.5564 16.8008 16.5564H18.0469C18.5215 16.5564 18.9062 16.1957 18.9062 15.7507C18.9062 15.3058 18.5215 14.9451 18.0469 14.9451Z" fill="#E1E1E1"/>
<path d="M12.8477 9.26514C13.3223 9.26514 13.707 8.90443 13.707 8.45947C13.707 8.01452 13.3223 7.65381 12.8477 7.65381C12.373 7.65381 11.9883 8.01452 11.9883 8.45947C11.9883 8.90443 12.373 9.26514 12.8477 9.26514Z" fill="#E1E1E1"/>
<path d="M9.10938 12.7698C9.58399 12.7698 9.96875 12.4091 9.96875 11.9641C9.96875 11.5192 9.58399 11.1584 9.10938 11.1584C8.63476 11.1584 8.25 11.5192 8.25 11.9641C8.25 12.4091 8.63476 12.7698 9.10938 12.7698Z" fill="#E1E1E1"/>
<path d="M5.37109 9.26514C5.84571 9.26514 6.23047 8.90443 6.23047 8.45947C6.23047 8.01452 5.84571 7.65381 5.37109 7.65381C4.89647 7.65381 4.51172 8.01452 4.51172 8.45947C4.51172 8.90443 4.89647 9.26514 5.37109 9.26514Z" fill="#E1E1E1"/>
<path d="M5.37109 12.7698C5.84571 12.7698 6.23047 12.4091 6.23047 11.9641C6.23047 11.5192 5.84571 11.1584 5.37109 11.1584C4.89647 11.1584 4.51172 11.5192 4.51172 11.9641C4.51172 12.4091 4.89647 12.7698 5.37109 12.7698Z" fill="#E1E1E1"/>
<path d="M5.37109 16.2744C5.84571 16.2744 6.23047 15.9137 6.23047 15.4688C6.23047 15.0238 5.84571 14.6631 5.37109 14.6631C4.89647 14.6631 4.51172 15.0238 4.51172 15.4688C4.51172 15.9137 4.89647 16.2744 5.37109 16.2744Z" fill="#E1E1E1"/>
<path d="M9.10938 16.2744C9.58399 16.2744 9.96875 15.9137 9.96875 15.4688C9.96875 15.0238 9.58399 14.6631 9.10938 14.6631C8.63476 14.6631 8.25 15.0238 8.25 15.4688C8.25 15.9137 8.63476 16.2744 9.10938 16.2744Z" fill="#E1E1E1"/>
<path d="M9.10938 9.26514C9.58399 9.26514 9.96875 8.90443 9.96875 8.45947C9.96875 8.01452 9.58399 7.65381 9.10938 7.65381C8.63476 7.65381 8.25 8.01452 8.25 8.45947C8.25 8.90443 8.63476 9.26514 9.10938 9.26514Z" fill="#E1E1E1"/>
</svg>
