<svg width="60" height="61" viewBox="0 0 60 61" fill="none" xmlns="http://www.w3.org/2000/svg">
<path d="M30 60.0032C46.5685 60.0032 60 46.5717 60 30.0032C60 13.4347 46.5685 0.00323486 30 0.00323486C13.4315 0.00323486 0 13.4347 0 30.0032C0 46.5717 13.4315 60.0032 30 60.0032Z" fill="#F3F2F2"/>
<path d="M22.2139 35.7573L24.5095 22.2019H28.226L25.9305 35.7573H22.2139Z" fill="#293688"/>
<path d="M39.1625 22.5527C38.426 22.278 37.272 21.9838 35.831 21.9838C32.1578 21.9838 29.5705 23.8227 29.5483 26.4574C29.5279 28.4047 31.3952 29.4909 32.8059 30.1399C34.2525 30.803 34.739 31.2285 34.732 31.8211C34.723 32.7297 33.5761 33.1451 32.5075 33.1451C31.0201 33.1445 30.2295 32.9395 29.0087 32.4336L28.5298 32.2176L28.0078 35.2522C28.8762 35.6307 30.4819 35.959 32.1488 35.9755C36.0554 35.9746 38.5926 34.1585 38.6211 31.3442C38.6352 29.8023 37.6447 28.6289 35.5003 27.6612C34.2009 27.0349 33.4051 26.6166 33.4137 25.981C33.4137 25.4177 34.0877 24.8153 35.5424 24.8153C36.7579 24.7963 37.6385 25.0597 38.3249 25.3344L38.6575 25.4908L39.1625 22.5527Z" fill="#293688"/>
<path d="M45.4983 22.2019C44.6078 22.2019 43.9644 22.4738 43.5731 23.3564L38.0649 35.7578H42L42.765 33.6806H47.4665L47.9033 35.7578H51.4016L48.3411 22.2023H45.4984L45.4983 22.2019ZM43.8091 30.9682C44.1161 30.1876 45.2894 27.1795 45.2894 27.1795C45.2681 27.2151 45.5949 26.3951 45.7825 25.8863L46.0341 27.0544C46.0341 27.0544 46.745 30.2903 46.8943 30.9686H43.8091V30.9682Z" fill="#293688"/>
<path d="M15.4367 31.494L15.1093 29.6356C14.431 27.4694 12.3258 25.1256 9.9668 23.9512L13.2505 35.7573H17.1864L23.0892 22.2019H19.1542L15.4367 31.494Z" fill="#293688"/>
<path d="M5.92627 22.2018V22.4207C10.5899 23.5423 13.8276 26.378 15.1094 29.6356L13.7618 23.3586C13.5368 22.5008 12.8551 22.2317 12.0484 22.2019L5.92627 22.2018Z" fill="#F7981D"/>
<path d="M29.9975 60.002C41.5767 60.002 51.6167 53.4384 56.6176 43.8322H3.37793C8.3792 53.4384 18.4188 60.002 29.9975 60.002Z" fill="#F7981D"/>
<path d="M29.9979 0C18.6025 0 8.69128 6.35321 3.61279 15.7112H56.384C51.3049 6.35372 41.3933 0 29.9979 0Z" fill="#293688"/>
</svg>
