<svg width="60" height="60" viewBox="0 0 60 60" fill="none" xmlns="http://www.w3.org/2000/svg">
<path d="M30 60C46.5685 60 60 46.5685 60 30C60 13.4315 46.5685 0 30 0C13.4315 0 0 13.4315 0 30C0 46.5685 13.4315 60 30 60Z" fill="#3C80AD"/>
<path d="M20.1916 15.4395C12.6214 15.4873 6.49219 21.6596 6.49219 29.2568C6.49219 36.8838 12.6688 43.0732 20.2801 43.0732C23.8505 43.0732 27.1067 41.7094 29.5566 39.4731L29.5561 39.4726H29.558C30.0606 39.0146 30.5286 38.5191 30.9583 37.9928H28.1342C27.7567 37.5367 27.4137 37.06 27.1058 36.5688H31.9769C32.2744 36.0942 32.5416 35.6011 32.7808 35.0904H26.3025C26.0814 34.6158 25.8895 34.1321 25.726 33.639H33.3574C33.8183 32.2615 34.0669 30.7873 34.0669 29.2568C34.0669 28.2402 33.9565 27.2511 33.7496 26.297H25.321C25.4262 25.8058 25.5574 25.3212 25.7137 24.8461H33.3489C33.1783 24.3392 32.9798 23.8461 32.7544 23.3667H26.3017C26.5342 22.8679 26.798 22.3843 27.0923 21.9152H31.9605C31.636 21.3974 31.2779 20.9029 30.8908 20.4368H28.1766C28.5968 19.9408 29.0581 19.4743 29.5588 19.0418C27.1097 16.8046 23.8531 15.4398 20.2809 15.4398C20.2499 15.4395 20.2205 15.4395 20.1916 15.4395Z" fill="#931B1D"/>
<path d="M52.5608 29.2611C52.5622 36.891 46.3928 43.078 38.7762 43.0803C31.1628 43.0827 24.9886 36.898 24.9863 29.2668V29.2611C24.9839 21.6288 31.1553 15.4414 38.7701 15.4395C46.3844 15.4367 52.5591 21.6218 52.561 29.2535C52.5608 29.2535 52.5608 29.2569 52.5608 29.2611Z" fill="#F16622"/>
<path d="M52.5608 29.4134C52.5622 37.0437 46.3928 43.2317 38.7762 43.2331C31.1628 43.2359 24.9886 37.0504 24.9863 29.4205V29.4134C24.9839 21.7826 31.1553 15.5946 38.7701 15.5927C46.3844 15.5899 52.5591 21.775 52.561 29.4062C52.5608 29.4063 52.5608 29.4106 52.5608 29.4134Z" fill="#F7981D"/>
<path d="M20.1916 15.5963C12.6214 15.6451 6.49219 21.816 6.49219 29.4136C6.49219 37.0412 12.6688 43.231 20.2801 43.231C23.8505 43.231 27.1067 41.8662 29.5566 39.6304L29.5561 39.629H29.558C30.0606 39.1713 30.5286 38.6773 30.9583 38.1492H28.1342C27.7567 37.6939 27.4137 37.2183 27.1058 36.7271H31.9769C32.2744 36.252 32.5416 35.7575 32.7808 35.2473H26.3025C26.0814 34.7722 25.8895 34.2886 25.726 33.7963H33.3574C33.8183 32.4178 34.0669 30.9442 34.0669 29.4136C34.0669 28.3976 33.9565 27.4079 33.7496 26.4544H25.321C25.4262 25.9637 25.5574 25.4781 25.7137 25.0035H33.3489C33.1783 24.4962 32.9798 24.003 32.7544 23.5231H26.3017C26.5342 23.0262 26.798 22.5407 27.0923 22.0722H31.9605C31.636 21.5549 31.2779 21.0608 30.8908 20.5928H28.1766C28.5968 20.0978 29.0581 19.6311 29.5588 19.1978C27.1097 16.9609 23.8531 15.5962 20.2809 15.5962C20.2499 15.5963 20.2205 15.5963 20.1916 15.5963Z" fill="#CB2026"/>
<path d="M25.2356 32.9313L25.4199 31.6812C25.3195 31.6812 25.1717 31.7238 25.0414 31.7238C24.5307 31.7238 24.4739 31.4519 24.507 31.2506L24.9196 28.6988H25.696L25.8837 27.315H25.1518L25.3011 26.4557H23.8326C23.8009 26.4878 22.9658 31.2936 22.9658 31.8776C22.9658 32.7441 23.4504 33.1301 24.1353 33.1244C24.6705 33.1194 25.0887 32.9712 25.2356 32.9313Z" fill="white"/>
<path d="M25.7041 30.5474C25.7041 32.6265 27.0726 33.121 28.2394 33.121C29.3166 33.121 29.7898 32.8789 29.7898 32.8789L30.049 31.4598C30.049 31.4598 29.23 31.8236 28.49 31.8236C26.914 31.8236 27.1902 30.6451 27.1902 30.6451H30.174C30.174 30.6451 30.3658 29.6911 30.3658 29.3027C30.3658 28.3339 29.8836 27.1525 28.2725 27.1525C26.796 27.1529 25.7041 28.7459 25.7041 30.5474ZM28.2787 28.4693C29.1068 28.4693 28.9538 29.4024 28.9538 29.4778H27.3242C27.3237 29.3817 27.4777 28.4693 28.2787 28.4693Z" fill="white"/>
<path d="M37.5724 32.9314L37.8354 31.326C37.8354 31.326 37.1149 31.6898 36.6208 31.6898C35.5796 31.6898 35.1622 30.8911 35.1622 30.0366C35.1622 28.299 36.0581 27.3431 37.0562 27.3431C37.8037 27.3431 38.4043 27.7646 38.4043 27.7646L38.6436 26.2071C38.6436 26.2071 37.7535 25.8452 36.9908 25.8452C35.2959 25.8452 33.6465 27.317 33.6465 30.0862C33.6465 31.9195 34.5375 33.1325 36.2892 33.1325C36.7841 33.1328 37.5724 32.9314 37.5724 32.9314Z" fill="white"/>
<path d="M17.1621 27.1752C16.1555 27.1752 15.3838 27.4988 15.3838 27.4988L15.1711 28.7664C15.1711 28.7664 15.8087 28.5078 16.7708 28.5078C17.3175 28.5078 17.7168 28.569 17.7168 29.0147C17.7168 29.2847 17.668 29.3846 17.668 29.3846C17.668 29.3846 17.2375 29.3482 17.0376 29.3482C15.7685 29.3482 14.4346 29.891 14.4346 31.5291C14.4346 32.8185 15.309 33.115 15.8515 33.115C16.8874 33.115 17.3327 32.4418 17.3573 32.4389L17.309 33.0017H18.6013L19.1782 28.9491C19.1782 27.2306 17.6817 27.1752 17.1621 27.1752ZM17.4771 30.4731C17.5051 30.7209 17.3218 31.8814 16.4379 31.8814C15.9821 31.8814 15.8632 31.5319 15.8632 31.3253C15.8632 30.923 16.0816 30.4394 17.1578 30.4394C17.4075 30.4394 17.4344 30.4669 17.4771 30.4731Z" fill="white"/>
<path d="M20.5543 33.0836C20.8844 33.0836 22.7745 33.1684 22.7745 31.2139C22.7745 29.3863 21.0252 29.7469 21.0252 29.0126C21.0252 28.6484 21.3104 28.5318 21.8314 28.5318C22.0384 28.5318 22.8347 28.5986 22.8347 28.5986L23.0204 27.2988C23.0204 27.2988 22.505 27.1841 21.6666 27.1841C20.5795 27.1841 19.4781 27.6171 19.4781 29.104C19.4781 30.7899 21.316 30.6194 21.316 31.329C21.316 31.8027 20.802 31.8416 20.406 31.8416C19.722 31.8416 19.1057 31.6061 19.1028 31.617L18.9072 32.9021C18.9414 32.9141 19.3222 33.0836 20.5543 33.0836Z" fill="white"/>
<path d="M49.732 26.0091L49.416 27.9779C49.416 27.9779 48.8632 27.2139 47.9987 27.2139C46.653 27.2139 45.5322 28.8386 45.5322 30.7064C45.5322 31.912 46.1295 33.0921 47.3527 33.0921C48.2323 33.0921 48.7188 32.4777 48.7188 32.4777L48.6549 33.0021H50.0827L51.2048 26.006L49.732 26.0091ZM49.0508 29.8495C49.0508 30.6259 48.6662 31.6628 47.8708 31.6628C47.3421 31.6628 47.0953 31.2184 47.0953 30.5211C47.0953 29.3813 47.606 28.6272 48.2502 28.6272C48.7793 28.6273 49.0508 28.9921 49.0508 29.8495Z" fill="white"/>
<path d="M9.21429 33.0082L10.1091 27.7264L10.2394 33.0082H11.2511L13.1378 27.7264L12.3018 33.0082H13.8044L14.9626 26.0045H12.6383L11.1911 30.301L11.1158 26.0045H8.97413L7.7998 33.0082H9.21429Z" fill="white"/>
<path d="M31.8316 33.0181C32.2589 30.5837 32.338 28.606 33.3584 28.9665C33.537 28.0248 33.7089 27.6605 33.9032 27.2613C33.9032 27.2613 33.8123 27.2419 33.6198 27.2419C32.9638 27.2419 32.4763 28.1419 32.4763 28.1419L32.606 27.3157H31.2389L30.3242 33.0181H31.8316Z" fill="white"/>
<path d="M40.96 27.1752C39.9534 27.1752 39.1822 27.4988 39.1822 27.4988L38.97 28.7664C38.97 28.7664 39.6061 28.5078 40.5692 28.5078C41.1153 28.5078 41.5156 28.569 41.5156 29.0147C41.5156 29.2847 41.4664 29.3846 41.4664 29.3846C41.4664 29.3846 41.0358 29.3482 40.8344 29.3482C39.5649 29.3482 38.2324 29.891 38.2324 31.5291C38.2324 32.8185 39.1073 33.115 39.6493 33.115C40.6853 33.115 41.131 32.4418 41.1547 32.4389L41.1068 33.0017H42.4L42.9766 28.9491C42.9771 27.2306 41.4811 27.1752 40.96 27.1752ZM41.2755 30.4731C41.3034 30.7209 41.121 31.8814 40.2357 31.8814C39.7805 31.8814 39.6625 31.5319 39.6625 31.3253C39.6625 30.923 39.8809 30.4394 40.9552 30.4394C41.2063 30.4394 41.2324 30.4669 41.2755 30.4731Z" fill="white"/>
<path d="M44.1566 33.0181C44.5843 30.5837 44.6635 28.606 45.6837 28.9665C45.8624 28.0248 46.0343 27.6605 46.2295 27.2613C46.2295 27.2613 46.1371 27.2419 45.9458 27.2419C45.2878 27.2419 44.8018 28.1419 44.8018 28.1419L44.9326 27.3157H43.5646L42.6494 33.0177H44.1567L44.1566 33.0181Z" fill="white"/>
</svg>
