<svg width="60" height="60" viewBox="0 0 60 60" fill="none" xmlns="http://www.w3.org/2000/svg">
<path d="M30 60C46.5685 60 60 46.5685 60 30C60 13.4315 46.5685 0 30 0C13.4315 0 0 13.4315 0 30C0 46.5685 13.4315 60 30 60Z" fill="#F3F2F2"/>
<path d="M43.9744 24.9581C42.7262 24.9581 41.7391 25.2891 40.9839 25.4403L40.7519 27.3379C41.1294 27.1564 42.3198 26.8263 43.307 26.795C44.2947 26.7651 44.8749 26.9759 44.6717 27.8196C41.7396 27.8196 39.7647 28.4212 39.3583 30.3189C38.7771 33.5718 42.3488 33.4818 43.7718 32.0659L43.5979 32.8484H46.2109L47.3431 27.6675C47.8066 25.4696 45.8038 24.9282 43.9744 24.9581ZM44.1488 30.2587C44.0038 30.9512 43.4525 31.2525 42.7845 31.2833C42.2038 31.3132 41.6812 30.8001 42.0589 30.1981C42.3493 29.6865 43.1626 29.5661 43.6557 29.5661C43.8589 29.5661 44.0914 29.5661 44.2951 29.5661C44.2359 29.8069 44.2065 30.0177 44.1488 30.2587Z" fill="#1A80AD"/>
<path d="M49.5781 22.9098L47.416 32.8489H50.0702L52.2592 22.9098H49.5781Z" fill="#1A80AD"/>
<path d="M37.3833 22.9402H32.5236L30.3701 32.8491H33.1924L33.9204 29.5664H35.928C37.9071 29.5664 39.5367 28.3618 39.973 26.3135C40.468 23.9943 38.7802 22.9402 37.3833 22.9402ZM37.2971 26.3135C37.1222 27.0662 36.3653 27.6682 35.6372 27.6682H34.328L34.9102 24.9577H36.3067C37.0346 24.9582 37.4709 25.5603 37.2971 26.3135Z" fill="#1A80AD"/>
<path d="M18.5277 24.9579C17.2941 24.9579 16.3188 25.2889 15.6011 25.4401L15.3727 27.3373C15.717 27.1559 16.8928 26.8257 17.8682 26.7944C18.8435 26.7646 19.4173 26.9754 19.2443 27.819C16.3481 27.819 14.3979 28.4206 13.9962 30.3183C13.4221 33.5712 16.9497 33.4812 18.3267 32.0654L18.1552 32.8479H20.7653L21.8837 27.667C22.3419 25.4695 20.334 24.928 18.5277 24.9579ZM18.7286 30.2585C18.5846 30.951 18.0104 31.2523 17.3519 31.2831C16.7783 31.313 16.2904 30.7999 16.6636 30.1979C16.9497 29.6863 17.7531 29.5659 18.2122 29.5659C18.442 29.5659 18.6424 29.5659 18.8725 29.5659C18.8138 29.8067 18.7569 30.0175 18.7286 30.2585Z" fill="#1A5B80"/>
<path d="M23.02 25.1009H25.63L26.0512 29.7153L28.6045 25.1009H31.2978L25.0967 36.1443H22.1787L24.0858 32.8981L23.02 25.1009Z" fill="#1A5B80"/>
<path d="M12.0356 22.9398H7.16304L5.00391 32.8487H7.86313L8.56322 29.566H10.6054C12.5603 29.566 14.1942 28.3614 14.6318 26.313C15.1278 23.9939 13.4652 22.9398 12.0356 22.9398ZM11.948 26.313C11.7731 27.0658 11.0442 27.6678 10.3142 27.6678H8.97226L9.58525 24.9573H10.9855C11.6855 24.9578 12.1522 25.5599 11.948 26.313Z" fill="#1A5B80"/>
<path d="M52.8338 24.1948V23.0223H52.3965V22.8651H53.45V23.0223H53.0105V24.1948H52.8338Z" fill="#1A5B80"/>
<path d="M53.625 24.1948V22.8651H53.8888L54.2038 23.8059C54.2332 23.8935 54.2536 23.9584 54.2672 24.0015C54.2824 23.9536 54.3061 23.8826 54.3374 23.7893L54.6572 22.8651H54.8935V24.1948H54.7244V23.0816L54.3369 24.1948H54.1791L53.794 23.0631V24.1948H53.625Z" fill="#1A5B80"/>
</svg>
