<svg width="60" height="60" viewBox="0 0 60 60" fill="none" xmlns="http://www.w3.org/2000/svg">
<path d="M30 59.9999C46.5685 59.9999 59.9999 46.5685 59.9999 30C59.9999 13.4314 46.5685 0 30 0C13.4314 0 0 13.4314 0 30C0 46.5685 13.4314 59.9999 30 59.9999Z" fill="#F2F2F2"/>
<path d="M17.9658 34.2059C16.8294 36.8043 15.1887 39.018 13.5698 40.2903C10.658 42.5789 9.41026 39.667 6.70652 39.667C4.83304 39.667 3.65871 41.0641 2.14535 41.1621C0.761601 37.7115 0 33.9438 0 29.9997C0 26.1842 0.712616 22.5352 2.01187 19.1777C4.12171 19.381 4.75968 20.461 6.70652 20.461C8.8555 20.461 9.41015 19.1434 12.1139 19.1434C13.8685 19.1434 16.0372 20.2223 17.5617 22.1153C15.2829 23.1328 13.6936 25.4202 13.6936 28.0786C13.6935 30.8911 15.4726 33.2886 17.9658 34.2059Z" fill="#353535"/>
<path d="M5.78223 18.8984C5.78223 19.0728 5.79125 19.2451 5.8052 19.4159C9.15429 19.3052 11.8359 16.5572 11.8359 13.1811C11.8359 13.0067 11.8269 12.8344 11.8129 12.6636C8.46383 12.7742 5.78223 15.5222 5.78223 18.8984Z" fill="#353535"/>
<path d="M21.5734 20.2244C21.5734 19.6836 22.0541 19.2028 22.8052 19.2028H28.6646C32.3606 19.2028 35.2452 20.9756 35.2452 25.8133V26.0537C35.2452 30.8614 32.2704 32.6942 28.4843 32.6942H24.7583V40.116C24.7583 40.8071 23.9771 41.1678 23.1657 41.1678C22.3845 41.1678 21.5732 40.8072 21.5732 40.116L21.5734 20.2244ZM24.7584 22.0272V30.1702H28.4844C30.7079 30.1702 32.0601 28.9081 32.0601 26.264V25.9034C32.0601 23.2592 30.7079 22.0273 28.4844 22.0273L24.7584 22.0272Z" fill="#353535"/>
<path d="M46.5709 32.5744V40.1163C46.5709 40.6873 45.91 41.1681 45.0383 41.1681C44.2271 41.1681 43.5961 40.6874 43.5961 40.1163V39.0647C42.5443 40.2967 41.1022 41.4083 39.0587 41.4083C36.8653 41.4083 35.0625 40.1463 35.0625 37.4421C35.0625 34.0467 37.9172 33.1452 42.0937 33.1452H43.4159V32.6044C43.4159 31.0719 42.6347 29.3592 40.4411 29.3592C38.2477 29.3592 37.7067 30.2607 37.1058 30.2607C36.3546 30.2607 35.9639 29.3895 35.9639 28.6682C35.9639 27.5864 38.458 26.7451 40.5013 26.7451C44.9182 26.7451 46.5709 29.5697 46.5709 32.5744ZM43.4159 34.8881H42.6647C40.3812 34.8881 38.2477 35.1285 38.2477 37.0516C38.2477 38.4037 39.0891 39.0048 40.2007 39.0048C41.703 39.0048 43.4159 37.4422 43.4159 35.9999V34.8881Z" fill="#353535"/>
<path d="M47.0488 28.6375C46.9587 28.5174 46.9287 28.3972 46.9287 28.2169C46.9287 27.4055 48.1606 26.7145 49.0019 26.7145C49.4226 26.7145 49.8132 26.8948 49.9635 27.2854L53.7496 37.051L56.9948 27.2854C57.1751 26.8948 57.5356 26.7145 57.896 26.7145C58.6472 26.7145 59.9994 27.3755 59.9994 28.2771C59.9994 28.3972 59.9994 28.5474 59.9394 28.6375L55.4924 40.3862C54.1402 43.932 52.668 47.9283 48.4012 47.9283C47.5899 47.9283 46.9288 47.718 46.9288 46.5761C46.9288 45.855 47.1692 45.224 47.8001 45.224C49.3325 45.224 51.6762 43.6915 52.097 40.2961L47.0488 28.6375Z" fill="#353535"/>
</svg>
