<svg width="60" height="60" viewBox="0 0 60 60" fill="none" xmlns="http://www.w3.org/2000/svg">
<path d="M30 60C46.5685 60 60 46.5685 60 30C60 13.4315 46.5685 0 30 0C13.4315 0 0 13.4315 0 30C0 46.5685 13.4315 60 30 60Z" fill="#F2F2F2"/>
<path d="M47.1885 20.1188H12.8135V39.88H47.1885V20.1188Z" fill="#44C4A1"/>
<path d="M14.0625 21.329V38.6704H45.9375V21.329H14.0625ZM44.6875 35.6455C43.652 35.6455 42.8125 36.458 42.8125 37.4604H17.1875C17.1875 36.4581 16.348 35.6455 15.3125 35.6455V24.354C16.348 24.354 17.1875 23.5414 17.1875 22.5391H42.8125C42.8125 23.5414 43.652 24.354 44.6875 24.354V35.6455Z" fill="#31978C"/>
<path d="M30.0012 36.1246C32.773 36.1246 35.02 33.3826 35.02 30.0002C35.02 26.6178 32.773 23.8758 30.0012 23.8758C27.2294 23.8758 24.9824 26.6178 24.9824 30.0002C24.9824 33.3826 27.2294 36.1246 30.0012 36.1246Z" fill="#31978C"/>
<path d="M40.9995 31.2662C41.722 31.2662 42.3076 30.6993 42.3076 30C42.3076 29.3007 41.722 28.7338 40.9995 28.7338C40.2771 28.7338 39.6914 29.3007 39.6914 30C39.6914 30.6993 40.2771 31.2662 40.9995 31.2662Z" fill="#31978C"/>
<path d="M19.0015 31.2662C19.7239 31.2662 20.3096 30.6993 20.3096 30C20.3096 29.3007 19.7239 28.7338 19.0015 28.7338C18.279 28.7338 17.6934 29.3007 17.6934 30C17.6934 30.6993 18.279 31.2662 19.0015 31.2662Z" fill="#31978C"/>
<path d="M29.7917 34.167V33.4331C28.9252 33.339 28.1473 32.9741 27.459 32.3369L28.1511 31.4624C28.682 31.9517 29.2284 32.2438 29.7917 32.3369V30.3866C29.0771 30.2058 28.554 29.9686 28.2222 29.6732C27.8904 29.3787 27.7245 28.941 27.7245 28.361C27.7245 27.7817 27.915 27.3073 28.2979 26.9392C28.6805 26.5702 29.1783 26.369 29.7917 26.3354V25.8331H30.3982V26.3461C31.0935 26.3992 31.751 26.6512 32.3706 27.0995L31.754 28.0248C31.3365 27.7098 30.8851 27.5151 30.3982 27.4415V29.3313H30.4268C31.1537 29.5121 31.6876 29.7574 32.0288 30.0651C32.3706 30.3735 32.5411 30.821 32.5411 31.4076C32.5411 31.9941 32.3451 32.4712 31.9531 32.8401C31.5612 33.2083 31.0433 33.4095 30.3982 33.443V34.1671H29.7917V34.167ZM29.1228 27.6779C28.9615 27.8284 28.8812 28.0166 28.8812 28.2407C28.8812 28.4657 28.9445 28.6425 29.071 28.7733C29.1969 28.9042 29.4376 29.0302 29.7917 29.1504V27.4111C29.507 27.4381 29.2841 27.5272 29.1228 27.6779ZM31.119 32.0857C31.2957 31.9319 31.3844 31.7372 31.3844 31.5023C31.3844 31.2683 31.3149 31.0818 31.1761 30.9443C31.0365 30.8077 30.7772 30.6785 30.3983 30.5574V32.3669C30.7015 32.3336 30.9415 32.2404 31.119 32.0857Z" fill="#44C4A1"/>
</svg>
