<svg width="60" height="60" viewBox="0 0 60 60" fill="none" xmlns="http://www.w3.org/2000/svg">
<path d="M30 60C46.5685 60 60 46.5685 60 30C60 13.4315 46.5685 0 30 0C13.4315 0 0 13.4315 0 30C0 46.5685 13.4315 60 30 60Z" fill="#F2F2F2"/>
<path fill-rule="evenodd" clip-rule="evenodd" d="M18.4724 22.9999V23.0061C18.4663 23.0061 16.5194 22.9999 16.0003 24.8603C15.5244 26.5661 14.1832 31.2756 14.1461 31.4054H13.7753C13.7753 31.4054 12.4032 26.5908 11.9211 24.8541C11.402 22.9938 9.44896 22.9999 9.44896 22.9999H4.99902V37.1532H9.44896V28.7478H9.63438H9.81979L12.4156 37.1532H15.5058L18.1016 28.754H18.4724V37.1532H22.9224V22.9999H18.4724Z" fill="#4DB45E"/>
<path fill-rule="evenodd" clip-rule="evenodd" d="M34.7276 22.9999C34.7276 22.9999 33.4235 23.1173 32.8117 24.4832L29.6596 31.4053H29.2888V22.9999H24.8389V37.1532H29.0416C29.0416 37.1532 30.4075 37.0295 31.0193 35.6698L34.1096 28.7477H34.4804V37.1532H38.9303V22.9999H34.7276Z" fill="#4DB45E"/>
<path fill-rule="evenodd" clip-rule="evenodd" d="M40.9092 29.4276V37.1532H45.3591V32.6415H50.1799C52.2812 32.6415 54.0612 31.3003 54.7225 29.4276H40.9092Z" fill="#4DB45E"/>
<path fill-rule="evenodd" clip-rule="evenodd" d="M50.1791 22.9999H40.2842C40.7786 25.6946 42.7996 27.8577 45.414 28.5623C46.0073 28.723 46.6315 28.8095 47.2743 28.8095H54.901C54.969 28.4881 54.9999 28.1606 54.9999 27.8206C54.9999 25.1569 52.8429 22.9999 50.1791 22.9999Z" fill="url(#paint0_linear)"/>
<defs>
<linearGradient id="paint0_linear" x1="40.2854" y1="25.9047" x2="54.9999" y2="25.9047" gradientUnits="userSpaceOnUse">
<stop offset="0.3" stop-color="#00B4E6"/>
<stop offset="1" stop-color="#088CCB"/>
</linearGradient>
</defs>
</svg>
