<svg width="100" height="100" viewBox="0 0 100 100" fill="none" xmlns="http://www.w3.org/2000/svg">
<path d="M75.7147 90.628C75.1737 89.6956 73.9789 89.378 73.0453 89.919L72.9702 89.9624C72.0373 90.5036 71.72 91.6987 72.261 92.6317C72.6233 93.2561 73.2786 93.605 73.952 93.605C74.2844 93.605 74.6219 93.5196 74.9303 93.3407L75.0055 93.2973C75.9383 92.7561 76.2557 91.561 75.7147 90.628Z" fill="#67B467"/>
<path d="M93.2995 25.0154C86.6233 13.452 75.8439 5.18068 62.9466 1.72482C50.0497 -1.73104 36.5786 0.0425905 25.0152 6.71857C13.4519 13.3945 5.18039 24.1742 1.72473 37.0713C-1.73093 49.9684 0.0425033 63.4396 6.71848 75.0029C12.707 85.3754 22.2249 93.2584 33.5191 97.1994C38.8728 99.0674 44.4616 99.9996 50.0419 99.9996C56.1093 99.9996 62.1657 98.8969 67.8905 96.6967C68.8974 96.3098 69.3997 95.1799 69.0126 94.173C68.6255 93.1662 67.4954 92.6633 66.489 93.051C51.2507 98.9078 34.7542 96.2467 22.4294 86.9955L24.1792 77.8617L25.0224 77.5879C28.2085 76.5527 29.9585 73.1184 28.9237 69.932L28.305 68.0279C28.1618 67.5873 28.1626 67.1215 28.307 66.6813C28.8497 65.0266 28.6558 63.2162 27.7747 61.7139C26.8937 60.2117 25.4083 59.1584 23.6991 58.8242L19.2909 57.9629L10.7855 51.4961C10.2759 51.1086 9.60891 50.9955 8.99992 51.1932L4.02024 52.8107C3.91457 51.0297 3.91301 49.2492 4.0134 47.4781C4.20989 47.6611 4.33782 47.7856 4.41653 47.8672C4.51399 48.0295 4.63469 48.1783 4.7761 48.3072C5.18274 48.6775 5.5511 48.8455 6.32453 48.8455C7.03528 48.8453 8.08742 48.7037 9.82473 48.4471C11.4724 48.2035 13.1114 47.9291 13.1277 47.9264C13.7845 47.8164 14.3398 47.3789 14.6011 46.7666C14.8624 46.1541 14.7935 45.4508 14.4183 44.9004L12.0236 41.3879L15.4536 38.9352C15.6821 38.7717 15.8728 38.5609 16.0124 38.3172L21.3294 29.035L23.4726 26.7385C25.6626 24.3912 26.2876 20.957 25.0646 17.9891C24.3431 16.2385 23.0829 14.7811 21.5068 13.7988C23.2138 12.4568 25.0339 11.2178 26.9683 10.1012C34.0655 6.00353 41.8109 4.01779 49.4747 3.94181L45.9872 8.31661L33.0546 12.8504C32.5294 13.0344 32.1075 13.434 31.8954 13.9484L28.2837 22.7039C28.0273 23.326 28.1087 24.0357 28.4995 24.5834L33.7745 31.9725C33.0191 32.6617 32.2837 33.6656 31.4054 34.9121C31.0202 35.4588 30.6566 35.975 30.4052 36.2645C30.1866 36.5164 29.9679 36.7625 29.7511 37.0063C28.6165 38.2826 27.4435 39.6027 26.6101 41.366C24.7777 45.2447 25.1478 49.7529 27.5759 53.1314C29.9237 56.398 33.7944 58.0586 37.9257 57.5727C38.5987 57.4938 39.2263 57.3385 39.8335 57.1881C41.5079 56.7738 42.0384 56.7324 42.5755 57.2352C42.8368 57.4799 42.8609 57.5262 42.8556 58.3561C42.8519 58.8842 42.8478 59.5412 43.0298 60.2914C43.3214 61.4916 44.0751 62.3211 44.6806 62.9875C44.9816 63.3186 45.2929 63.6611 45.3888 63.891C45.998 65.3508 45.7327 66.1592 45.1515 67.9307C45.1017 68.0822 45.0509 68.2369 44.9999 68.3955C44.1169 71.1289 45.3478 73.8402 46.4337 76.232C46.7864 77.0088 47.1194 77.742 47.3376 78.39C49.0937 83.6008 50.4101 84.7941 51.4665 85.2746C52.0198 85.5262 52.5925 85.6365 53.171 85.6363C55.9864 85.6361 58.9243 83.0221 60.2739 81.3648C61.1216 80.3242 61.3304 79.2822 61.4827 78.5211C61.5587 78.1426 61.6185 77.8438 61.7325 77.6484C61.9071 77.3496 62.1128 77.118 62.3732 76.8246C62.8968 76.235 63.5485 75.5014 63.9706 74.1715C64.2913 73.1613 64.5243 72.9137 65.296 72.0918C65.4304 71.949 65.5735 71.7963 65.7273 71.6291C68.3286 68.7984 67.6587 66.6361 66.9491 64.3467C66.3521 62.4203 67.3964 61.1883 69.9214 58.8369C71.0159 57.8176 72.1476 56.7637 73.0224 55.4973C73.4052 54.943 74.5698 53.2568 73.8491 51.5855C73.1427 49.9469 71.3472 49.6715 69.9046 49.4504C69.3349 49.3629 68.4739 49.2309 68.1999 49.0518C66.9915 48.2617 66.2523 46.6129 65.5372 45.0182C65.3948 44.7008 65.2544 44.3875 65.112 44.0834C64.8581 43.5408 64.6044 42.8844 64.3359 42.1895C63.6253 40.3504 62.82 38.2658 61.4491 36.8127C60.2169 35.507 57.8941 34.8781 55.8446 34.3231C55.1554 34.1365 54.5048 33.9604 54.0757 33.802C53.7161 33.6691 53.3259 33.6451 52.9536 33.7326C51.9562 33.9664 51.3339 34.224 50.8718 34.5943C50.7497 34.6922 50.3882 35.0135 50.1765 35.5299C49.4614 35.1867 48.4782 34.5315 47.8732 34.1281C47.8607 34.1197 47.848 34.1113 47.8355 34.1029C48.0394 33.2869 47.8548 32.632 47.6614 32.2231C46.5704 29.9152 42.9487 30.0959 42.2343 30.1566C41.8284 30.1906 41.315 30.2088 40.7718 30.2279C39.9187 30.2582 38.9757 30.2922 38.0427 30.3969L38.0907 30.2629C38.7989 28.2897 40.6833 26.9639 42.7798 26.9639H43.8902C44.9685 26.9639 45.8431 26.0893 45.8431 25.0109C45.8431 23.9326 44.9685 23.058 43.8902 23.058H42.7798C39.6673 23.058 36.8171 24.6961 35.2196 27.2744L32.3066 23.1938L35.1726 16.2467L47.8099 11.8162C48.1564 11.6947 48.4618 11.4779 48.6909 11.1906L54.3087 4.14396C68.663 5.50939 82.1747 13.5574 89.9173 26.968C91.9796 30.54 93.5052 34.3006 94.5194 38.1469L93.6915 38.8852C92.6108 39.8494 91.9776 41.2324 91.9534 42.6799C91.9532 42.6957 91.9528 42.7113 91.9522 42.727L90.6034 39.0176C90.4025 38.4641 90.1064 37.9565 89.7239 37.509L87.3179 34.692C86.3851 33.6 85.0269 32.974 83.5911 32.974H80.646C79.6005 32.974 78.645 33.5467 78.1519 34.468C77.6587 35.3895 77.7126 36.5024 78.2925 37.3719L78.5905 37.8193C76.6874 39.4559 74.4862 40.7654 72.1425 41.6486L68.1054 33.9156V32.1904C68.1054 31.6568 67.887 31.1461 67.5009 30.7779L63.8655 27.3074C63.665 27.116 63.4259 26.9695 63.1644 26.8775L59.8919 25.7275C58.8737 25.3693 57.7593 25.9051 57.4019 26.9225C57.0443 27.9402 57.5792 29.0549 58.5968 29.4125L61.4726 30.4233L64.1995 33.0262V34.3949C64.1995 34.7096 64.2757 35.0197 64.4214 35.2988L69.4755 44.9799C69.93 45.851 70.9616 46.249 71.8823 45.9084L73.354 45.3658C76.773 44.1049 79.9419 42.0766 82.5185 39.5004C83.1767 38.842 83.279 37.8109 82.7624 37.0361L82.6585 36.8801H83.5911C83.8827 36.8801 84.1587 37.0072 84.3482 37.2291L86.7542 40.0461C86.8317 40.1369 86.8917 40.2397 86.9327 40.3524L89.588 47.6537C89.8161 48.2811 90.3489 48.7482 91.0001 48.8928C91.1407 48.9238 91.2823 48.9391 91.4231 48.9391C91.9355 48.9391 92.4341 48.7373 92.804 48.367L94.0679 47.1031C94.8683 46.3025 95.4192 45.2897 95.6825 44.1668C97.6372 59.8318 91.4948 76.0365 78.5116 86.2268C77.663 86.8926 77.5149 88.1201 78.1812 88.9688C78.847 89.8174 80.0743 89.9654 80.9231 89.2992C90.2966 81.9424 96.736 71.4199 99.0554 59.6701C101.396 47.807 99.3524 35.4994 93.2995 25.0154ZM9.23469 55.2238L17.288 61.3471C17.5261 61.5281 17.8023 61.652 18.0956 61.7092L22.9495 62.6576C23.5691 62.7787 24.0859 63.1451 24.4052 63.6897C24.7245 64.234 24.7917 64.8639 24.5952 65.4637C24.1909 66.6967 24.189 68.0008 24.59 69.2346L25.2087 71.1385C25.5784 72.2764 24.953 73.5031 23.8153 73.8729L21.8745 74.5035C21.1974 74.7234 20.6939 75.2945 20.5601 75.9934L18.998 84.1475C15.5638 81.0043 12.5486 77.2895 10.1011 73.0502C7.11516 67.8789 5.24953 62.3631 4.42727 56.7857L9.23469 55.2238ZM20.6169 24.0736L18.3195 26.5352C18.2169 26.6451 18.1273 26.7666 18.0525 26.8971L12.8353 36.0057L8.19836 39.3213C7.33469 39.9389 7.12258 41.1328 7.72063 42.0102L9.45481 44.5539C8.4552 44.7027 7.55813 44.8254 6.96164 44.8904C6.84699 44.7805 6.72707 44.669 6.60305 44.5537C6.13879 44.1225 5.49367 43.5465 4.53196 42.7049C6.11809 32.8879 10.8486 23.6395 18.2884 16.5799C19.713 17.0285 20.8821 18.0912 21.4532 19.4774C22.0958 21.0363 21.7673 22.8406 20.6169 24.0736ZM36.5407 34.7461C37.4118 34.2559 39.4337 34.1842 40.9099 34.1318C41.5015 34.1109 42.0605 34.091 42.5597 34.0492C42.8232 34.0272 43.1157 34.0313 43.3917 34.0527C43.2685 34.3691 43.2284 34.7164 43.2819 35.0609C43.3759 35.667 43.7495 36.1934 44.2901 36.4826C44.6566 36.6787 45.1665 37.0188 45.7064 37.3787C47.2327 38.3963 48.963 39.5496 50.5884 39.6531C52.0665 39.749 52.889 38.9066 53.2413 38.5479C53.2694 38.5193 53.296 38.4908 53.3241 38.4649C53.5226 38.3031 53.7085 38.0863 53.8468 37.8248C54.1591 37.9141 54.4872 38.0029 54.8235 38.0941C55.98 38.4072 58.1325 38.99 58.6081 39.494C59.4528 40.3895 60.1112 42.094 60.6923 43.5977C60.9859 44.3576 61.2632 45.0748 61.5743 45.7398C61.7079 46.0252 61.8394 46.3191 61.973 46.6168C62.8741 48.627 63.8956 50.9055 66.0626 52.3219C67.0452 52.9643 68.2497 53.1488 69.3126 53.3119C69.4411 53.3316 69.5884 53.3543 69.738 53.3789C69.1071 54.259 68.2089 55.0953 67.2599 55.9791C64.8421 58.2307 61.8331 61.033 63.2189 65.5035C63.873 67.6145 63.9034 67.8426 62.8517 68.9867C62.7083 69.1428 62.5747 69.285 62.4495 69.4182C61.5487 70.3771 60.8372 71.1346 60.2482 72.99C60.0771 73.5289 59.8554 73.7785 59.4528 74.2316C59.131 74.5941 58.73 75.0457 58.3603 75.6785C57.9173 76.4367 57.7708 77.1668 57.6534 77.7533C57.5376 78.3305 57.472 78.6201 57.2454 78.8982C56.7296 79.5314 55.7675 80.451 54.7798 81.0785C53.8618 81.6613 53.3259 81.741 53.1433 81.7301C52.9349 81.5066 52.18 80.5283 51.0394 77.143C50.7581 76.3078 50.3679 75.4484 49.9905 74.6174C49.1587 72.7853 48.2987 70.8908 48.7171 69.5961C48.7665 69.4434 48.8153 69.2941 48.8634 69.1482C49.5317 67.1111 50.1626 65.1875 48.9939 62.3867C48.638 61.5338 48.0714 60.9105 47.572 60.3605C47.2487 60.0049 46.8825 59.6018 46.8261 59.3697C46.7573 59.0867 46.7595 58.76 46.762 58.3816C46.7687 57.3611 46.7788 55.8191 45.2458 54.3836C43.0845 52.3605 40.5642 52.9838 38.8962 53.3963C38.3839 53.5229 37.8999 53.6428 37.471 53.6932C34.7273 54.0147 32.2777 52.9795 30.7484 50.8514C29.1486 48.6254 28.9163 45.6299 30.1425 43.0342C30.7361 41.7781 31.6327 40.769 32.671 39.601C32.8978 39.3457 33.1267 39.0883 33.3556 38.8246C33.7364 38.3856 34.1556 37.791 34.5987 37.1615C35.1278 36.4106 36.113 35.0121 36.5407 34.7461Z" fill="#67B467"/>
<path d="M52.7415 23.2148L52.6096 23.1687C51.5927 22.8124 50.4774 23.3474 50.1204 24.3651C49.7634 25.3831 50.2991 26.4974 51.3169 26.8544L51.4485 26.9005C51.6624 26.9755 51.8803 27.011 52.095 27.011C52.9012 27.011 53.6559 26.5077 53.938 25.704C54.295 24.686 53.7593 23.5716 52.7415 23.2148Z" fill="#67B467"/>
<path d="M80.0824 67.2417L79.1428 63.6999C78.9375 62.9265 78.2813 62.3566 77.4869 62.2617C76.6916 62.1687 75.9203 62.5664 75.5385 63.2697C75.3244 63.6642 75.1317 64.0822 74.9453 64.4863C74.6318 65.1662 74.3076 65.8693 73.9703 66.2574C73.7809 66.4753 73.2942 66.7103 72.8238 66.9372C71.6994 67.4798 70.1594 68.223 69.5711 70.0984C69.2059 71.2617 69.3422 72.182 69.4418 72.8538C69.5279 73.4365 69.5479 73.6384 69.3918 74.0048L69.3723 74.0503C68.7506 75.5091 67.594 78.2249 69.2158 80.5337C70.3731 82.1814 71.5899 82.605 72.5354 82.605C72.7199 82.6056 72.8945 82.5894 73.0561 82.563C75.0483 82.2374 76.5459 80.1652 77.7697 76.041L80.067 68.2986C80.1692 67.9542 80.1746 67.5886 80.0824 67.2417ZM74.0254 74.9298C73.4016 77.0326 72.8496 78.0142 72.5311 78.4494C72.4944 78.4025 72.4545 78.3494 72.4119 78.2886C72.0387 77.757 72.5965 76.4476 72.9656 75.581L72.9854 75.5353C73.5807 74.138 73.4215 73.065 73.3057 72.2814C73.2313 71.7796 73.2047 71.564 73.2979 71.2677C73.3744 71.0242 73.832 70.7878 74.5215 70.455C74.8272 70.3074 75.1637 70.1451 75.5033 69.9486L74.0254 74.9298Z" fill="#67B467"/>
<path d="M37.9334 80.4083C47.8377 80.4083 55.8667 72.3793 55.8667 62.475C55.8667 52.5707 47.8377 44.5416 37.9334 44.5416C28.029 44.5416 20 52.5707 20 62.475C20 72.3793 28.029 80.4083 37.9334 80.4083Z" fill="#FF0000"/>
<path d="M62.0662 80.4083C71.9705 80.4083 79.9995 72.3793 79.9995 62.475C79.9995 52.5707 71.9705 44.5416 62.0662 44.5416C52.1618 44.5416 44.1328 52.5707 44.1328 62.475C44.1328 72.3793 52.1618 80.4083 62.0662 80.4083Z" fill="#FFCC00"/>
<path d="M49.9983 49.2362C48.154 50.914 46.6799 52.9579 45.6699 55.2374C44.66 57.5169 44.1365 59.9819 44.1328 62.4752C44.1369 64.9685 44.6608 67.4337 45.6712 69.7132C46.6816 71.9926 48.1562 74.0364 50.0009 75.7139C51.8452 74.0361 53.3193 71.9923 54.3292 69.7128C55.3392 67.4334 55.8627 64.9683 55.8664 62.4752C55.8624 59.9818 55.3385 57.5166 54.3281 55.237C53.3177 52.9575 51.843 50.9137 49.9983 49.2362Z" fill="#D45500"/>
<path d="M21.4561 58.4297V66.16H23.2299V63.1161C23.2189 62.4043 23.197 61.7036 23.1861 61.0028C23.3503 61.5284 23.5146 62.0649 23.6678 62.5686C23.7992 62.9737 23.9197 63.346 24.0401 63.7183L24.8613 66.16H26.2848C26.449 65.6782 26.6132 65.1855 26.7775 64.7037C26.9746 64.1344 27.1717 63.554 27.3578 62.9847C27.5768 62.3058 27.7848 61.6269 27.9929 60.9481C27.971 61.6379 27.9491 62.3386 27.9491 63.0394V66.16H29.7995V58.4297H27.1717C27.0403 58.8348 26.9089 59.2509 26.7665 59.667C26.5914 60.2254 26.3943 60.7838 26.2191 61.3532C26.011 62.0211 25.8139 62.6781 25.6278 63.335C25.4198 62.6671 25.2227 61.9992 25.0037 61.3203C24.6971 60.3568 24.3796 59.3932 24.0511 58.4297H21.4561Z" fill="white"/>
<path d="M34.552 60.6086C34.3111 60.4444 33.8512 60.1268 33.0848 60.1268C32.1979 60.1268 31.3876 60.5648 30.8511 61.2656C30.2708 62.0539 30.2051 62.8532 30.2051 63.2036C30.2051 64.4738 30.9058 65.2621 31.2453 65.5687C31.9351 66.2038 32.614 66.2804 32.9862 66.2804C33.8622 66.2804 34.333 65.8972 34.6177 65.6892V66.16H36.3368V60.2473H34.552V60.6086ZM32.3731 64.1562C32.1103 63.9044 31.9679 63.565 31.9679 63.2146C31.9679 62.481 32.5702 61.8678 33.3038 61.8678C34.0483 61.8678 34.6396 62.47 34.6506 63.2036C34.6506 63.9482 34.0593 64.5395 33.3147 64.5504C32.9643 64.5504 32.614 64.3971 32.3731 64.1562Z" fill="white"/>
<path d="M41.2024 61.9883C41.1915 61.9007 41.1915 61.6707 41.1039 61.4189C40.9396 60.9152 40.4031 60.1378 39.0782 60.1378C38.257 60.1378 37.403 60.4991 37.0088 61.2656C36.9212 61.4189 36.8117 61.6817 36.8117 62.1087C36.8117 62.3277 36.8336 62.8423 37.2716 63.2803C37.5125 63.5103 37.8191 63.6854 38.4979 63.8606C38.9687 63.9811 39.2315 64.0139 39.3958 64.211C39.4724 64.3205 39.4943 64.441 39.4943 64.4957C39.4943 64.6271 39.3958 64.9556 39.0016 64.9665C38.9578 64.9665 38.8374 64.9556 38.7279 64.8899C38.476 64.7585 38.4651 64.4738 38.4432 64.3862H36.6475C36.6694 64.5176 36.6913 64.8351 36.8664 65.1636C36.9759 65.3826 37.1511 65.5797 37.3373 65.733C37.622 65.9739 38.1256 66.2914 39.0016 66.2914C40.0308 66.2914 40.6221 65.8425 40.8959 65.5359C41.3448 65.0541 41.3776 64.5723 41.3776 64.2986C41.3776 63.7621 41.1915 63.3241 40.7426 63.0066C40.3484 62.7109 39.9761 62.6233 39.5162 62.5138C39.1658 62.4153 38.9359 62.3496 38.8045 62.262C38.6841 62.1744 38.6074 62.043 38.6074 61.8788C38.6074 61.6379 38.7826 61.4299 39.0344 61.4299C39.1111 61.4299 39.1987 61.4518 39.2644 61.4955C39.4505 61.605 39.4834 61.7802 39.5053 61.9883H41.2024Z" fill="white"/>
<path d="M41.8747 58.4297V60.2254H41.2178V61.605H41.8528V66.16H43.6486V61.616H44.415V60.2364H43.6595V58.4297H41.8747Z" fill="white"/>
<path d="M46.0728 62.5138C46.1276 62.4044 46.1823 62.3058 46.2699 62.2182C46.2918 62.1854 46.4013 62.0649 46.5327 61.9883C46.7955 61.8021 47.0692 61.7145 47.3868 61.7145C48.2299 61.7145 48.5693 62.2511 48.7117 62.5138H46.0728ZM50.3979 63.8059C50.4198 63.5978 50.4417 63.4008 50.4417 63.1927C50.4417 62.3058 50.0147 61.4298 49.3467 60.8714C48.5803 60.2145 47.7262 60.1378 47.3758 60.1378C46.467 60.1378 45.5801 60.5539 44.9998 61.2547C44.3647 62.0211 44.2881 62.8423 44.2881 63.2146C44.2881 64.1234 44.7151 65.0213 45.4049 65.5906C46.1823 66.2257 47.0254 66.2914 47.3977 66.2914C48.5365 66.2914 49.2044 65.733 49.511 65.4264C49.9599 64.9884 50.1132 64.6052 50.2227 64.3534H48.3941C48.2846 64.4628 48.2408 64.4957 48.1642 64.5395C47.9562 64.6818 47.6605 64.7475 47.3977 64.7475C46.9269 64.7475 46.478 64.5504 46.1933 64.1672C46.0947 64.0358 45.9962 63.8278 45.9853 63.8059H50.3979Z" fill="white"/>
<path d="M50.8242 60.2583V66.16H52.609V62.8642C52.6199 62.5686 52.6528 62.4482 52.7404 62.3168C53.0141 61.9007 53.7149 61.8788 53.7696 61.8788C53.912 61.8678 54.0215 61.8897 54.1419 61.9007V60.2364C53.912 60.2364 53.3207 60.1926 52.7951 60.7181C52.6528 60.8605 52.5214 61.0357 52.4885 61.0795V60.2583H50.8242Z" fill="white"/>
<path d="M62.1354 61.3204C62.004 60.8715 61.7303 59.9627 60.7777 59.1853C59.7594 58.3531 58.7301 58.2655 58.2265 58.2655C57.241 58.2655 56.5293 58.6049 56.2118 58.7911C55.5876 59.1634 54.208 60.2474 54.208 62.3496C54.208 63.4555 54.6241 64.1673 54.8759 64.5286C55.2701 65.098 56.3103 66.3024 58.2703 66.3024C58.7192 66.3024 59.0696 66.2367 59.2338 66.1929C59.7813 66.0615 61.0186 65.5797 61.7631 64.2001C61.8836 63.9702 61.9821 63.7512 62.1464 63.2475H60.0003C59.8798 63.4446 59.836 63.5103 59.7594 63.6088C59.4637 63.9592 59.0367 64.1563 58.9163 64.2001C58.7849 64.2439 58.5659 64.3096 58.2484 64.3096C57.0549 64.3096 56.5074 63.4117 56.3541 63.0504C56.2994 62.919 56.2118 62.6672 56.2008 62.2949C56.2008 61.4846 56.6607 60.751 57.4162 60.4335C57.5585 60.3678 57.8432 60.2583 58.2484 60.2583C58.8725 60.2583 59.4309 60.532 59.8032 61.0248C59.8689 61.1233 59.9346 61.2109 59.9893 61.3204H62.1354Z" fill="white"/>
<path d="M66.5706 60.6086C66.3297 60.4444 65.8698 60.1268 65.1033 60.1268C64.2164 60.1268 63.4062 60.5648 62.8697 61.2656C62.2893 62.0539 62.2236 62.8532 62.2236 63.2036C62.2236 64.4738 62.9244 65.2621 63.2638 65.5687C63.9536 66.2038 64.6325 66.2804 65.0048 66.2804C65.8808 66.2804 66.3516 65.8972 66.6363 65.6892V66.16H68.3553V60.2473H66.5706V60.6086ZM64.3916 64.1562C64.1288 63.9044 63.9865 63.565 63.9865 63.2146C63.9865 62.481 64.5887 61.8678 65.3223 61.8678C66.0669 61.8678 66.6582 62.47 66.6691 63.2036C66.6691 63.9482 66.0778 64.5395 65.3333 64.5504C64.9829 64.5504 64.6325 64.3971 64.3916 64.1562Z" fill="white"/>
<path d="M68.9941 60.2583V66.16H70.7789V62.8642C70.7899 62.5686 70.8227 62.4482 70.9103 62.3168C71.184 61.9007 71.8848 61.8788 71.9395 61.8788C72.0819 61.8678 72.1914 61.8897 72.3118 61.9007V60.2364C72.0819 60.2364 71.4906 60.1926 70.965 60.7181C70.8227 60.8605 70.6913 61.0357 70.6585 61.0795V60.2583H68.9941Z" fill="white"/>
<path d="M76.6487 60.6196C76.3969 60.4553 75.9479 60.1378 75.1815 60.1378C74.2946 60.1378 73.4734 60.5758 72.9478 61.2766C72.3565 62.054 72.3018 62.8642 72.3018 63.2146C72.3018 64.4847 73.0025 65.2731 73.331 65.5797C74.0208 66.2148 74.6997 66.2914 75.0829 66.2914C75.9479 66.2914 76.4297 65.9082 76.7034 65.7001L76.7144 66.16H78.4225V58.4297H76.6487V60.6196ZM74.4588 64.1672C74.207 63.9044 74.0646 63.565 74.0646 63.2146C74.0646 62.481 74.6559 61.8788 75.4005 61.8788C76.1341 61.8678 76.7363 62.47 76.7363 63.2146C76.7363 63.9482 76.145 64.5504 75.4005 64.5504C75.0501 64.5504 74.6997 64.3971 74.4588 64.1672Z" fill="white"/>
<path d="M51.0306 26.1942C50.9963 28.8931 53.4358 30.3993 55.2736 31.2948C57.1617 32.2136 57.7959 32.8028 57.7887 33.6244C57.7743 34.8819 56.2825 35.4369 54.8862 35.4585C52.4503 35.4963 51.0342 34.8009 49.9081 34.2748L49.0307 38.3808C50.1604 38.9015 52.2521 39.3555 54.4214 39.3754C59.5129 39.3754 62.8443 36.862 62.8623 32.9649C62.8821 28.0193 56.0213 27.7454 56.0681 25.5348C56.0843 24.8645 56.7239 24.1493 58.1256 23.9673C58.8193 23.8754 60.7345 23.8051 62.9055 24.8051L63.7577 20.8323C62.5902 20.4071 61.0894 20 59.2211 20C54.4286 20 51.0576 22.5475 51.0306 26.1942ZM71.9464 20.3423C71.0168 20.3423 70.233 20.8846 69.8835 21.717L62.6101 39.0835H67.698L68.7106 36.2855H74.9282L75.5156 39.0835H80L76.0867 20.3423H71.9464ZM72.6581 25.405L74.1265 32.4424H70.1051L72.6581 25.405ZM44.8616 20.3423L40.851 39.0835H45.6994L49.7081 20.3423H44.8616ZM37.689 20.3423L32.6425 33.0983L30.6012 22.2521C30.3615 21.0413 29.4157 20.3423 28.3653 20.3423H20.1153L20 20.8864C21.6936 21.2539 23.6178 21.8467 24.7835 22.4809C25.497 22.8682 25.7006 23.207 25.9348 24.1276L29.8012 39.0835H34.9252L42.7806 20.3423H37.689Z" fill="url(#paint0_linear)"/>
<defs>
<linearGradient id="paint0_linear" x1="47.5845" y1="39.7641" x2="48.1453" y2="19.8652" gradientUnits="userSpaceOnUse">
<stop stop-color="#222357"/>
<stop offset="1" stop-color="#254AA5"/>
</linearGradient>
</defs>
</svg>
