<svg width="100" height="98" viewBox="0 0 100 98" fill="none" xmlns="http://www.w3.org/2000/svg">
<path d="M29.8889 97.7777C46.3961 97.7777 59.7779 84.396 59.7779 67.8888C59.7779 51.3816 46.3961 37.9999 29.8889 37.9999C13.3817 37.9999 0 51.3816 0 67.8888C0 84.396 13.3817 97.7777 29.8889 97.7777Z" fill="#FF0000"/>
<path d="M70.1106 97.7777C86.6178 97.7777 99.9995 84.396 99.9995 67.8888C99.9995 51.3816 86.6178 37.9999 70.1106 37.9999C53.6034 37.9999 40.2217 51.3816 40.2217 67.8888C40.2217 84.396 53.6034 97.7777 70.1106 97.7777Z" fill="#FFCC00"/>
<path d="M49.9975 45.8242C46.9237 48.6205 44.4668 52.027 42.7836 55.8262C41.1003 59.6254 40.2278 63.7338 40.2217 67.8892C40.2284 72.0448 41.1017 76.1533 42.7857 79.9525C44.4697 83.7516 46.9274 87.1578 50.0019 89.9537C53.0756 87.1574 55.5325 83.751 57.2157 79.9519C58.8989 76.1528 59.7715 72.0445 59.7777 67.8892C59.771 63.7335 58.8978 59.6248 57.2138 55.8256C55.5298 52.0264 53.072 48.6201 49.9975 45.8242Z" fill="#D45500"/>
<path d="M2.42676 61.1467V74.0306H5.38311V68.9573C5.36486 67.7711 5.32836 66.6032 5.31012 65.4353C5.58385 66.3112 5.85759 67.2054 6.11308 68.0449C6.33206 68.7201 6.53281 69.3406 6.73355 69.961L8.10223 74.0306H10.4746C10.7483 73.2276 11.0221 72.4064 11.2958 71.6035C11.6243 70.6545 11.9528 69.6873 12.263 68.7384C12.628 67.6069 12.9747 66.4755 13.3215 65.344C13.285 66.4937 13.2485 67.6617 13.2485 68.8296V74.0306H16.3326V61.1467H11.9528C11.7338 61.8219 11.5148 62.5154 11.2776 63.2089C10.9856 64.1396 10.6571 65.0703 10.3651 66.0192C10.0184 67.1324 9.6899 68.2274 9.37966 69.3223C9.03293 68.2091 8.70445 67.0959 8.33947 65.9645C7.82849 64.3586 7.29927 62.7526 6.75179 61.1467H2.42676Z" fill="white"/>
<path d="M24.2527 64.7782C23.8512 64.5044 23.0848 63.9752 21.8073 63.9752C20.3291 63.9752 18.9787 64.7052 18.0845 65.8731C17.1173 67.1871 17.0078 68.5192 17.0078 69.1032C17.0078 71.2201 18.1758 72.5341 18.7415 73.045C19.8912 74.1035 21.0226 74.2312 21.6431 74.2312C23.103 74.2312 23.8877 73.5925 24.3622 73.2458V74.0305H27.2273V64.176H24.2527V64.7782ZM20.6211 70.6909C20.1832 70.2712 19.9459 69.7054 19.9459 69.1215C19.9459 67.8988 20.9496 66.8768 22.1723 66.8768C23.4132 66.8768 24.3987 67.8805 24.4169 69.1032C24.4169 70.3442 23.4315 71.3296 22.1906 71.3479C21.6066 71.3479 21.0226 71.0924 20.6211 70.6909Z" fill="white"/>
<path d="M35.3377 67.0776C35.3195 66.9316 35.3195 66.5484 35.1735 66.1287C34.8997 65.2892 34.0055 63.9935 31.7974 63.9935C30.4287 63.9935 29.0053 64.5957 28.3483 65.8732C28.2023 66.1287 28.0198 66.5667 28.0198 67.2784C28.0198 67.6434 28.0563 68.5011 28.7863 69.231C29.1878 69.6143 29.6987 69.9062 30.8302 70.1982C31.6149 70.399 32.0529 70.4537 32.3266 70.7822C32.4544 70.9647 32.4909 71.1654 32.4909 71.2567C32.4909 71.4757 32.3266 72.0231 31.6696 72.0414C31.5967 72.0414 31.3959 72.0231 31.2134 71.9136C30.7937 71.6946 30.7754 71.2202 30.7389 71.0742H27.7461C27.7826 71.2932 27.8191 71.8224 28.1111 72.3699C28.2936 72.7348 28.5856 73.0633 28.8958 73.3188C29.3703 73.7203 30.2097 74.2495 31.6696 74.2495C33.3851 74.2495 34.3705 73.5013 34.8267 72.9903C35.575 72.1874 35.6297 71.3844 35.6297 70.9282C35.6297 70.034 35.3195 69.304 34.5713 68.7748C33.9143 68.2821 33.2938 68.1361 32.5274 67.9536C31.9434 67.7893 31.5602 67.6798 31.3412 67.5339C31.1404 67.3879 31.0127 67.1689 31.0127 66.8951C31.0127 66.4937 31.3047 66.1469 31.7244 66.1469C31.8521 66.1469 31.9981 66.1834 32.1076 66.2564C32.4179 66.4389 32.4726 66.7309 32.5091 67.0776H35.3377Z" fill="white"/>
<path d="M36.4582 61.1467V64.1396H35.3633V66.439H36.4217V74.0306H39.4146V66.4572H40.692V64.1578H39.4328V61.1467H36.4582Z" fill="white"/>
<path d="M43.4551 67.9536C43.5463 67.7711 43.6376 67.6068 43.7836 67.4609C43.8201 67.4061 44.0025 67.2054 44.2215 67.0776C44.6595 66.7674 45.1157 66.6214 45.645 66.6214C47.0501 66.6214 47.6159 67.5156 47.8531 67.9536H43.4551ZM50.6635 70.107C50.7 69.7602 50.7365 69.4318 50.7365 69.085C50.7365 67.6068 50.0247 66.1469 48.9116 65.2162C47.6341 64.1213 46.2107 63.9935 45.6267 63.9935C44.112 63.9935 42.6339 64.687 41.6667 65.8549C40.6082 67.1324 40.4805 68.501 40.4805 69.1215C40.4805 70.6362 41.1922 72.1326 42.3419 73.0816C43.6376 74.14 45.0427 74.2495 45.6632 74.2495C47.5611 74.2495 48.6743 73.3188 49.1853 72.8078C49.9335 72.0779 50.189 71.4392 50.3715 71.0194H47.3239C47.1414 71.2019 47.0684 71.2567 46.9406 71.3297C46.5939 71.5669 46.1012 71.6764 45.6632 71.6764C44.8785 71.6764 44.1303 71.3479 43.6558 70.7092C43.4916 70.4902 43.3273 70.1435 43.3091 70.107H50.6635Z" fill="white"/>
<path d="M51.374 64.1944V74.0306H54.3486V68.5376C54.3669 68.0449 54.4216 67.8442 54.5676 67.6252C55.0238 66.9317 56.1918 66.8952 56.283 66.8952C56.5203 66.877 56.7028 66.9135 56.9035 66.9317V64.1579C56.5203 64.1579 55.5348 64.0849 54.6589 64.9608C54.4216 65.1981 54.2026 65.49 54.1479 65.563V64.1944H51.374Z" fill="white"/>
<path d="M70.226 65.9644C70.007 65.2162 69.5508 63.7015 67.9631 62.4059C66.266 61.0189 64.5505 60.8729 63.7111 60.8729C62.0687 60.8729 60.8825 61.4386 60.3533 61.7489C59.3131 62.3693 57.0137 64.176 57.0137 67.6798C57.0137 69.523 57.7071 70.7092 58.1269 71.3114C58.7838 72.2604 60.5175 74.2678 63.7841 74.2678C64.5323 74.2678 65.1163 74.1583 65.39 74.0853C66.3025 73.8663 68.3646 73.0633 69.6055 70.7639C69.8063 70.3807 69.9705 70.0157 70.2443 69.1763H66.6674C66.4667 69.5048 66.3937 69.6142 66.266 69.7785C65.7732 70.3625 65.0615 70.6909 64.8608 70.7639C64.6418 70.8369 64.2768 70.9464 63.7476 70.9464C61.7584 70.9464 60.846 69.45 60.5905 68.8478C60.4993 68.6288 60.3533 68.2091 60.335 67.5886C60.335 66.2382 61.1015 65.0155 62.3607 64.4862C62.5979 64.3767 63.0724 64.1943 63.7476 64.1943C64.7878 64.1943 65.7185 64.6505 66.339 65.4717C66.4485 65.6359 66.5579 65.7819 66.6492 65.9644H70.226Z" fill="white"/>
<path d="M77.617 64.7782C77.2155 64.5044 76.449 63.9752 75.1716 63.9752C73.6934 63.9752 72.343 64.7052 71.4488 65.8731C70.4816 67.1871 70.3721 68.5192 70.3721 69.1032C70.3721 71.2201 71.54 72.5341 72.1057 73.045C73.2554 74.1035 74.3869 74.2312 75.0073 74.2312C76.4673 74.2312 77.252 73.5925 77.7265 73.2458V74.0305H80.5916V64.176H77.617V64.7782ZM73.9854 70.6909C73.5474 70.2712 73.3102 69.7054 73.3102 69.1215C73.3102 67.8988 74.3139 66.8768 75.5366 66.8768C76.7775 66.8768 77.763 67.8805 77.7812 69.1032C77.7812 70.3442 76.7958 71.3296 75.5548 71.3479C74.9708 71.3479 74.3869 71.0924 73.9854 70.6909Z" fill="white"/>
<path d="M81.6572 64.1944V74.0306H84.6318V68.5376C84.6501 68.0449 84.7048 67.8442 84.8508 67.6252C85.3071 66.9317 86.475 66.8952 86.5662 66.8952C86.8035 66.877 86.986 66.9135 87.1867 66.9317V64.1579C86.8035 64.1579 85.818 64.0849 84.9421 64.9608C84.7048 65.1981 84.4858 65.49 84.4311 65.563V64.1944H81.6572Z" fill="white"/>
<path d="M94.4138 64.7965C93.9941 64.5228 93.2459 63.9936 91.9685 63.9936C90.4903 63.9936 89.1216 64.7236 88.2456 65.8915C87.2602 67.1872 87.1689 68.5376 87.1689 69.1216C87.1689 71.2385 88.3369 72.5524 88.8844 73.0634C90.0341 74.1218 91.1655 74.2496 91.8042 74.2496C93.2459 74.2496 94.0489 73.6109 94.5051 73.2641L94.5233 74.0306H97.3702V61.1467H94.4138V64.7965ZM90.764 70.7093C90.3443 70.2713 90.107 69.7056 90.107 69.1216C90.107 67.8989 91.0925 66.8952 92.3334 66.8952C93.5561 66.8769 94.5598 67.8806 94.5598 69.1216C94.5598 70.3443 93.5744 71.348 92.3334 71.348C91.7495 71.348 91.1655 71.0925 90.764 70.7093Z" fill="white"/>
<path d="M51.7176 10.865C51.6606 15.3632 55.7264 17.8736 58.7893 19.366C61.9362 20.8974 62.9932 21.8793 62.9812 23.2486C62.9572 25.3446 60.4708 26.2694 58.1437 26.3055C54.0838 26.3685 51.7236 25.2095 49.8469 24.3326L48.3845 31.1761C50.2673 32.0439 53.7535 32.8006 57.3689 32.8336C65.8549 32.8336 71.4071 28.6447 71.4371 22.1496C71.4702 13.9068 60.0354 13.4504 60.1135 9.76594C60.1405 8.64889 61.2065 7.45676 63.5427 7.15348C64.6988 7.00033 67.8908 6.88322 71.5092 8.54979L72.9296 1.92857C70.9837 1.2199 68.4824 0.541264 65.3684 0.541264C57.3809 0.541264 51.7627 4.78725 51.7176 10.865ZM86.5774 1.1118C85.0279 1.1118 83.7217 2.01565 83.1392 3.40295L71.0168 32.3472H79.4967L81.1843 27.6838H91.5471L92.526 32.3472H100L93.4779 1.1118H86.5774ZM87.7635 9.54973L90.2108 21.2788H83.5085L87.7635 9.54973ZM41.436 1.1118L34.7517 32.3472H42.8323L49.5135 1.1118H41.436ZM29.4817 1.1118L21.0708 22.3718L17.6686 4.29479C17.2692 2.2769 15.6928 1.1118 13.9421 1.1118H0.192181L0 2.01865C2.82265 2.63123 6.02967 3.61916 7.97249 4.67615C9.16161 5.32176 9.50093 5.88629 9.8913 7.42073L16.3354 32.3472H24.8754L37.9677 1.1118H29.4817Z" fill="#254AA5"/>
<defs>
<linearGradient id="paint0_linear" x1="45.9742" y1="33.4815" x2="46.9089" y2="0.316698" gradientUnits="userSpaceOnUse">
<stop stop-color="#222357"/>
<stop offset="1" stop-color="#254AA5"/>
</linearGradient>
</defs>
</svg>
