<svg width="80" height="95" viewBox="0 0 80 95" fill="none" xmlns="http://www.w3.org/2000/svg">
<path d="M68.1144 7.44261C63.7433 2.46044 55.8419 0.324463 45.7335 0.324463H16.3964C15.3963 0.3245 14.429 0.681308 13.6684 1.33074C12.9078 1.98017 12.4039 2.87962 12.2471 3.86738L0.0316993 81.3408C-0.211104 82.8685 0.971855 84.2519 2.52027 84.2519H20.632L25.1806 55.4007L25.0395 56.3041C25.3635 54.2647 27.1077 52.7606 29.1731 52.7606H37.7797C54.6875 52.7606 67.9265 45.8931 71.7938 26.0268C71.9086 25.4392 72.008 24.8674 72.094 24.3087C71.6059 24.0502 71.6059 24.0502 72.094 24.3087C73.2456 16.9659 72.0861 11.9677 68.1144 7.44261Z" fill="#27346A"/>
<path d="M32.1109 21.6635C32.606 21.4277 33.1476 21.3055 33.696 21.3059H56.6958C59.4193 21.3059 61.9596 21.4831 64.281 21.8567C64.9306 21.9603 65.5768 22.084 66.2187 22.2275C67.1285 22.4283 68.0279 22.674 68.9134 22.9638C70.0546 23.3449 71.1174 23.7888 72.0943 24.3086C73.2456 16.963 72.0861 11.9677 68.1144 7.4426C63.7408 2.46044 55.8419 0.324463 45.7335 0.324463H16.3939C14.3282 0.324463 12.5709 1.82833 12.2471 3.86737L0.031701 81.3377C-0.211102 82.868 0.971856 84.2495 2.51776 84.2495H20.632L30.069 24.4052C30.1618 23.817 30.3961 23.2601 30.7518 22.7825C31.1075 22.3049 31.5739 21.9209 32.1109 21.6635Z" fill="#27346A"/>
<path d="M71.7938 26.0267C67.9266 45.8901 54.6878 52.7604 37.7798 52.7604H29.1706C27.1052 52.7604 25.3608 54.2646 25.0398 56.304L19.381 92.1769C19.1696 93.5139 20.2036 94.7254 21.5562 94.7254H36.8239C37.6985 94.7252 38.5443 94.4129 39.2093 93.8448C39.8742 93.2767 40.3146 92.4899 40.4512 91.6261L40.5999 90.8481L43.4775 72.6109L43.6629 71.603C43.7996 70.7392 44.2399 69.9526 44.9048 69.3844C45.5696 68.8163 46.4153 68.504 47.2899 68.5037H49.5749C64.3648 68.5037 75.9456 62.4951 79.3298 45.1175C80.7424 37.8553 80.0115 31.7922 76.2747 27.5334C75.1413 26.2435 73.7338 25.1782 72.0941 24.3086C72.0053 24.8701 71.909 25.4392 71.7938 26.0267Z" fill="#2790C3"/>
<path d="M68.0457 22.695C67.4427 22.519 66.834 22.3631 66.2206 22.2276C65.5783 22.0864 64.9321 21.9636 64.2829 21.8594C61.959 21.4832 59.4205 21.3057 56.6945 21.3057H33.6975C33.1487 21.3044 32.6067 21.4277 32.1124 21.6661C31.5748 21.9227 31.1079 22.3065 30.7521 22.7843C30.3962 23.262 30.1622 23.8193 30.0702 24.4078L25.1822 55.4007L25.041 56.3042C25.3626 54.2648 27.1067 52.7606 29.1724 52.7606H37.7816C54.6893 52.7606 67.928 45.8931 71.7953 26.0268C71.9104 25.4393 72.0071 24.8699 72.0958 24.3087C71.1165 23.7917 70.0565 23.345 68.9149 22.9664C68.6269 22.8709 68.3372 22.7804 68.046 22.695" fill="#1F264F"/>
</svg>
