<svg width="100" height="97" viewBox="0 0 100 97" fill="none" xmlns="http://www.w3.org/2000/svg">
<path d="M91.8664 18.6898C90.7767 17.2017 89.6987 15.7135 88.7495 14.2136L30.4888 47.6796L2.36611 31.5559C1.72066 33.2957 1.32611 35.1185 1.19434 36.9695L30.7583 54.0892L91.8664 18.6898Z" fill="#2F9A41"/>
<path d="M30.489 60.2762L0.280541 42.9339C0.0569989 44.0006 -0.0335264 45.0908 0.0110333 46.1797C0.0110333 59.4389 5.27823 72.1551 14.6539 81.5308C24.0296 90.9064 36.7457 96.1736 50.0049 96.1736C63.2641 96.1736 75.9802 90.9064 85.3559 81.5308C94.7316 72.1551 99.9988 59.4389 99.9988 46.1797C100.055 38.269 98.1975 30.4619 94.5852 23.4238L30.489 60.2762Z" fill="#2F9A41"/>
<path d="M84.6837 10.0186C83.2599 8.67471 81.7657 7.40741 80.2075 6.22205L30.489 35.0829L6.51443 21.3966C5.70591 22.8847 4.88566 24.5135 3.93652 26.2712L30.2195 41.4457L84.6837 10.0186Z" fill="#2F9A41"/>
<path d="M75.3324 2.97632C73.4507 1.84983 71.493 0.855329 69.4735 0L30.4885 22.4513L13.0173 12.5966C11.8455 13.7684 10.6737 15.3034 9.50195 16.7916L30.3596 28.7203L75.3324 2.97632Z" fill="#2F9A41"/>
</svg>
