<svg width="30" height="30" viewBox="0 0 30 30" fill="none" xmlns="http://www.w3.org/2000/svg">
<path d="M27.6316 19.7526C25.781 19.7526 23.9684 19.4637 22.2505 18.8968C21.4121 18.6079 20.46 18.8305 19.909 19.3926L16.5032 21.9648C12.5953 19.879 10.0942 17.3795 8.03687 13.5L10.5395 10.1747C11.1695 9.54474 11.3953 8.62261 11.1253 7.75895C10.5537 6.03 10.2632 4.21579 10.2632 2.36842C10.2632 1.06261 9.20058 0 7.89477 0H2.36842C1.06261 0 0 1.06261 0 2.36842C0 17.6037 12.3963 30 27.6316 30C28.9374 30 30 28.9374 30 27.6316V22.1211C30 20.8153 28.9374 19.7526 27.6316 19.7526Z" fill="#38282B"/>
</svg>
