<svg width="26" height="30" viewBox="0 0 26 30" fill="none" xmlns="http://www.w3.org/2000/svg">
<path d="M17.1381 10.8691C16.7501 10.8691 16.4355 11.1837 16.4355 11.5717V24.8504C16.4355 25.2382 16.7501 25.553 17.1381 25.553C17.5262 25.553 17.8407 25.2382 17.8407 24.8504V11.5717C17.8407 11.1837 17.5262 10.8691 17.1381 10.8691Z" fill="#38282B"/>
<path d="M8.84808 10.8691C8.46002 10.8691 8.14551 11.1837 8.14551 11.5717V24.8504C8.14551 25.2382 8.46002 25.553 8.84808 25.553C9.23615 25.553 9.55066 25.2382 9.55066 24.8504V11.5717C9.55066 11.1837 9.23615 10.8691 8.84808 10.8691Z" fill="#38282B"/>
<path d="M2.80597 8.93129V26.2412C2.80597 27.2643 3.18113 28.2252 3.8365 28.9146C4.48886 29.6059 5.39671 29.9984 6.34683 30H19.6398C20.5901 29.9984 21.498 29.6059 22.1501 28.9146C22.8055 28.2252 23.1806 27.2643 23.1806 26.2412V8.93129C24.4834 8.58549 25.3276 7.32689 25.1533 5.99008C24.9788 4.65355 23.8401 3.65375 22.492 3.65348H18.8949V2.77526C18.899 2.03673 18.607 1.32757 18.0842 0.805857C17.5614 0.284415 16.8511 -0.00594543 16.1126 9.23124e-05H9.87397C9.13545 -0.00594543 8.42519 0.284415 7.90238 0.805857C7.37956 1.32757 7.08756 2.03673 7.09167 2.77526V3.65348H3.49455C2.14648 3.65375 1.00782 4.65355 0.833276 5.99008C0.659004 7.32689 1.50319 8.58549 2.80597 8.93129ZM19.6398 28.5948H6.34683C5.1456 28.5948 4.21112 27.5629 4.21112 26.2412V8.99304H21.7755V26.2412C21.7755 27.5629 20.841 28.5948 19.6398 28.5948ZM8.49682 2.77526C8.49215 2.40943 8.63596 2.05732 8.89559 1.79907C9.15493 1.54081 9.50787 1.39893 9.87397 1.40524H16.1126C16.4787 1.39893 16.8317 1.54081 17.091 1.79907C17.3506 2.05704 17.4944 2.40943 17.4898 2.77526V3.65348H8.49682V2.77526ZM3.49455 5.05862H22.492C23.1905 5.05862 23.7567 5.6248 23.7567 6.32326C23.7567 7.02171 23.1905 7.58789 22.492 7.58789H3.49455C2.79609 7.58789 2.22992 7.02171 2.22992 6.32326C2.22992 5.6248 2.79609 5.05862 3.49455 5.05862Z" fill="#38282B"/>
<path d="M12.9926 10.8691C12.6045 10.8691 12.29 11.1837 12.29 11.5717V24.8504C12.29 25.2382 12.6045 25.553 12.9926 25.553C13.3807 25.553 13.6952 25.2382 13.6952 24.8504V11.5717C13.6952 11.1837 13.3807 10.8691 12.9926 10.8691Z" fill="#38282B"/>
</svg>
