<svg width="20" height="20" viewBox="0 0 20 20" fill="none" xmlns="http://www.w3.org/2000/svg">
<path d="M10 0C4.48609 0 0 4.48609 0 10C0 15.5139 4.48609 20 10 20C15.5139 20 20 15.5139 20 10C20 4.48609 15.5139 0 10 0ZM10 19.1667C4.94547 19.1667 0.83332 15.0545 0.83332 10C0.83332 4.94547 4.94547 0.83332 10 0.83332C15.0545 0.83332 19.1667 4.94547 19.1667 10C19.1667 15.0545 15.0545 19.1667 10 19.1667Z" fill="#AEAEAE"/>
<path d="M14.0445 5.95539C13.8817 5.79262 13.6181 5.79262 13.4553 5.95539L9.9999 9.41082L6.54451 5.95543C6.38174 5.79266 6.11807 5.79266 5.95533 5.95543C5.79256 6.11821 5.79256 6.38188 5.95533 6.54461L9.41072 10L5.95533 13.4554C5.79256 13.6182 5.79256 13.8818 5.95533 14.0446C6.0367 14.1259 6.14334 14.1666 6.24994 14.1666C6.35654 14.1666 6.46314 14.1259 6.54455 14.0446L9.9999 10.5892L13.4553 14.0446C13.5367 14.1259 13.6433 14.1666 13.7499 14.1666C13.8565 14.1666 13.9631 14.1259 14.0445 14.0446C14.2073 13.8818 14.2073 13.6181 14.0445 13.4554L10.5891 10L14.0445 6.54461C14.2072 6.38184 14.2072 6.11817 14.0445 5.95539Z" fill="#AEAEAE"/>
</svg>
