<svg width="20" height="20" viewBox="0 0 20 20" fill="none" xmlns="http://www.w3.org/2000/svg">
<path d="M19.541 18.6996L13.8296 12.8897C14.9129 11.5293 15.565 9.79975 15.565 7.9167C15.565 3.55145 12.0737 0 7.78248 0C3.49122 0 0 3.55145 0 7.9167C0 12.2819 3.49126 15.8334 7.78252 15.8334C9.63366 15.8334 11.3339 15.17 12.6713 14.0681L18.3826 19.878C18.5427 20.0407 18.8019 20.0407 18.962 19.878L19.5411 19.2888C19.701 19.1261 19.701 18.8623 19.541 18.6996ZM7.78252 14.1667C4.39448 14.1667 1.63844 11.3632 1.63844 7.9167C1.63844 4.47025 4.39448 1.66668 7.78252 1.66668C11.1706 1.66668 13.9266 4.47025 13.9266 7.9167C13.9266 11.3632 11.1706 14.1667 7.78252 14.1667Z" fill="white"/>
</svg>
