<svg xmlns="http://www.w3.org/2000/svg" style="display:none"><defs><linearGradient id="a" x1="40.285" y1="25.905" x2="55" y2="25.905" gradientUnits="userSpaceOnUse"><stop offset=".3" stop-color="#00B4E6"/><stop offset="1" stop-color="#088CCB"/></linearGradient></defs><symbol id="adv-icon-01" viewBox="0 0 60 44"><path d="M20.04 33.944a3.226 3.226 0 0 0-3.223 3.223 3.226 3.226 0 0 0 3.223 3.223 3.226 3.226 0 0 0 3.223-3.223 3.226 3.226 0 0 0-3.223-3.223zm0 4.688a1.466 1.466 0 0 1-1.465-1.465c0-.808.657-1.465 1.465-1.465s1.465.657 1.465 1.465-.657 1.465-1.465 1.465zM47.402 33.944a3.226 3.226 0 0 0-3.223 3.223 3.226 3.226 0 0 0 3.223 3.223 3.226 3.226 0 0 0 3.222-3.223 3.226 3.226 0 0 0-3.222-3.223zm0 4.688a1.466 1.466 0 0 1-1.465-1.465c0-.808.657-1.465 1.465-1.465s1.465.657 1.465 1.465-.657 1.465-1.465 1.465zM8.32 14.023H4.023a.879.879 0 1 0 0 1.758H8.32a.879.879 0 1 0 0-1.758z" fill="#F78484"/><path d="M48.574 14.023h-3.777L45.935.955a.831.831 0 0 0 .002-.07V.879.878a.879.879 0 0 0-.53-.806L45.4.07a.878.878 0 0 0-.06-.022l-.023-.008c-.017-.005-.034-.01-.05-.013L45.23.017 45.185.01l-.043-.006h-.007c-.015-.002-.03-.002-.046-.002L45.06 0H27.072a.88.88 0 0 0 0 1.758H44.1L42.351 21.84v.005l-.441 5.067H11.37l.51-5.273h5.815a.879.879 0 1 0 0-1.758h-5.644l1.078-11.133h9.255a.879.879 0 1 0 0-1.757H13.3l.508-5.234h9.749a.88.88 0 0 0 0-1.758H13.009h-.001a.88.88 0 0 0-.858.694l-.002.008c-.005.022-.007.044-.01.067l-.003.021-.001.004-.6 6.198H.879a.879.879 0 1 0 0 1.757h10.484l-1.079 11.133H7.15a.879.879 0 1 0 0 1.758h2.965l-.587 6.06v.003l-.908 9.373v.003l-.001.004-.002.036-.002.048v.002c0 .023.001.045.003.068l.001.021a.852.852 0 0 0 .01.067l.004.02c.003.017.008.033.012.05l.01.035.003.01c.042.13.115.247.209.343l.005.005c.009.01.02.018.03.027.06.056.128.103.203.14.016.008.03.016.047.022l.015.006a.904.904 0 0 0 .067.024l.006.002a.915.915 0 0 0 .08.02l.01.001a.902.902 0 0 0 .077.012h.002a.856.856 0 0 0 .085.004H13.407c.432 3.276 3.24 5.813 6.633 5.813 3.392 0 6.2-2.537 6.632-5.813H40.77c.432 3.276 3.24 5.813 6.632 5.813 3.392 0 6.2-2.537 6.633-5.813H57.95c.03 0 .058-.001.087-.004l.015-.002a.888.888 0 0 0 .068-.01l.028-.007a.827.827 0 0 0 .129-.04l.035-.016a1.039 1.039 0 0 0 .142-.081l.035-.026.029-.023a.867.867 0 0 0 .035-.032l.024-.023.035-.039.018-.021a.982.982 0 0 0 .037-.049l.012-.017a.87.87 0 0 0 .04-.066l.003-.004a.839.839 0 0 0 .036-.075l.008-.023c.008-.018.015-.036.02-.055.005-.012.007-.025.01-.037l.012-.044.007-.04.006-.036c.037-.299.726-5.82 1.033-9.39v-.011c.09-1.03.146-1.896.146-2.427 0-6.3-5.126-11.425-11.426-11.425zm-3.93 1.758h3.595l-.459 5.272h-3.596l.46-5.273zM20.04 42.1a4.94 4.94 0 0 1-4.934-4.934 4.94 4.94 0 0 1 4.934-4.934 4.94 4.94 0 0 1 4.934 4.934 4.94 4.94 0 0 1-4.934 4.934zm27.362 0a4.94 4.94 0 0 1-4.934-4.934 4.94 4.94 0 0 1 4.934-4.934 4.94 4.94 0 0 1 4.934 4.934 4.94 4.94 0 0 1-4.934 4.934zm9.77-5.813h-3.137c-.432-3.276-3.24-5.813-6.633-5.813-3.392 0-6.2 2.537-6.632 5.813H26.672c-.431-3.276-3.24-5.813-6.632-5.813-3.392 0-6.2 2.537-6.632 5.813H10.46l.738-7.618h31.517c.03 0 .059-.001.088-.004l.016-.002a.914.914 0 0 0 .068-.01l.029-.008.052-.013.034-.012.044-.016.036-.016.039-.019.035-.02a1.059 1.059 0 0 0 .103-.07.99.99 0 0 0 .143-.142c.01-.013.02-.025.028-.038a1.08 1.08 0 0 0 .045-.07l.017-.03.02-.043.016-.034.016-.042.012-.038.01-.042c.004-.014.008-.027.01-.042l.007-.042.006-.043.001-.006.44-5.057h4.543c2.693 0 3.907 1.395 5.193 2.872 1.06 1.22 2.245 2.58 4.259 2.911-.256 2.703-.67 6.174-.854 7.694zm1.004-9.455c-1.306-.267-2.11-1.185-3.083-2.303-1.218-1.399-2.704-3.106-5.553-3.424l.455-5.22c4.66.689 8.247 4.714 8.247 9.563 0 .329-.024.807-.066 1.384z" fill="#F78484"/></symbol><symbol id="adv-icon-02" viewBox="0 0 60 40"><path d="M53.75 0H6.25A6.257 6.257 0 0 0 0 6.25v27.5A6.257 6.257 0 0 0 6.25 40h47.5A6.257 6.257 0 0 0 60 33.75V6.25A6.257 6.257 0 0 0 53.75 0zm3.75 33.75a3.755 3.755 0 0 1-3.75 3.75H6.25a3.755 3.755 0 0 1-3.75-3.75V6.25A3.755 3.755 0 0 1 6.25 2.5h47.5a3.754 3.754 0 0 1 3.75 3.75v27.5z" fill="#F78484"/><path d="M18.75 25h-10a1.25 1.25 0 0 0 0 2.5h10a1.25 1.25 0 0 0 0-2.5zM26.25 30H8.75a1.25 1.25 0 0 0 0 2.5h17.5a1.25 1.25 0 0 0 0-2.5zM27.675 5.57c-1.463-.437-3.093.13-4.015 1.373a3.631 3.631 0 0 0-.59 3.232C24.79 15.96 30.21 20 36.25 20c.69 0 1.25-.56 1.25-1.25 0-6.04-4.04-11.46-9.825-13.18zm-2.21 3.893a1.141 1.141 0 0 1 .197-1.026c.243-.324.61-.52.98-.52.105 0 .213.018.318.048 4.305 1.28 7.427 5.065 7.957 9.455-4.392-.533-8.172-3.655-9.452-7.957z" fill="#F78484"/><path d="M48.84 6.943c-.925-1.24-2.553-1.81-4.015-1.373C39.04 7.29 35 12.71 35 18.75c0 .69.56 1.25 1.25 1.25 6.04 0 11.46-4.04 13.18-9.825a3.633 3.633 0 0 0-.59-3.232zm-1.808 2.52c-1.277 4.305-5.06 7.427-9.452 7.957.53-4.393 3.655-8.175 7.958-9.455.107-.03.215-.047.32-.047.37 0 .737.195.977.52.135.18.34.552.197 1.025z" fill="#F78484"/><path d="M36.25 0C35.56 0 35 .56 35 1.25v37.5a1.25 1.25 0 0 0 2.5 0V1.25C37.5.56 36.94 0 36.25 0z" fill="#F78484"/><path d="M37.133 17.868a1.251 1.251 0 0 0-1.768 0l-7.5 7.5a1.25 1.25 0 0 0 1.768 1.767l7.5-7.5a1.25 1.25 0 0 0 0-1.767z" fill="#F78484"/><path d="M44.633 25.368l-7.5-7.5a1.251 1.251 0 0 0-1.768 1.767l7.5 7.5a1.256 1.256 0 0 0 1.768 0 1.25 1.25 0 0 0 0-1.767z" fill="#F78484"/><path d="M58.75 17.5H1.25a1.25 1.25 0 0 0 0 2.5h57.5a1.25 1.25 0 0 0 0-2.5z" fill="#F78484"/></symbol><symbol id="adv-icon-03" viewBox="0 0 47 53"><path d="M46.127 10.731L23.577.117a1.251 1.251 0 0 0-1.068.005L.583 10.737c-.36.174-.583.507-.583.87V25.47C.013 36.87 7.658 47.18 19.48 51.746l3.043 1.171c.285.11.608.11.893.002l3.43-1.309c12.041-4.467 19.875-14.877 19.876-26.414v-13.59c0-.366-.229-.703-.595-.875zm-1.65 14.465c-.003 10.741-7.298 20.433-18.51 24.59l-.008.003-2.986 1.139-2.595-1C9.374 45.678 2.258 36.081 2.245 25.472V12.193L23.056 2.118l21.42 10.083v12.995z" fill="#F78484"/><path d="M14.773 24.828c-.402-.416-1.111-.465-1.583-.11-.472.356-.527.982-.124 1.398l5.93 6.135c.396.41 1.09.465 1.562.125l13.811-9.925c.481-.346.554-.97.163-1.396-.391-.424-1.099-.489-1.58-.143l-12.96 9.314-5.219-5.398z" fill="#F78484"/></symbol><symbol id="adv-icon-04" viewBox="0 0 58 60"><path d="M54.796 30.777a1.758 1.758 0 0 1 0-1.554l2.238-4.578a5.208 5.208 0 0 0-2.247-6.916l-4.501-2.389a1.758 1.758 0 0 1-.914-1.257l-.88-5.02a5.209 5.209 0 0 0-5.884-4.274l-5.045.714a1.759 1.759 0 0 1-1.478-.48L32.422 1.48a5.208 5.208 0 0 0-7.272 0l-3.662 3.543a1.759 1.759 0 0 1-1.479.48l-5.045-.714A5.208 5.208 0 0 0 9.08 9.064l-.88 5.019c-.095.541-.428 1-.913 1.257L2.786 17.73a5.209 5.209 0 0 0-2.248 6.916l2.238 4.578c.241.494.241 1.06 0 1.555L.538 35.355a5.209 5.209 0 0 0 2.247 6.917l4.502 2.388c.485.258.818.716.913 1.258l.88 5.019a5.205 5.205 0 0 0 5.884 4.274l5.045-.713a1.758 1.758 0 0 1 1.479.48l3.662 3.543A5.213 5.213 0 0 0 28.786 60a5.215 5.215 0 0 0 3.636-1.48l3.663-3.543a1.76 1.76 0 0 1 1.478-.48l5.045.713a5.208 5.208 0 0 0 5.884-4.274l.88-5.02c.095-.54.428-.999.914-1.257l4.5-2.388a5.209 5.209 0 0 0 2.248-6.917l-2.238-4.578zm-1.631 8.438l-4.501 2.388a5.197 5.197 0 0 0-2.7 3.717l-.88 5.019a1.762 1.762 0 0 1-1.991 1.446l-5.046-.714a5.195 5.195 0 0 0-4.368 1.42l-3.663 3.542c-.69.668-1.77.668-2.46 0l-3.662-3.543a5.192 5.192 0 0 0-4.37-1.419l-5.045.714c-.95.134-1.824-.501-1.99-1.447l-.88-5.019a5.196 5.196 0 0 0-2.7-3.716l-4.502-2.388a1.762 1.762 0 0 1-.76-2.34l2.238-4.578a5.197 5.197 0 0 0 0-4.594l-2.238-4.578a1.762 1.762 0 0 1 .76-2.34l4.501-2.388a5.197 5.197 0 0 0 2.7-3.716l.88-5.02a1.762 1.762 0 0 1 1.991-1.445l5.046.713a5.197 5.197 0 0 0 4.368-1.42l3.663-3.542a1.762 1.762 0 0 1 2.46 0l3.662 3.543a5.196 5.196 0 0 0 4.37 1.42l5.044-.714c.95-.135 1.825.5 1.991 1.446l.88 5.019a5.196 5.196 0 0 0 2.7 3.716l4.502 2.388a1.762 1.762 0 0 1 .76 2.34l-2.238 4.578a5.196 5.196 0 0 0 0 4.594l2.238 4.578c.422.862.088 1.89-.76 2.34z" fill="#F78484"/><path d="M41.429 17.358a1.73 1.73 0 0 0-2.447 0L16.144 40.196a1.73 1.73 0 0 0 2.446 2.447L41.43 19.805a1.73 1.73 0 0 0 0-2.447zM35.707 32.884a6.352 6.352 0 0 0-6.344 6.344 6.352 6.352 0 0 0 6.344 6.345 6.352 6.352 0 0 0 6.344-6.345 6.352 6.352 0 0 0-6.344-6.344zm0 9.228a2.887 2.887 0 0 1-2.884-2.884 2.887 2.887 0 0 1 2.884-2.883 2.887 2.887 0 0 1 2.884 2.883 2.887 2.887 0 0 1-2.884 2.884zM21.865 14.428a6.352 6.352 0 0 0-6.344 6.344 6.352 6.352 0 0 0 6.344 6.345 6.352 6.352 0 0 0 6.344-6.345 6.352 6.352 0 0 0-6.344-6.344zm0 9.228a2.887 2.887 0 0 1-2.884-2.884 2.887 2.887 0 0 1 2.884-2.884 2.887 2.887 0 0 1 2.884 2.884 2.887 2.887 0 0 1-2.884 2.884z" fill="#F78484"/></symbol><symbol id="adv-icon-05" viewBox="0 0 60 50"><path d="M47.11 14.063a1.172 1.172 0 1 0 0 2.344 1.172 1.172 0 0 0 0-2.345z" fill="#F78484"/><path d="M56.484 9.375h-12.87L39.9 1.944A3.497 3.497 0 0 0 36.755 0h-13.51c-1.34 0-2.545.745-3.144 1.944l-3.716 7.431h-2.323V8.203a3.52 3.52 0 0 0-3.515-3.515H8.203a3.52 3.52 0 0 0-3.515 3.515v1.172H3.516A3.52 3.52 0 0 0 0 12.891v32.812a3.52 3.52 0 0 0 3.516 3.516h52.968A3.52 3.52 0 0 0 60 45.703V12.891a3.52 3.52 0 0 0-3.516-3.516zM22.197 2.992c.2-.4.602-.648 1.048-.648h13.51c.446 0 .848.248 1.048.648l3.192 6.383h-21.99l3.192-6.383zM7.031 8.203c0-.646.526-1.172 1.172-1.172h2.344c.646 0 1.172.526 1.172 1.172v1.172H7.03V8.203zM2.344 21.082h14.818a15.24 15.24 0 0 0-2.396 8.215c0 2.93.839 5.77 2.396 8.203H2.344V21.082zM30 16.406c7.047 0 12.89 5.71 12.89 12.89 0 7.174-5.835 12.892-12.89 12.892-7.061 0-12.89-5.724-12.89-12.891 0-7.173 5.834-12.89 12.89-12.89zm27.656 29.297c0 .646-.526 1.172-1.172 1.172H3.516a1.173 1.173 0 0 1-1.172-1.172v-5.86H19.01A15.244 15.244 0 0 0 30 44.532c4.152 0 8.127-1.703 10.99-4.687h16.666v5.86zm0-8.203H42.838a15.2 15.2 0 0 0 2.396-8.203c0-2.93-.839-5.77-2.396-8.203h14.818V37.5zm0-18.75H40.99A15.244 15.244 0 0 0 30 14.062a15.245 15.245 0 0 0-10.99 4.688H2.345v-5.86c0-.646.525-1.171 1.172-1.171h52.968c.646 0 1.172.526 1.172 1.172v5.859z" fill="#F78484"/><path d="M33.516 4.688h-7.032a1.172 1.172 0 1 0 0 2.343h7.032a1.172 1.172 0 0 0 0-2.343zM30 18.75c-5.816 0-10.547 4.731-10.547 10.547 0 5.815 4.732 10.547 10.547 10.547 5.816 0 10.547-4.732 10.547-10.547 0-5.816-4.731-10.547-10.547-10.547zm0 18.75c-4.523 0-8.203-3.68-8.203-8.203s3.68-8.203 8.203-8.203 8.203 3.68 8.203 8.203S34.523 37.5 30 37.5z" fill="#F78484"/><path d="M30 23.438a5.866 5.866 0 0 0-5.86 5.859 1.172 1.172 0 0 0 2.344 0A3.52 3.52 0 0 1 30 25.78a1.172 1.172 0 0 0 0-2.343zM54.14 14.063h-2.343a1.172 1.172 0 0 0 0 2.343h2.344a1.172 1.172 0 0 0 0-2.343z" fill="#F78484"/></symbol><symbol id="adv-icon-06" viewBox="0 0 60 60"><path d="M30 0C13.458 0 0 13.458 0 30s13.458 30 30 30 30-13.458 30-30S46.542 0 30 0zm0 57.818C14.661 57.818 2.182 45.338 2.182 30 2.182 14.66 14.662 2.182 30 2.182 45.34 2.182 57.818 14.661 57.818 30c0 15.338-12.48 27.818-27.818 27.818z" fill="#F78484"/><path d="M30 7.064c-12.403 0-22.513 9.902-22.9 22.213-.01.061-.036.117-.036.181 0 .039.018.071.022.109-.003.145-.022.287-.022.433 0 12.647 10.289 22.936 22.936 22.936S52.936 42.646 52.936 30 42.646 7.064 30 7.064zM45.104 44.19l-2.635-2.55a1.09 1.09 0 1 0-1.517 1.568l2.578 2.495a20.642 20.642 0 0 1-12.395 4.993v-3.329a1.091 1.091 0 1 0-2.182 0v3.334a20.638 20.638 0 0 1-12.46-4.977l2.085-2.153a1.09 1.09 0 1 0-1.567-1.517l-2.092 2.16A20.652 20.652 0 0 1 9.275 30.55h3.855a1.09 1.09 0 1 0 0-2.183H9.33a20.64 20.64 0 0 1 4.53-11.385l2.788 2.698a1.09 1.09 0 0 0 1.517-1.569l-2.85-2.76A20.679 20.679 0 0 1 28.954 9.3v3.244a1.09 1.09 0 1 0 2.181 0v-3.24a20.642 20.642 0 0 1 12.58 5.161l-2.485 2.568A1.091 1.091 0 1 0 42.8 18.55l2.473-2.554a20.643 20.643 0 0 1 5.399 12.371h-3.712a1.09 1.09 0 1 0 0 2.183h3.767a20.655 20.655 0 0 1-5.622 13.64z" fill="#F78484"/><path d="M34.024 24.387a4.08 4.08 0 0 0-4.076 4.077v3.98a4.08 4.08 0 0 0 4.076 4.075 4.08 4.08 0 0 0 4.076-4.076v-3.98a4.081 4.081 0 0 0-4.076-4.076zm1.894 8.056c0 1.045-.85 1.894-1.894 1.894a1.895 1.895 0 0 1-1.894-1.894v-3.98c0-1.044.85-1.894 1.894-1.894s1.894.85 1.894 1.895v3.98zM25.069 28.367h-1.894v-.817c0-1.985 1.615-3.6 3.6-3.6a1.091 1.091 0 1 0 0-2.182 5.788 5.788 0 0 0-5.782 5.782v4.893a4.07 4.07 0 0 0 4.083 4.075c.24 0 .482-.02.723-.063 1.644-.289 2.993-1.638 3.282-3.282a4.088 4.088 0 0 0-.89-3.35 4.066 4.066 0 0 0-3.122-1.456zm1.863 4.428a1.917 1.917 0 0 1-1.51 1.511 1.896 1.896 0 0 1-2.247-1.863V30.55h1.894c.561 0 1.09.246 1.45.676.368.437.513.994.413 1.57z" fill="#F78484"/></symbol><symbol id="adv-icon-07" viewBox="0 0 40 42"><path d="M18.613 9.863c.03-.002 2.879-.18 4.053.722l.013.008a4.806 4.806 0 0 0 3.083 1.116 4.825 4.825 0 0 0 3.042-1.083l.023-.015c1.305-.961 4.458-.75 4.49-.748a.353.353 0 0 0 .373-.293c.512-3.017-.638-5.616-3.325-7.514-1.964-1.388-4.04-1.913-4.19-1.95A3.594 3.594 0 0 0 25.402 0c-.7 0-1.162.326-1.492.667a2.092 2.092 0 0 0-2.145.48c-.127.109-1.21 1.051-2.178 2.504-1.355 2.032-1.818 4.089-1.34 5.948a.354.354 0 0 0 .366.264zm3.028-2.983c0-1.133.462-2.203 1.276-2.98 1.234 1.184 3.806 3.344 6.809 4.111a4.135 4.135 0 0 1-3.964 2.99 4.126 4.126 0 0 1-4.12-4.12zm.59-5.2a1.39 1.39 0 0 1 1.617-.274.353.353 0 0 0 .426-.089h.001c.366-.433.693-.61 1.127-.61.143 0 .441.042.59.083l.011.003c.02.005 2.068.508 3.954 1.84 2.39 1.69 3.427 3.878 3.082 6.509-.613-.021-1.97-.025-3.167.272.238-.384.423-.805.546-1.253a8.352 8.352 0 0 0 1.245.127.354.354 0 0 0 .01-.707c-4.658-.122-8.96-4.895-9.004-4.943a.354.354 0 0 0-.528.47c.024.026.118.131.275.294a4.814 4.814 0 0 0-1.482 3.478 4.8 4.8 0 0 0 .705 2.51c-1.061-.257-2.229-.262-2.77-.246-.78-3.921 3.32-7.428 3.362-7.464z" fill="#F78484"/><path d="M39.797 11.989c-.16-.443-.536-1.48-1.572-1.106-.149.054-.317.14-.49.248.044-.2.068-.388.068-.546 0-1.103-1.103-1.103-1.574-1.103-.471 0-1.574 0-1.574 1.103 0 .148.02.321.058.506a2.588 2.588 0 0 0-.456-.233c-.53-.199-.882-.005-1.084.194-.23.225-.376.563-.5.893-.123.332-.235.682-.21 1.003.023.282.16.66.691.858.14.053.314.095.504.124a2.595 2.595 0 0 0-.385.352c-.721.833.113 1.555.47 1.864.233.203.675.584 1.155.584.25 0 .51-.103.756-.388.073-.085.147-.189.22-.306v3.69l-5.908-6.088c-.036-.039.038.037 0 0-1.03-1.021-2.578-1.693-4.204-1.693-1.604 0-3.101.62-4.129 1.613a.345.345 0 0 0-.06.05l-6.135 6.32c-.818.841-.8 2.19.04 3.01a2.129 2.129 0 0 0 2.698.222l-.27.92h-6.6c-.998-2.106-.993-4.155.016-6.261a.354.354 0 0 0-.48-.466v-.001c-.89.464-1.77.723-2.648.777v-2.424c.057.09.115.171.172.24.26.309.539.4.777.4.095 0 .184-.015.263-.036.31-.084.604-.306.874-.533.271-.227.54-.478.676-.77.12-.256.185-.652-.18-1.086a2.623 2.623 0 0 0-.387-.364c.196-.027.375-.068.52-.12.533-.193.675-.57.7-.85.029-.322-.079-.673-.199-1.005-.16-.443-.535-1.48-1.572-1.106-.148.054-.316.14-.489.248.044-.2.068-.388.068-.546 0-1.103-1.103-1.103-1.574-1.103-.471 0-1.575 0-1.575 1.103 0 .148.021.321.06.506a2.596 2.596 0 0 0-.457-.233c-.53-.199-.883-.005-1.084.194-.23.225-.376.563-.5.893-.124.332-.235.682-.21 1.003.022.282.16.66.69.858.142.053.315.095.505.124a2.593 2.593 0 0 0-.385.352c-.721.833.113 1.555.469 1.864.234.203.676.585 1.156.584.25 0 .509-.103.756-.388.073-.085.147-.189.22-.306v2.5c-.878-.055-1.757-.315-2.646-.779l-.002.004a.352.352 0 0 0-.48.466c1.009 2.107 1.014 4.155.016 6.26h-3.19C.532 24.08 0 24.613 0 25.266v14.888c0 .654.532 1.186 1.186 1.186H38.41c.654 0 1.186-.532 1.186-1.186V25.265c0-.653-.532-1.185-1.186-1.185h-4.794l-.266-.908a2.126 2.126 0 0 0 2.681-.235 2.13 2.13 0 0 0 .548-2.152l.002-.02v-4.652c.056.09.114.171.171.24.26.31.54.4.777.4.095 0 .184-.015.263-.036.31-.084.604-.306.875-.533.27-.227.54-.478.675-.77.12-.256.186-.652-.18-1.086a2.623 2.623 0 0 0-.387-.364c.196-.027.375-.068.52-.12.533-.193.675-.57.7-.85.029-.322-.078-.673-.198-1.005zm-3.57 1.85a.564.564 0 0 1-.09-.008h-.005a.563.563 0 0 1-.456-.445v-.005a.562.562 0 1 1 1.084.074l-.001.002a.562.562 0 0 1-.532.382zm.002-3.65c.867 0 .867.175.867.396 0 .347-.2 1.045-.493 1.48a1.264 1.264 0 0 0-.75 0c-.292-.436-.491-1.134-.491-1.48 0-.221 0-.395.867-.395zm-3.06 2.704c-.015-.184.076-.457.167-.7.09-.242.201-.507.333-.637.063-.062.137-.112.34-.036.326.122.911.555 1.216.982a1.26 1.26 0 0 0-.263.7c-.51.121-1.235.063-1.56-.058-.203-.076-.226-.162-.233-.251zm1.95 2.986c-.145.167-.259.299-.914-.268-.655-.568-.541-.7-.397-.866.227-.263.837-.66 1.343-.798.134.215.33.387.565.49-.064.521-.37 1.18-.597 1.442zm-5.632-1.72c.005.006-.006-.007 0 0 .383.429.8 1.06.953 1.602l3.514 11.985H17.568l1.586-5.409h9.338a.353.353 0 1 0 0-.707H19.38l-.019.002 1.723-5.875c.507-1.799 2.474-3.105 4.678-3.105 1.426 0 2.827.628 3.725 1.506zm-8.33 15.961H24.6c-.003.018-.005.035-.005.053v8.6c0 .945-.77 1.715-1.715 1.715-.946 0-1.716-.77-1.716-1.715v-8.6c0-.018-.003-.035-.005-.053zm4.144 8.653v-8.6c0-.018-.003-.035-.005-.053h.93c-.002.018-.005.035-.005.053v8.6c0 .746.34 1.414.872 1.859H24.43a2.419 2.419 0 0 0 .871-1.86zm3.343 1.715c-.946 0-1.716-.77-1.716-1.715v-8.6c0-.018-.002-.035-.005-.053h3.441c-.002.018-.005.035-.005.053v8.6c0 .945-.77 1.715-1.715 1.715zM17.08 29.413l.282-.962.021.002h16.778l.281.96H17.08zm.9-7.01a1.422 1.422 0 0 1-2.008.027 1.422 1.422 0 0 1-.027-2.008l4.348-4.48-1.71 5.83-.603.632zM7.29 12.979v-.005a.562.562 0 1 1 1.084.075l-.002.001a.562.562 0 0 1-1.082-.07zm3.025 1.73c-.078.167-.291.36-.49.527-.198.166-.425.343-.603.39-.086.024-.175.03-.314-.135-.223-.266-.52-.93-.576-1.45.236-.1.435-.27.574-.482.504.145 1.106.551 1.33.817.139.166.116.252.079.333zm-.236-3.568c.207-.075.371-.134.666.681.088.244.176.517.16.701-.008.089-.032.175-.237.248-.326.119-1.052.168-1.561.04a1.26 1.26 0 0 0-.254-.702c.31-.424.9-.85 1.226-.968zM7.842 9.782c.867 0 .867.174.867.395 0 .347-.2 1.045-.492 1.48a1.264 1.264 0 0 0-.75 0c-.292-.436-.491-1.134-.491-1.48 0-.22 0-.395.866-.395zm-3.06 2.703c-.014-.184.077-.457.168-.7.09-.242.2-.507.333-.637.063-.062.137-.112.34-.036.326.122.91.555 1.216.982a1.26 1.26 0 0 0-.263.7c-.51.121-1.235.063-1.56-.058-.204-.076-.227-.162-.234-.251zm1.95 2.986c-.144.167-.258.299-.913-.268-.656-.567-.541-.7-.397-.866.227-.263.836-.66 1.343-.798.134.215.33.387.564.49-.063.521-.37 1.18-.596 1.442zm-1.38 2.886a6.826 6.826 0 0 0 2.489.483c.83 0 1.662-.16 2.49-.483-.687 1.903-.62 3.823.199 5.723H5.152c.819-1.9.885-3.82.2-5.723zM.706 40.153v-1.06h15.651a.354.354 0 1 0 0-.708H.708v-9.528h7.168a.354.354 0 1 0 0-.708H.707v-2.884c0-.264.215-.478.479-.478h16.513l-1.43 4.88a.354.354 0 0 0 .338.453h3.854a.341.341 0 0 0-.005.053v8.6c0 .746.34 1.414.872 1.859H1.186a.48.48 0 0 1-.479-.479zM38.41 24.787c.264 0 .479.215.479.478v12.787h-6.292a.353.353 0 1 0 0 .707h6.291v1.394a.479.479 0 0 1-.478.479h-8.215a2.418 2.418 0 0 0 .871-1.86v-8.599a.341.341 0 0 0-.005-.053h3.854a.353.353 0 0 0 .339-.453l-1.43-4.88h4.586zm-2.872-2.356a1.421 1.421 0 0 1-2.006-.024l-.587-.615-1.709-5.83 4.328 4.46a1.422 1.422 0 0 1-.026 2.009zm3.163-7.315c-.078.167-.291.36-.49.527-.198.166-.424.343-.603.39-.086.024-.174.03-.314-.136-.223-.265-.52-.928-.575-1.45.236-.1.435-.269.573-.482.504.145 1.106.552 1.33.818.139.166.117.252.08.333zm.59-2.186c-.008.089-.032.175-.236.248-.327.118-1.053.168-1.562.04a1.26 1.26 0 0 0-.254-.703c.31-.423.9-.849 1.226-.967.208-.075.372-.134.666.681.088.244.176.517.16.701z" fill="#F78484"/></symbol><symbol id="adv-icon-08" viewBox="0 0 34 40"><path d="M8.387 36.129H3.871a.645.645 0 0 0 0 1.29h4.516a.645.645 0 0 0 0-1.29zM10.968 36.129h-.645a.645.645 0 0 0 0 1.29h.645a.645.645 0 0 0 0-1.29z" fill="#F78484"/><path d="M24.839 9.677c-.541 0-1.081.05-1.613.15V3.226A3.229 3.229 0 0 0 20 0H3.226A3.229 3.229 0 0 0 0 3.226v33.548A3.229 3.229 0 0 0 3.226 40H20a3.229 3.229 0 0 0 3.226-3.226v-9.677s1.847-.003 1.96-.008a8.71 8.71 0 0 0-.347-17.412zM15.987 1.29L15.6 3.226H7.626L7.239 1.29h8.748zm5.949 35.484A1.938 1.938 0 0 1 20 38.71H3.226a1.938 1.938 0 0 1-1.936-1.936V3.226A1.938 1.938 0 0 1 3.226 1.29h2.697l.542 2.708a.644.644 0 0 0 .632.518h9.032a.645.645 0 0 0 .632-.518l.542-2.708H20a1.938 1.938 0 0 1 1.936 1.936v6.95a8.726 8.726 0 0 0-5.807 8.211 8.617 8.617 0 0 0 2.085 5.656l-3.664 1.831a.645.645 0 0 0 .289 1.223h7.097v9.677zm8.246-13.24a7.384 7.384 0 0 1-5.05 2.266c-.097.004-7.56.006-7.56.006l1.997-.998a.647.647 0 0 0 .156-1.045 7.42 7.42 0 1 1 10.457-.228z" fill="#F78484"/><path d="M25.161 16.129a1.935 1.935 0 1 0 0 3.87 1.935 1.935 0 0 0 0-3.87zm0 2.58a.645.645 0 1 1 0-1.29.645.645 0 0 1 0 1.29zM20.645 16.129a1.935 1.935 0 1 0 0 3.87 1.935 1.935 0 0 0 0-3.87zm0 2.58a.645.645 0 1 1 0-1.29.645.645 0 0 1 0 1.29zM29.677 16.129a1.935 1.935 0 1 0 0 3.87 1.935 1.935 0 0 0 0-3.87zm0 2.58a.645.645 0 1 1 0-1.29.645.645 0 0 1 0 1.29z" fill="#F78484"/></symbol><symbol id="adv-icon-09" viewBox="0 0 40 40"><path d="M2.196 21.936L.403 23.912a.667.667 0 0 0 .375 1.104c.805.129 1.618.191 2.433.187 1.44.016 2.872-.205 4.24-.653a2 2 0 0 0 .622 1.821l2.466 2.24a1.333 1.333 0 0 0 1.884-.091l.243-.267v9.742a2 2 0 0 0 2 2h20.001a2 2 0 0 0 2-2V21.33c0-.737-.597-1.333-1.333-1.333H20.16l7.496-8.261a1.333 1.333 0 0 0-.09-1.884L25.1 7.612a2 2 0 0 0-1.88-.44 14.832 14.832 0 0 0-.177-6.688.667.667 0 0 0-1.133-.267l-1.794 1.974L18.141.398a.667.667 0 0 0-1.11.416l-.39 3.317a8.83 8.83 0 0 0-3.682.4c-.38.124-.716.355-.968.666a6.637 6.637 0 0 0-.81 6.89 6.635 6.635 0 0 0-6.778 1.473c-.285.28-.481.637-.567 1.027a8.794 8.794 0 0 0-.044 3.704L.525 19a.667.667 0 0 0-.306 1.145l1.977 1.791zm9.242 5.687l-2.466-2.24a.666.666 0 0 1-.046-.941l1.789-1.971v-.003l2.24-2.471 2.963 2.688-4.48 4.938zm1.382-10.448a2 2 0 0 1-.137-2.825l.896-.988a2 2 0 0 1 2.825-.137l.493.448-3.584 3.949-.493-.447zm-1.977-1.27c.011.136.031.272.06.407-1.001.164-2.028.055-2.971-.315a4.782 4.782 0 0 1 2.91-.093zm4.518-4.508a3.441 3.441 0 0 0-.417-.02 4.796 4.796 0 0 1-.18-2.902c.46.901.667 1.912.597 2.922zm1.453 10.3l-2.961-2.688 4.48-4.936 2.961 2.688-4.48 4.936zm18.52 16.298a.667.667 0 0 1-.667.667h-6.666V21.33h7.333v16.665zM26.668 21.33v17.332h-4V21.33h4zm-5.333 0v17.332h-6.667a.667.667 0 0 1-.666-.667V26.783l4.949-5.453h2.384zM23.26 8.646a.667.667 0 0 1 .941-.049l2.467 2.242-4.48 4.936-2.96-2.687 2.24-2.466v-.004l1.792-1.972zm-5.058-6.39l1.509 1.37a.667.667 0 0 0 .942-.045l1.358-1.497c.283 1.795.484 5.145-1.334 7.395a11.499 11.499 0 0 0-.43-2.992 2.8 2.8 0 0 0-1.55-1.795 6.644 6.644 0 0 0-.75-.283l.255-2.153zm-5.167 3.772a.737.737 0 0 1 .347-.23 6.758 6.758 0 0 1 4.768.108c.398.177.696.52.816.939.449 1.432.49 2.961.12 4.416l-1.293 1.424-.493-.448a3.326 3.326 0 0 0-.639-.445 7.17 7.17 0 0 0-1.227-4.811.83.83 0 0 0-.75-.384.945.945 0 0 0-.785.5 5.667 5.667 0 0 0-.26 4.589c-.33.16-.632.376-.892.636-.66-1.212-1.66-3.845.288-6.294zm-7.9 8.857a.733.733 0 0 1 .195-.367c2.25-2.177 4.968-1.436 6.241-.897a3.317 3.317 0 0 0-.545.954 5.652 5.652 0 0 0-4.55.701.964.964 0 0 0-.417.823c.013.298.18.568.442.712a7.69 7.69 0 0 0 3.524.919c.47 0 .937-.053 1.394-.16.144.217.313.416.504.593l.494.448-1.292 1.424a8.066 8.066 0 0 1-4.407.308 1.467 1.467 0 0 1-1.014-.72 6.754 6.754 0 0 1-.568-4.738zm-.94 4.683c.104.246.222.486.355.718a2.8 2.8 0 0 0 1.933 1.368c.687.123 1.383.186 2.08.188.305 0 .622-.019.943-.05-2.059 2.021-5.415 2.15-7.233 2.041l1.356-1.494a.667.667 0 0 0-.043-.943l-1.51-1.368 2.12-.46z" fill="#F78484"/><path d="M33.334 25.33a.667.667 0 0 0 .666-.667v-1.334a.667.667 0 0 0-1.333 0v1.334c0 .368.299.666.667.666zM33.334 37.329a.667.667 0 0 0 .666-.667v-9.333a.667.667 0 0 0-1.333 0v9.333c0 .368.299.667.667.667zM16.002 37.329a.667.667 0 0 0 .666-.667v-9.333a.667.667 0 1 0-1.333 0v9.333c0 .368.298.667.667.667zM27.806 15.525a.667.667 0 0 0-.943.943l.195.195-.195.196a.667.667 0 1 0 .943.942l.195-.195.195.195a.667.667 0 0 0 .943-.942l-.195-.196.195-.195a.667.667 0 0 0-.943-.943l-.195.196-.195-.196zM35.53 14.859l-.196.195-.195-.195a.667.667 0 0 0-.943.942l.195.196-.195.195a.667.667 0 1 0 .943.943l.195-.196.195.196a.667.667 0 0 0 .943-.943l-.196-.195.196-.196a.667.667 0 0 0-.943-.942zM39.805 9.526a.667.667 0 0 0-.943 0l-.195.195-.195-.195a.667.667 0 0 0-.943.942l.195.196-.195.195a.666.666 0 1 0 .943.943l.195-.196.195.196a.667.667 0 0 0 .943-.943l-.196-.195.196-.196a.666.666 0 0 0 0-.942zM30.863 13.135c.26.26.682.26.942 0l.196-.195.195.195a.667.667 0 0 0 .943-.943l-.196-.195.196-.195a.667.667 0 0 0-.943-.943l-.195.195-.196-.195a.667.667 0 0 0-.942.943l.195.195-.195.195a.667.667 0 0 0 0 .943zM33.53 7.802c.26.26.681.26.942 0l.195-.195.195.195a.667.667 0 0 0 .943-.943l-.195-.195.195-.195a.667.667 0 0 0-.943-.943l-.195.195-.195-.195a.667.667 0 0 0-.943.943l.195.195-.195.195a.667.667 0 0 0 0 .943z" fill="#F78484"/></symbol><symbol id="adv-icon-10" viewBox="0 0 40 40"><path d="M30.286 36.251a.781.781 0 0 0-1.067-.283l-.03.017a.781.781 0 0 0 .784 1.352l.03-.018a.781.781 0 0 0 .283-1.068z" fill="#F78484"/><path d="M37.32 10.006A19.864 19.864 0 0 0 25.179.69a19.864 19.864 0 0 0-15.173 1.997A19.864 19.864 0 0 0 .69 14.83 19.865 19.865 0 0 0 2.687 30 19.99 19.99 0 0 0 20.017 40c2.427 0 4.85-.441 7.14-1.321a.781.781 0 1 0-.561-1.459C20.5 39.564 13.902 38.5 8.972 34.799l.7-3.653.337-.11a2.433 2.433 0 0 0 1.56-3.062l-.247-.762a.863.863 0 0 1 0-.538A2.431 2.431 0 0 0 9.48 23.53l-1.764-.345L4.314 20.6a.782.782 0 0 0-.714-.122l-1.992.647a18.419 18.419 0 0 1-.003-2.133c.079.073.13.123.162.156a.786.786 0 0 0 .143.176c.163.148.31.215.62.215.284 0 .705-.056 1.4-.16.659-.096 1.315-.206 1.321-.207a.781.781 0 0 0 .516-1.21l-.958-1.406 1.372-.98a.782.782 0 0 0 .224-.248l2.127-3.713.857-.919a3.3 3.3 0 0 0 .637-3.5A3.593 3.593 0 0 0 8.603 5.52a18.485 18.485 0 0 1 2.184-1.48 18.318 18.318 0 0 1 9.003-2.463l-1.395 1.75-5.173 1.813a.781.781 0 0 0-.464.44l-1.444 3.502a.781.781 0 0 0 .086.751l2.11 2.956c-.302.276-.596.677-.948 1.176-.154.219-.3.425-.4.54-.087.102-.175.2-.262.298-.453.51-.923 1.038-1.256 1.744-.733 1.551-.585 3.354.386 4.706.94 1.306 2.488 1.97 4.14 1.776.27-.031.52-.093.764-.154.67-.165.881-.182 1.096.02.105.097.114.116.112.448-.001.21-.003.474.07.774.117.48.418.811.66 1.078.12.133.245.27.284.361.243.584.137.908-.095 1.616l-.061.186c-.353 1.094.14 2.178.574 3.135.14.31.274.604.361.863.703 2.084 1.23 2.562 1.652 2.754.221.1.45.145.681.145 1.127 0 2.302-1.046 2.842-1.709.339-.416.422-.833.483-1.137.03-.152.055-.271.1-.35.07-.119.152-.212.256-.329.21-.236.47-.53.64-1.061.128-.404.22-.503.53-.832l.172-.185c1.04-1.133.773-1.997.489-2.913-.24-.77.179-1.264 1.189-2.204.438-.408.89-.83 1.24-1.336.153-.222.62-.896.33-1.565-.282-.655-1-.765-1.577-.854-.228-.035-.572-.088-.682-.16-.483-.315-.779-.975-1.065-1.613-.057-.127-.113-.252-.17-.374-.102-.217-.203-.48-.31-.757-.285-.736-.607-1.57-1.155-2.15-.493-.523-1.422-.775-2.242-.997a9.603 9.603 0 0 1-.708-.208.78.78 0 0 0-.448-.028c-.4.094-.648.197-.833.345a.97.97 0 0 0-.278.374c-.286-.137-.68-.4-.922-.56l-.015-.01a1.107 1.107 0 0 0-.07-.753c-.436-.923-1.884-.85-2.17-.826-.163.013-.368.02-.585.028-.342.012-.719.026-1.092.068l.02-.054a1.997 1.997 0 0 1 1.875-1.32h.444a.781.781 0 0 0 0-1.562h-.444a3.566 3.566 0 0 0-3.024 1.687l-1.165-1.632 1.146-2.78 5.055-1.771a.781.781 0 0 0 .352-.25l2.248-2.82c5.741.547 11.146 3.766 14.243 9.13a18.233 18.233 0 0 1 1.84 4.472l-.33.295a2.087 2.087 0 0 0-.696 1.537l-.54-1.484a1.949 1.949 0 0 0-.351-.603l-.963-1.127a1.958 1.958 0 0 0-1.49-.687h-1.178a1.13 1.13 0 0 0-.942 1.759l.12.179a8.658 8.658 0 0 1-2.58 1.532l-1.615-3.094v-.69a.781.781 0 0 0-.242-.565l-1.454-1.388a.782.782 0 0 0-.28-.172l-1.31-.46a.781.781 0 1 0-.517 1.474l1.15.404 1.09 1.041v.548c0 .126.031.25.09.362l2.021 3.872a.78.78 0 0 0 .963.371l.589-.217a10.223 10.223 0 0 0 3.666-2.346.781.781 0 0 0 .097-.986l-.041-.062h.373c.116 0 .227.051.302.14l.963 1.127a.396.396 0 0 1 .071.122l1.062 2.92a.781.781 0 0 0 1.287.286l.505-.506c.32-.32.54-.725.646-1.174.782 6.266-1.675 12.748-6.868 16.824a.78.78 0 1 0 .964 1.229 19.984 19.984 0 0 0 7.253-11.852 19.982 19.982 0 0 0-2.302-13.862zM3.694 22.09l3.221 2.449a.78.78 0 0 0 .323.145l1.942.38a.857.857 0 0 1 .582.412c.128.218.155.47.076.71a2.415 2.415 0 0 0-.002 1.508l.248.762a.87.87 0 0 1-.558 1.093l-.776.253a.781.781 0 0 0-.526.596L7.6 33.659A18.64 18.64 0 0 1 4.04 29.22a18.336 18.336 0 0 1-2.27-6.506l1.924-.624zM8.247 9.63l-.92.984a.785.785 0 0 0-.106.145l-2.087 3.643L3.28 15.73a.781.781 0 0 0-.19 1.075l.693 1.018c-.4.06-.759.108-.997.134a39.732 39.732 0 0 0-.972-.874 18.465 18.465 0 0 1 5.502-10.45c.57.18 1.038.605 1.266 1.159a1.734 1.734 0 0 1-.334 1.838zm6.37 4.268c.348-.196 1.156-.224 1.747-.245.237-.009.46-.017.66-.033.105-.01.222-.007.333.001a.78.78 0 0 0 .36.972c.146.079.35.215.566.358.61.408 1.302.869 1.952.91.592.039.92-.298 1.062-.442.01-.011.021-.023.033-.033a.837.837 0 0 0 .209-.256c.125.036.256.071.39.108.463.125 1.324.358 1.514.56.338.358.602 1.04.834 1.641.117.304.228.591.353.857l.16.35c.36.805.768 1.716 1.635 2.283.393.257.875.33 1.3.396l.17.027c-.252.352-.611.686-.99 1.04-.968.9-2.172 2.021-1.617 3.81.261.844.273.935-.147 1.393l-.161.172c-.36.384-.645.687-.88 1.43-.07.215-.158.315-.319.496-.128.145-.289.325-.437.578-.177.304-.236.596-.283.83-.046.231-.072.347-.163.458a4.555 4.555 0 0 1-.986.872c-.367.234-.582.266-.655.261-.083-.09-.385-.48-.841-1.835-.113-.334-.269-.677-.42-1.01-.332-.733-.676-1.49-.51-2.009l.06-.179c.267-.814.52-1.584.052-2.704-.143-.341-.37-.59-.57-.81-.128-.143-.275-.304-.297-.397-.028-.113-.027-.244-.026-.395.003-.409.007-1.025-.607-1.6-.864-.809-1.872-.56-2.54-.394-.204.05-.398.098-.57.118-1.097.129-2.077-.285-2.689-1.136-.64-.89-.732-2.089-.242-3.127.237-.503.596-.906 1.011-1.373.091-.103.183-.206.274-.311.153-.176.32-.413.498-.665.211-.3.605-.86.776-.966z" fill="#F78484"/><path d="M21.096 9.286l-.053-.019a.782.782 0 0 0-.517 1.475l.053.018a.78.78 0 1 0 .517-1.474zM32.033 26.897l-.376-1.417a.781.781 0 0 0-1.442-.172 8.363 8.363 0 0 0-.237.487c-.125.271-.255.553-.39.708-.076.087-.27.181-.458.272-.45.217-1.066.514-1.301 1.264-.146.466-.092.834-.052 1.103.034.233.042.313-.02.46l-.008.018c-.249.584-.711 1.67-.063 2.594.463.659.95.828 1.328.828.074 0 .144-.006.209-.017.796-.13 1.396-.959 1.885-2.609l.919-3.096a.78.78 0 0 0 .006-.423zm-2.423 3.075c-.25.841-.47 1.234-.597 1.408a1.43 1.43 0 0 1-.048-.064c-.15-.213.074-.737.221-1.083l.008-.019c.238-.559.175-.988.128-1.301-.03-.201-.04-.287-.003-.406.03-.097.214-.192.49-.325.122-.059.257-.124.392-.202l-.59 1.992z" fill="#F78484"/></symbol><symbol id="adv-icon-11" viewBox="0 0 27 40"><path d="M20.49 10.691a3.07 3.07 0 0 0 2.508-1.275l2.944-4.054a.586.586 0 0 0-.378-.922 18.869 18.869 0 0 0-2.617-.214 18.994 18.994 0 0 0-1.013-2.422.586.586 0 0 0-.994-.074l-2.944 4.053a3.071 3.071 0 0 0-.552 2.3c.096.605.362 1.154.765 1.595a45.22 45.22 0 0 0-2.091 2.693v-.512a.586.586 0 1 0-1.172 0v2.238a28.26 28.26 0 0 0-1.333 2.305v-3.29V12.1l1.707-1.707a.586.586 0 1 0-.828-.828l-.88.878V8.631a3.096 3.096 0 0 0 2.506-3.035V.586a.586.586 0 0 0-.848-.524 19.01 19.01 0 0 0-2.243 1.365A18.991 18.991 0 0 0 10.784.062a.586.586 0 0 0-.848.524v5.01c0 1.504 1.08 2.76 2.505 3.035v3.066l-1.505-1.505a.586.586 0 1 0-.828.828l2.333 2.334v3.048c-1.494-2.916-3.712-5.674-4.596-6.724.403-.441.67-.99.765-1.594a3.07 3.07 0 0 0-.552-2.3L5.114 1.73a.585.585 0 0 0-.994.074 18.948 18.948 0 0 0-1.013 2.422A18.92 18.92 0 0 0 .49 4.44a.586.586 0 0 0-.378.922l2.944 4.054a3.07 3.07 0 0 0 2.507 1.275c.466 0 .923-.106 1.341-.31.181.216.431.52.727.892h-.514a.586.586 0 0 0 0 1.172h1.415c.856 1.15 1.848 2.6 2.655 4.094a19.289 19.289 0 0 0-3.169-2.513c-3.509-2.233-6.67-2.727-6.803-2.747a.586.586 0 0 0-.673.58c0 .093.013 2.33 1.13 5.443 1.01 2.81 3.153 6.893 7.638 10.494v2.147l-2.485 9.32A.586.586 0 0 0 7.39 40h11.272a.586.586 0 0 0 .566-.737l-2.485-9.32v-2.147c4.485-3.601 6.628-7.683 7.637-10.494 1.118-3.114 1.13-5.35 1.13-5.443a.586.586 0 0 0-.672-.58c-.078.012-1.929.298-4.366 1.42a19.973 19.973 0 0 0-5.611 3.85c.808-1.498 1.802-2.95 2.66-4.104h1.415a.586.586 0 1 0 0-1.172h-.514c.296-.373.546-.676.727-.891.418.204.875.31 1.34.31zm3.92-5.212l-.885 1.218a9.566 9.566 0 0 0-.231-1.29c.412.014.795.041 1.115.072zM2.53 6.697l-.886-1.219c.32-.03.703-.057 1.116-.071-.113.46-.189.889-.23 1.29zm4.155 2.455a1.907 1.907 0 0 1-1.429.343 1.907 1.907 0 0 1-1.252-.768c-.84-1.156.051-3.89.745-5.505l2.36 3.25a1.921 1.921 0 0 1-.424 2.68zm8.261-7.571v1.503a9.598 9.598 0 0 0-.945-.906c.342-.231.668-.433.945-.597zm-3.838 4.015V1.579c1.51.899 3.838 2.587 3.838 4.017 0 1.058-.86 1.92-1.919 1.92-1.058 0-1.92-.862-1.92-1.92zm-8.314 11.36c-.694-1.916-.942-3.495-1.03-4.366a19.22 19.22 0 0 1 5.625 2.425 17.734 17.734 0 0 1 4.889 4.584c1.512 2.094 2.575 4.557 3.166 7.33H14.08c-.749-3.287-2.224-6.085-4.388-8.321a.586.586 0 1 0-.842.814c1.956 2.022 3.307 4.545 4.026 7.507h-2.773c-4.292-3.426-6.344-7.307-7.308-9.973zM15.572 28.1v1.333h-5.09v-1.333h5.09zm2.329 10.727h-2.482l-.1-.744a.586.586 0 1 0-1.161.155l.079.589H8.153l2.193-8.222h2.794l.684 5.128a.586.586 0 1 0 1.162-.155l-.664-4.973h1.386l2.193 8.222zm3.024-25.047a18.689 18.689 0 0 1 3.366-1.19c-.09.87-.338 2.45-1.03 4.365-.92 2.542-2.828 6.188-6.723 9.492-.564-2.519-1.504-4.796-2.803-6.791 2.253-3.143 5.14-4.928 7.19-5.876zm-1.98-7.31l2.36-3.25c.695 1.614 1.587 4.347.745 5.506a1.906 1.906 0 0 1-1.252.768 1.921 1.921 0 0 1-1.853-3.023z" fill="#F78484"/></symbol><symbol id="adv-icon-12" viewBox="0 0 40 36"><path d="M33.39 7.59H6.61c-.37 0-.669.3-.669.67v18.745c0 .37.3.67.67.67h26.778c.37 0 .67-.3.67-.67V8.26c0-.37-.3-.67-.67-.67zM7.91 26.335l5.394-7.55 2.953 4.126-1.998 3.424H7.911zm7.9 0l8.205-14.068 8.208 14.068H15.81zM32.72 8.93v15.6l-8.124-13.926a.697.697 0 0 0-1.157 0l-6.441 11.046-3.147-4.4a.67.67 0 0 0-1.09-.005l-5.48 7.671V8.93h25.44z" fill="#F78484"/><path d="M39.934 24.77l-1.859-6.937V5.582c0-1.109-.899-2.008-2.008-2.008h-1.815l-.558-2.092a2.012 2.012 0 0 0-2.46-1.414l-13.09 3.506H3.934c-1.11 0-2.008.899-2.008 2.008v2.337l-.437.116a2.02 2.02 0 0 0-1.422 2.46l1.859 6.937v12.25c0 1.11.899 2.01 2.008 2.01h1.815l.558 2.09a2.005 2.005 0 0 0 2.458 1.415h.002l13.09-3.506h14.211c1.11 0 2.008-.9 2.008-2.009v-2.336l.437-.117a2.02 2.02 0 0 0 1.422-2.46zM31.582 1.364a.67.67 0 0 1 .818.468l.464 1.74H23.32l8.261-2.208zM1.36 10.15a.677.677 0 0 1 .475-.823l.09-.023v2.953l-.565-2.107zm7.058 23.753a.67.67 0 0 1-.818-.469l-.466-1.744h9.546l-8.262 2.213zm28.318-4.221c0 .37-.3.67-.669.67H3.933a.67.67 0 0 1-.67-.67V5.582c0-.37.3-.67.67-.67h32.134c.37 0 .67.3.67.67v24.1zm1.428-3.75l-.089.027v-2.954l.565 2.107a.677.677 0 0 1-.476.82z" fill="#F78484"/><path d="M15.983 16.293a2.678 2.678 0 1 0 0-5.355 2.678 2.678 0 0 0 0 5.355zm0-4.016a1.339 1.339 0 1 1 0 2.678 1.339 1.339 0 0 1 0-2.678z" fill="#F78484"/></symbol><symbol id="adv-icon-13" viewBox="0 0 28 40"><path d="M.625 33c.82 0 .841-1.32 0-1.32-.842 0-.82 1.32 0 1.32z" fill="#F78484"/><path d="M21.515 22.734H5.516A5.523 5.523 0 0 0 0 28.251v1.905a.625.625 0 1 0 1.25 0v-1.905a4.271 4.271 0 0 1 4.266-4.267h2.202c-1.064.751-1.27.812-1.308 1.186a.625.625 0 0 0 .164.49l2.937 3.157-.212 2.537c-.028.341.222.641.562.674l5.06.492v6.23H6.407v-8.281a.625.625 0 1 0-1.25 0v8.281h-3.75a.156.156 0 0 1-.156-.156v-3.972a.625.625 0 0 0-1.25 0v3.972C0 39.369.63 40 1.406 40h24.219c.775 0 1.406-.63 1.406-1.406V28.25a5.523 5.523 0 0 0-5.516-5.517zm-5.354 1.25l-1.889 2.771a.625.625 0 1 0 1.033.704l2.197-3.223 1.553 1.096-2.638 2.836a.625.625 0 0 0-.165.477l.184 2.212-.814.097-4.752-6.97h5.291zm-5.565 6.86l.183-2.198a.625.625 0 0 0-.165-.478l-2.638-2.835 1.553-1.097 4.75 6.966-3.683-.358zm15.185 7.75c0 .086-.07.156-.156.156h-3.75v-8.281a.625.625 0 1 0-1.25 0v8.281h-4.453v-6.602l1.011-.121a.625.625 0 0 0 .55-.672l-.212-2.538 2.937-3.157a.625.625 0 0 0-.098-.936l-1.047-.74h2.202a4.271 4.271 0 0 1 4.266 4.267v10.343z" fill="#F78484"/><path d="M12.5 35.547h.469a.625.625 0 0 0 0-1.25H12.5a.625.625 0 1 0 0 1.25zM12.5 38.672h.469a.625.625 0 0 0 0-1.25H12.5a.625.625 0 1 0 0 1.25zM3.203 11.094h2.422v3.059a7.886 7.886 0 0 0 7.902 7.878c4.345 0 7.88-3.534 7.88-7.878v-3.06h2.421a.625.625 0 0 0 .436-1.072l-2.858-2.785V2.5c0-1.379-1.121-2.5-2.5-2.5h-2.739C15.5 0 14.872.26 14.4.732a1.251 1.251 0 0 1-1.767 0A2.483 2.483 0 0 0 10.864 0h-2.74a2.503 2.503 0 0 0-2.5 2.5v4.736l-2.857 2.785a.625.625 0 0 0 .436 1.073zm16.953 3.059a6.635 6.635 0 0 1-6.652 6.628 6.636 6.636 0 0 1-6.629-6.628v-3.06H7.5v2.208c0 1.034.841 1.875 1.875 1.875h2.734a.625.625 0 0 0 .51-.262l.897-1.26.897 1.26a.625.625 0 0 0 .509.262h2.656a1.877 1.877 0 0 0 1.875-1.875v-2.207h.703v3.059zm-1.953-3.06v2.208c0 .344-.28.625-.625.625h-2.334l-1.22-1.71a.625.625 0 0 0-1.017 0l-1.22 1.71H9.375a.626.626 0 0 1-.625-.625v-2.207h9.453zM6.504 8.126h8.73a.625.625 0 1 0 0-1.25h-8.36V2.5c.001-.69.562-1.25 1.251-1.25h2.739c.334 0 .648.13.884.366a2.499 2.499 0 0 0 3.535 0c.236-.236.55-.366.884-.366h2.74c.688 0 1.25.56 1.25 1.25v4.375H17.89a.625.625 0 1 0 0 1.25h2.636l1.764 1.719H4.741l1.763-1.719z" fill="#F78484"/></symbol><symbol id="adv-icon-14" viewBox="0 0 33 40"><path d="M30.653 7.02a4.71 4.71 0 0 0-1.71-.57c.488-.326.814-.733 1.14-1.14.488-.896.407-1.955-.489-2.606-.733-.57-1.71-.57-2.524-.244-.489.244-.815.57-1.14.895 0-.407 0-.814-.082-1.14-.163-.814-.57-2.035-1.547-2.198-.977-.163-1.791.896-2.117 1.71a2.507 2.507 0 0 0-.244 1.058C20.8 1.401 18.926.587 17.38 1.727c-.733.57-1.14 1.628-.733 2.524.08.245.244.407.407.57-.489.407-.896.977-1.222 1.629a7.646 7.646 0 0 0-.977-1.466c1.059-1.221 1.14-4.479-.651-4.804-1.873-.326-3.42 1.547-3.909 3.175-.244-1.71-1.221-3.42-3.257-3.175C6.06.26 5.409.994 5.246 1.89c-.081.325 0 .733.082 1.058-1.792-1.14-4.235-1.791-4.886.407-.407 1.303.57 2.77 1.791 3.665C1.175 7.509.28 8.404.035 9.626c-.163.977.244 2.036 1.303 2.28.651.163 1.465.081 2.28-.163-1.222 1.547-1.873 3.909.244 4.967 1.059.57 2.362.326 3.339-.325.733-.489 1.628-1.548 1.873-2.525.407.082.814.082 1.303.082-1.466 1.221-2.525 3.094-1.792 4.886.57 1.465 2.362 1.547 3.583 1.058.326-.081.652-.244.977-.488 1.629 2.931 2.117 6.759 2.199 10.586-1.221-.489-3.095-.652-3.42.977-.163.814.57 1.14 1.303 1.222.081 0 .163 0 .244.08-.081.082-.244.164-.326.245-.488.408-1.221.896-.814 1.629.57 1.059 2.117.489 3.013-.163-.081 2.036-.081 4.072-.081 5.782 0 .325.407.325.488 0 .245-2.036.326-4.153.326-6.19.488.082.977.164 1.466.164-.082 2.036 0 4.071.57 6.026.081.325.651.325.651-.082-.244-7.899 1.954-14.332 4.805-21.416.895-.082 1.628-.57 1.954-1.71.163-.733 0-1.303-.244-1.873.162.081.325.162.407.244.977.488 2.117.488 3.013-.082.896-.57 1.221-1.71.896-2.687-.082-.407-.326-.814-.57-1.14.244 0 .488-.081.814-.081.896-.163 2.443-.57 2.687-1.629.081-.896-1.14-1.873-1.873-2.28zM13.226 1.483c1.222-.408 1.222 1.058 1.14 1.872-.08.326-.244.652-.325 1.06-.815-.652-2.036-1.304-3.013-.978.407-.977 1.221-1.629 2.198-1.954zm-5.7 7.898c-.733.49-1.221 1.303-1.221 2.2 0 .976.488 1.628 1.303 2.035-.733.977-1.303 2.28-2.688 2.117-.977-.081-1.221-1.14-1.058-1.954.244-.896.895-1.629 1.303-2.362.081-.163.081-.325 0-.407.162-.326.081-.814-.408-.733-.732.082-1.465.326-2.198.407-.326.082-.896.163-1.14-.162-.163-.245 0-.652.081-.815.326-.814 1.14-1.466 1.955-1.791.732.244 1.465.325 2.117 0 .326-.163.244-.652 0-.815-.652-.407-1.466-.488-2.117-.895-.57-.326-1.63-1.14-1.63-1.873-.08-1.548 2.688-.245 4.073.488.162.245.407.489.732.652.245.081.57 0 .57-.326.082-.081.082-.244 0-.407-.081-.082-.081-.163-.162-.244-.408-1.222-1.303-3.013.488-3.013 1.71 0 1.955 2.117 2.28 3.42-.081.651.082 1.384.245 2.035-.408-.407-.978-.57-1.548-.488-.732.081-1.384.57-1.547 1.303-.163.651.082 1.221.57 1.628zm2.118-.651c-.49 0-.896.081-1.385.244 0 0-.081 0-.081.082v-.082c-.489-.57-.082-1.384.57-1.465.326 0 .651.162.814.488.082.244.082.489.082.733zM12.9 31.368c-.245-.407.651-.651.977-.733.489 0 .977.163 1.384.326v.163c-.244.163-.57.326-.814.57-.325 0-1.384 0-1.547-.326zm.896 2.28c.407-.325.814-.651 1.22-1.058h.327v.407c-.408.244-.815.489-1.222.57a.617.617 0 0 1-.325.081zm3.664-.407a4.44 4.44 0 0 1-1.466 0v-.733c.082 0 .163 0 .326-.081.163-.082.244-.163.244-.326.326 0 .733 0 1.14.081-.162.408-.244.733-.244 1.06zm.489-3.257c-.57 0-1.14.081-1.71.163-.245 0-.164.407.08.407.49 0 1.06 0 1.548.082-.081.407-.163.732-.244 1.14-.408 0-.896.08-1.303.08-.082 0-.082-.08-.163-.08h-.245l.082-.082c.163-.163.081-.488-.082-.651.082-.163.163-.326-.081-.489h-.081c-.082-1.466-.245-2.931-.408-4.479-.325-2.361-.488-4.804-1.791-6.758.407-.326.814-.652 1.14-1.14-.326.977-.407 2.035.081 2.931.57 1.059 1.792 1.873 3.013 1.547 2.443-.651 2.362-3.501 1.466-5.456.896.489 2.036.977 3.095 1.14-1.71 3.665-3.502 7.573-4.398 11.645zm6.107-13.762c-.244 2.361-4.479.163-5.456-.245h-.081c-.326-.244-.896.163-.814.652.488 1.384 1.872 3.338.325 4.642-.896.814-1.873 0-2.28-.896-.407-.977-.081-2.199.244-3.176.082-.326-.325-.652-.57-.489-.081-.244-.407-.407-.651-.244-.977.733-3.827 3.746-4.805 1.873-.895-1.629 1.059-3.583 2.606-4.479.326-.081.652-.163.896-.325.489-.245.244-.978-.244-.978-1.059 0-5.62.652-5.456-1.221.163-1.792 2.931-1.385 4.56-1.14.407.244.896.488 1.303.57.488.081 1.14-.57.57-.977-.815-.57-1.629-1.059-2.199-1.873-.407-.57-1.14-1.873-.896-2.688.408-1.221 2.28.408 2.77.896.732.733 1.058 1.629 1.465 2.525.163.325.733.162.733-.163v-.163c.896-1.059 1.059-3.339 3.013-3.013 1.384.244 1.222 2.199.489 3.42-.326.326-.652.57-.815.896 0 0-.081 0-.081.081-.244.082-.244.57.081.57.163.163.326.245.489.082 1.14-.733 3.339-2.769 4.723-1.873 1.71 1.14-1.873 4.641-3.339 3.909-.407-.163-.651.162-.651.407h-.082c-.407.081-.407.651 0 .814 1.384.489 4.397.407 4.153 2.606zm-.326-2.769c-.244-.163-.488-.244-.733-.407l.489-.244c0 .162.082.407.244.651zm7.166-4.234c-.163.325-1.71.57-2.036.651-.651.081-1.14-.163-1.791-.407-.407-.163-.814.326-.733.733 0 .163.081.244.163.325.081 0 .081.082.163.082.081.081.163.163.325.244.49.407.978.896 1.14 1.548.163.732-.08 1.465-.895 1.547-1.384.081-1.873-1.222-2.769-1.955.977-.896 1.71-1.954 1.303-3.338-.57-2.118-2.769-1.792-4.642-.896.245-1.14.082-2.362-.733-3.013-.733-.57-1.71-.652-2.524-.326-.326-.326-.407-.733-.244-1.14.325-.651 1.14-.814 1.791-.57 1.303.407 1.71 1.629 2.606 2.443.244.244.651.081.651-.244a.622.622 0 0 0 .163-.407c-.081-.57-.163-1.14 0-1.63.163-.406.57-1.546 1.222-1.302.407.163.57 1.466.489 1.791 0 .652-.326 1.14-.408 1.71.082.245.326.49.652.49.163.243.488.325.733.08.651-.977 1.71-2.687 3.094-2.035 2.117.896-1.71 2.606-2.117 3.094-.326.326 0 .977.488.815h.082c.081.08.244.162.407.08.733-.162 1.466 0 2.117.245.326.082 1.548.815 1.303 1.385z" fill="#F78484"/><path d="M17.705 11.173c-.57-.489-1.466-.489-2.036-.082-.081-.08-.244-.162-.407 0-.814.733-1.547 2.036-.733 3.095.815.977 2.443.814 3.257 0 .815-.814.896-2.199-.08-3.013zm-.733 2.361c-.488.408-1.466.652-1.873 0-.244-.407-.08-.977.163-1.465.082.081.245.081.408 0 .407-.489 1.14-.652 1.547-.082.407.489.244 1.14-.245 1.547z" fill="#F78484"/></symbol><symbol id="adv-icon-15" viewBox="0 0 41 40"><path d="M38.171 24.516h-3.367l-.28-1.115a1.932 1.932 0 0 0-1.877-1.465H23.05c-.89 0-1.662.603-1.877 1.465l-.279 1.115h-3.368a1.938 1.938 0 0 0-1.935 1.936v11.613c0 1.067.868 1.935 1.935 1.935h20.645a1.938 1.938 0 0 0 1.936-1.935V26.452a1.938 1.938 0 0 0-1.936-1.936zm-15.747-.801a.645.645 0 0 1 .626-.489h9.598c.297 0 .554.201.627.488l.2.802H22.223l.2-.801zm-2.962 2.092h2.58v1.29h-2.58v-1.29zm19.354 3.87H34.3v1.29h4.517v3.872H34.3v1.29h4.517v1.936c0 .356-.29.645-.646.645H17.526a.645.645 0 0 1-.645-.645v-1.936h4.516v-1.29h-4.516v-3.871h4.516v-1.29h-4.516v-3.226c0-.356.29-.645.645-.645h.645v1.29c0 .711.58 1.29 1.29 1.29h2.581c.712 0 1.29-.579 1.29-1.29v-1.29h14.84c.355 0 .645.289.645.645v3.225z" fill="#F78484"/><path d="M27.85 27.096a5.167 5.167 0 0 0-5.162 5.161 5.167 5.167 0 0 0 5.161 5.162 5.167 5.167 0 0 0 5.161-5.162 5.167 5.167 0 0 0-5.16-5.161zm0 9.032a3.875 3.875 0 0 1-3.872-3.87 3.875 3.875 0 0 1 3.871-3.872 3.875 3.875 0 0 1 3.871 3.871 3.875 3.875 0 0 1-3.87 3.871z" fill="#F78484"/><path d="M27.849 29.677a2.583 2.583 0 0 0-2.58 2.58 2.583 2.583 0 0 0 2.58 2.582 2.583 2.583 0 0 0 2.58-2.581 2.583 2.583 0 0 0-2.58-2.58zm0 3.871c-.712 0-1.29-.579-1.29-1.29 0-.712.578-1.29 1.29-1.29.711 0 1.29.578 1.29 1.29 0 .711-.579 1.29-1.29 1.29zM37.527 27.096h-1.29v1.29h1.29v-1.29zM6.552 25.897l-1.277-.182-.567 3.962H1.505l.827-5.378a3.223 3.223 0 0 1 2.085-2.541l4.31-1.567c.82 2.025 3.47 5.029 3.803 5.4l.48.537.48-.538c.332-.37 2.984-3.375 3.803-5.4l3.884 1.412.44-1.212-4.09-1.488v-.838h-1.291v1.226c-.235 1.172-2.107 3.568-3.226 4.886-1.118-1.318-2.99-3.714-3.226-4.886v-1.226h-1.29v.838l-4.517 1.644a4.51 4.51 0 0 0-2.92 3.556L0 30.967h14.3v-1.29H6.012l.54-3.78z" fill="#F78484"/><path d="M6.824 13.51c.23.646.598 1.24 1.094 1.725l2.33 2.278c.364.355.844.551 1.352.551h2.819a1.93 1.93 0 0 0 1.354-.551l2.33-2.278a4.533 4.533 0 0 0 1.093-1.725 2.577 2.577 0 0 0 2.201-2.542c0-.951-.523-1.775-1.29-2.222v-1.65C20.107 3.185 16.923 0 13.01 0 9.097 0 5.913 3.184 5.913 7.097v1.649a2.572 2.572 0 0 0-1.29 2.222c0 1.293.959 2.356 2.201 2.542zm12.637-1.505V9.857c.384.224.646.635.646 1.11 0 .477-.264.89-.65 1.114.001-.026.005-.05.005-.076zm-1.29 0c0 .863-.354 1.704-.97 2.307l-2.33 2.278a.646.646 0 0 1-.451.184H11.6a.643.643 0 0 1-.45-.184l-2.33-2.278a3.244 3.244 0 0 1-.971-2.307V9.677h.489c1.73 0 3.366-.6 4.672-1.705a7.197 7.197 0 0 0 4.672 1.705h.49v2.328zM7.204 7.097A5.813 5.813 0 0 1 13.01 1.29a5.813 5.813 0 0 1 5.806 5.807v1.29h-1.134c-1.593 0-3.09-.62-4.216-1.746l-.456-.457-.456.457a5.922 5.922 0 0 1-4.216 1.746H7.204v-1.29zm-.646 2.76v2.148c0 .025.004.05.004.076a1.287 1.287 0 0 1-.649-1.113c0-.476.262-.887.645-1.111z" fill="#F78484"/></symbol><symbol id="adv-icon-16" viewBox="0 0 40 40"><path d="M20 40a19.87 19.87 0 0 1-14.142-5.858A19.87 19.87 0 0 1 0 20 19.87 19.87 0 0 1 5.858 5.858 19.87 19.87 0 0 1 20 0a19.87 19.87 0 0 1 14.142 5.858A19.87 19.87 0 0 1 40 20a19.87 19.87 0 0 1-5.858 14.142A19.87 19.87 0 0 1 20 40zm0-37.656A17.54 17.54 0 0 0 7.515 7.515 17.54 17.54 0 0 0 2.344 20a17.54 17.54 0 0 0 5.171 12.485A17.54 17.54 0 0 0 20 37.656a17.54 17.54 0 0 0 12.485-5.171A17.54 17.54 0 0 0 37.656 20a17.54 17.54 0 0 0-5.171-12.485A17.54 17.54 0 0 0 20 2.344z" fill="#F78484"/><path d="M18.828 4.69h2.344v3.128h-2.344V4.691zM27.781 10.56l2.211-2.211 1.657 1.657-2.211 2.21-1.657-1.656zM32.182 18.828h3.128v2.344h-3.128v-2.344zM27.78 29.443l1.657-1.657 2.21 2.21-1.656 1.658-2.211-2.211zM18.828 32.183h2.344v3.127h-2.344v-3.127zM8.342 29.995l2.211-2.21 1.657 1.656L10 31.652l-1.658-1.657zM4.69 18.828h3.127v2.344H4.69v-2.344zM8.344 10.004L10 8.347l2.21 2.21-1.656 1.658-2.211-2.211zM28.273 21.172h-9.445v-9.445h2.344v7.1h7.1v2.345z" fill="#F78484"/></symbol><symbol id="adv-icon-17" viewBox="0 0 40 40"><path d="M39.638 24.657c-1.161-1.617-2.343-1.66-5.282-.115l-5.82 3.556c-.66.35-2.05.546-3.99.593a42.28 42.28 0 0 1-.272.006c.302-.625.156-1.39-.404-2.227-.917-1.368-2.417-2.247-4.07-2.446.181-.358.362-.746.537-1.162a.663.663 0 0 0 .08-.07c.542-.552 1.164-.862 2.396-1.25.153-.049.17-.054.495-.153 3.426 1.539 5.77 1.01 7.157-.893a5.62 5.62 0 0 0 .57-.986c.085-.185.24-.57.238-.565a.667.667 0 0 0-.33-.884c.153.07-.626-.335-1.038-.508-1.26-.529-2.52-.733-3.743-.414-1.36.355-2.49 1.335-3.312 2.996l-.069.02-.368.115c-.52.164-.956.32-1.336.49.686-2.384.885-4.9.403-7.456a6.683 6.683 0 0 0 5.47-4.362l.04.017.128-.557a6.656 6.656 0 0 0 .218-1.434A6.678 6.678 0 0 0 20.666 0a6.746 6.746 0 0 0-.746.042l-.472.035.006.035a6.684 6.684 0 0 0-5.238 4.84l-.024-.002-.056.336a6.667 6.667 0 0 0-.14 1.118l-.001.057c-.002.072-.006.144-.006.216 0 .045.003.09.004.134l.004.18.012.169.01.147.02.18.017.128a6.535 6.535 0 0 0 .09.501l.02.086c.018.073.035.146.055.219l.013.045c.152.55.373 1.07.652 1.552l.001.002a6.68 6.68 0 0 0 4.79 3.261l.457.085c.197.976.285 1.948.276 2.91-.728-1.128-1.766-1.833-3.034-2.152-1.086-.274-2.213-.241-3.32-.025a10 10 0 0 0-.674.156.667.667 0 0 0-.492.795l.063.296c.039.175.081.343.133.519.144.485.337.95.6 1.391 1.144 1.922 3.218 2.828 6.341 2.235a17.297 17.297 0 0 1-1.565 4.215c-.056.104-.107.195-.153.275h-1.83c-1.413 0-2.756-.426-3.82-1.229-1.025-.772-2.343-.909-3.851-.555-.98.229-2.007.656-3.048 1.224-.381.208-.747.426-1.094.647v-1.401H0V40h4.667v-2h8.666c1.364 0 2.728-.103 4.078-.308l8.641-1.314c.313-.004.623-.04.931-.107.8-.114 1.56-.506 2.188-1.098l10.105-7.87a1.955 1.955 0 0 0 .362-2.646zm-13.14-6.228c.891-.232 1.875-.073 2.89.354.147.061.286.125.425.193-.123.266-.26.508-.425.734-.85 1.165-2.175 1.615-4.3.941.452-.15.91-.265 1.388-.344a.667.667 0 1 0-.219-1.315c-.41.068-.806.159-1.197.272a3.174 3.174 0 0 1 1.439-.835zM15.592 8.35a5.346 5.346 0 0 1-.113-.393l-.006-.027a5.294 5.294 0 0 1-.07-.34l-.01-.059c-.008-.045-.014-.091-.02-.137a5.325 5.325 0 0 1-.036-.359c-.003-.04-.006-.079-.007-.119a5.438 5.438 0 0 1-.005-.162l-.001-.076c0-.09.003-.182.008-.275l.858.086a3.325 3.325 0 0 1 2.974 3.675l-.176 1.584a5.35 5.35 0 0 1-3.39-3.38l-.006-.018zm5.53-6.996l.12.01c.049.006.098.012.146.02.039.004.078.009.116.015l.147.026.11.02c.051.011.102.024.152.036l.102.024c.054.014.107.03.16.046a5.4 5.4 0 0 1 .282.091l.05.016c.08.03.16.061.239.095l.045.02c.063.027.126.055.187.085.026.012.052.026.078.04.05.024.1.049.148.075l.086.049c.045.025.09.05.134.077l.089.056c.041.026.083.052.124.08l.09.061.117.084.087.067c.038.029.075.058.111.088.03.023.058.048.086.072.035.03.071.06.106.092l.082.076c.034.032.068.063.101.096l.08.08a5.381 5.381 0 0 1 .632.786 5.586 5.586 0 0 1 .323.56l.05.102a5.052 5.052 0 0 1 .156.367l.04.105.046.138c.012.036.024.07.035.107l.04.143.03.106.034.15.023.104c.01.052.02.105.028.158l.018.1c.008.057.015.114.021.172l.011.091c.007.066.011.133.016.2l.005.066a5.416 5.416 0 0 1-.008.648l-.002.028-1.818-.78a.533.533 0 0 1-.313-.386l-.35-1.749a1.866 1.866 0 0 0-1.83-1.5.534.534 0 0 1-.526-.446l-.146-.875.11.008zm-1.448.073l.169 1.013c.15.9.929 1.56 1.841 1.56.254 0 .473.18.522.429l.35 1.75c.122.603.531 1.108 1.096 1.35l2.069.886a5.345 5.345 0 0 1-5.42 3.592l.188-1.696a4.658 4.658 0 0 0-4.166-5.149l-.759-.075a5.352 5.352 0 0 1 4.11-3.66zm-4.841 15.147a4.753 4.753 0 0 1-.492-1.172c.922-.176 1.853-.201 2.71.015.948.238 1.711.75 2.257 1.608a11.888 11.888 0 0 0-.8-.442.667.667 0 1 0-.599 1.191c.168.084.339.177.52.281.138.08.278.163.435.26-2.026.184-3.285-.488-4.031-1.74zM3.333 38.667h-2V24h2v14.667zm35.114-12.408l-10.12 7.882-.052.044c-.441.422-.962.693-1.491.767a3.66 3.66 0 0 1-.784.093l-.1.007-8.69 1.322c-1.283.195-2.58.293-3.877.293H4.667V25.67a17.782 17.782 0 0 1 1.731-1.08c.945-.514 1.867-.898 2.714-1.096 1.158-.271 2.084-.175 2.744.322 1.301.982 2.928 1.498 4.623 1.498h2.041a.666.666 0 0 0 .308 0h.251c1.496 0 2.888.71 3.683 1.897.364.544.392.814.274.964-.136.172-.503.328-1.028.417-.461.078-.96.096-1.391.08-.002 0-.004.003-.007.007a.666.666 0 0 0-.131-.013H14c-1.992 0-3.333.877-3.333 2.666a.667.667 0 0 0 1.333 0c0-.904.655-1.333 2-1.333h6.479c.29 0 .399.002 1.323.018 1.208.022 1.957.026 2.776.006 2.145-.052 3.678-.268 4.619-.769l5.817-3.554c2.382-1.251 2.846-1.234 3.541-.266a.617.617 0 0 1-.108.824z" fill="#F78484"/></symbol><symbol id="adv-icon-18" viewBox="0 0 28 40"><path d="M12.903 14.839h1.29v2.58h-1.29v-2.58zM10 15.484a.969.969 0 0 0 0-1.935.969.969 0 0 0 0 1.935zM17.097 15.484a.969.969 0 0 0 0-1.935.969.969 0 0 0 0 1.935zM13.549 23.226a4.522 4.522 0 0 0 4.516-4.516h-1.29a3.23 3.23 0 0 1-3.226 3.225 3.23 3.23 0 0 1-3.226-3.225h-1.29a4.522 4.522 0 0 0 4.516 4.516z" fill="#F78484"/><path d="M23.91 24.994l-4.48-1.378a9.028 9.028 0 0 0 2.948-4.95c1.568-.22 2.783-1.555 2.783-3.182 0-1.558-1.11-2.86-2.58-3.16V9.031C22.58 4.052 18.529 0 13.548 0c-4.98 0-9.032 4.051-9.032 9.032v3.291a3.231 3.231 0 0 0-2.58 3.16c0 1.628 1.215 2.963 2.783 3.182a9.033 9.033 0 0 0 2.949 4.95l-4.48 1.379A4.494 4.494 0 0 0 0 29.31v10.044c0 .357.288.645.645.645h25.807a.644.644 0 0 0 .645-.645V29.31c0-1.995-1.28-3.73-3.188-4.317zM5.805 9.032c0-.048.007-.095.008-.143l1.535-.384a25.705 25.705 0 0 1 12.398 0l1.535.384c.002.048.008.095.008.143v.247l-1.985.992-1.781-.594a12.627 12.627 0 0 0-7.951 0l-1.781.594-1.986-.992v-.247zm7.742-7.475l.49.49a7.084 7.084 0 0 1 2.067 4.541 27.06 27.06 0 0 0-5.112 0 7.08 7.08 0 0 1 2.067-4.542l.488-.489zm10.323 13.927c0 .85-.554 1.565-1.317 1.825.01-.178.027-.354.027-.535v-3.107c.749.267 1.29.977 1.29 1.817zm-2.73-7.96l-1.081-.27a26.422 26.422 0 0 0-2.658-.511 8.35 8.35 0 0 0-2.13-5.253 7.761 7.761 0 0 1 5.869 6.034zM11.824 1.49a8.35 8.35 0 0 0-2.13 5.252c-.893.13-1.781.292-2.657.511l-1.08.27a7.76 7.76 0 0 1 5.867-6.033zM3.226 15.484c0-.84.541-1.55 1.29-1.817v3.107c0 .18.017.357.027.535a1.932 1.932 0 0 1-1.317-1.825zm2.58 1.29v-6.053l1.648.823a.632.632 0 0 0 .492.035l2.035-.678a11.349 11.349 0 0 1 7.135 0l2.035.678a.639.639 0 0 0 .492-.034l1.647-.824v6.053c0 4.27-3.473 7.742-7.742 7.742s-7.742-3.473-7.742-7.742zm11.389 8.257a3.225 3.225 0 0 1-3.002 2.066h-1.29a3.225 3.225 0 0 1-3.001-2.066 8.973 8.973 0 0 0 7.293 0zM3.567 26.227l4.903-1.508a4.523 4.523 0 0 0 4.433 3.668h1.29c2.2 0 4.035-1.583 4.434-3.668l4.903 1.509a3.21 3.21 0 0 1 2.276 3.083v4.883h-3.225v-3.226a.644.644 0 0 0-.645-.645H5.16a.644.644 0 0 0-.645.645v3.226H1.29V29.31c0-1.425.916-2.665 2.277-3.084zm12.788 9.943l1.064-1.064 1.064 1.064a.645.645 0 0 0-.419.604v1.936h-1.29v-1.936a.645.645 0 0 0-.419-.604zm4.101.148l-2.58-2.58a.644.644 0 0 0-.913 0l-2.58 2.58a.645.645 0 0 0 .456 1.101h.645v1.29H5.806v-7.096h1.29v5.161c0 .357.289.645.646.645h2.58a.644.644 0 0 0 .646-.645v-5.161H21.29v7.097h-1.935v-1.29H20a.644.644 0 0 0 .456-1.102zM8.387 31.613h1.29v4.516h-1.29v-4.516zm-7.097 3.87h3.226v3.227H1.29v-3.226zm21.29 3.227v-3.226h3.227v3.226H22.58z" fill="#F78484"/></symbol><symbol id="delivery-adv-icon-01" viewBox="0 0 21 30"><path d="M19.62 4.801c.266-.457.418-.986.418-1.546V1.466A1.45 1.45 0 0 0 19.19.138a1.45 1.45 0 0 0-1.562.21l-.67.568-.67-.567A1.455 1.455 0 0 0 14.702.15a1.455 1.455 0 0 0-1.586.199l-.671.567-.67-.567A1.455 1.455 0 0 0 10.187.15 1.454 1.454 0 0 0 8.6.349l-.67.567-.67-.567a1.455 1.455 0 0 0-1.587-.2 1.456 1.456 0 0 0-1.587.2l-.67.567-.67-.567a1.45 1.45 0 0 0-1.561-.21 1.45 1.45 0 0 0-.848 1.327v1.789c0 .56.152 1.09.417 1.546-.822.822-1.104 4.929-.169 8.412.576 2.146 1.537 4.047 2.857 5.65 1.433 1.743 3.29 3.131 5.532 4.14a5.505 5.505 0 0 0-1.444 1.23.497.497 0 1 0 .767.631c.427-.518.98-.938 1.646-1.251.236.527.635 1.512.902 2.678a.497.497 0 1 0 .968-.223 15.607 15.607 0 0 0-.613-2.013c.871.611 1.462 1.462 1.76 2.542.219.798.218 1.525.195 1.907a9.03 9.03 0 0 1-1.036.292c.005-.227.001-.46-.011-.695a.497.497 0 1 0-.992.052c.014.275.014.544.002.805a9.017 9.017 0 0 1-3.898-.454 5.908 5.908 0 0 1 .327-2.318.497.497 0 1 0-.932-.343 6.804 6.804 0 0 0-.38 2.821c.022.288.037.373.113.483a.496.496 0 0 0 .229.179 10.021 10.021 0 0 0 7.221 0 .497.497 0 0 0 .312-.386 6.761 6.761 0 0 0-.183-2.567c-.286-1.068-.96-2.434-2.526-3.37 6.003-2.698 8.063-7.57 8.72-11.282a.496.496 0 1 0-.979-.173c-.637 3.601-2.688 8.372-8.807 10.83-2.17-2.614-2.766-5.657-2.88-7.78a.498.498 0 0 0-.991.053c.103 1.94.587 4.6 2.18 7.091-1.765-.902-3.248-2.072-4.421-3.492-1.23-1.49-2.127-3.258-2.67-5.26a17.627 17.627 0 0 1-.59-4.606c.526.534 1.28 1.017 2.24 1.423 1.01.427 2.196.75 3.486.957a16.643 16.643 0 0 0-.23 2.127.497.497 0 1 0 .992.045c.041-.899.147-1.614.224-2.038.81.09 1.653.138 2.512.138 2.63 0 5.11-.437 6.984-1.229.962-.407 1.716-.89 2.242-1.425.002.485-.016 1.047-.071 1.663a.497.497 0 0 0 .99.088c.18-2.024.087-4.288-.712-5.332zm-3.973-3.694l.99.838a.496.496 0 0 0 .642 0l.991-.838a.464.464 0 0 1 .502-.068c.064.03.273.149.273.427v1.789c0 .85-.516 1.596-1.264 1.918v-1.19c0-.43-.176-.82-.495-1.099a1.458 1.458 0 0 0-1.763-.13V1.466c0-.16-.024-.314-.071-.46a.472.472 0 0 1 .195.101zm-4.515 0l.99.838a.497.497 0 0 0 .643 0l.991-.838a.467.467 0 0 1 .618.009c.071.062.156.173.156.35v1.789l-.001.031-.497-.42a1.455 1.455 0 0 0-1.587-.2c-.458-.224-1-.195-1.436.088V1.466c0-.16-.024-.314-.071-.46a.47.47 0 0 1 .194.101zm-4.514 0l.991.839a.497.497 0 0 0 .642 0l.99-.839a.466.466 0 0 1 .62.01.45.45 0 0 1 .155.35v1.82l-.499-.422a1.455 1.455 0 0 0-1.588-.198l-.025-.012a1.447 1.447 0 0 0-1.41.098V1.466c0-.16-.024-.314-.07-.46a.469.469 0 0 1 .194.101zM1.602 1.04a.463.463 0 0 1 .502.068l.99.839a.497.497 0 0 0 .642 0l.992-.839a.467.467 0 0 1 .773.36v1.82l-.498-.422a1.45 1.45 0 0 0-1.562-.21 1.45 1.45 0 0 0-.848 1.328v1.19A2.09 2.09 0 0 1 1.33 3.256V1.466c0-.278.208-.397.272-.427zm3.574 8.39c-.567-.152-1.1-.331-1.586-.537-1.594-.674-2.509-1.554-2.509-2.414 0-.298.108-.598.321-.894.348.302.765.527 1.226.649A3.087 3.087 0 0 0 5.176 8.81v.62zm-1.59-3.657v-1.79c0-.278.21-.396.273-.426a.5.5 0 0 1 .205-.045.45.45 0 0 1 .297.113l.991.838a.497.497 0 0 0 .642 0l.99-.838a.464.464 0 0 1 .502-.068c.064.03.273.148.273.427v1.789c0 1.15-.936 2.086-2.086 2.086a2.088 2.088 0 0 1-2.086-2.086zm6.105 4.265a21.224 21.224 0 0 1-2.332-.178l-.017-.002a18.236 18.236 0 0 1-1.172-.194V8.81a3.076 3.076 0 0 0 1.76-.947c.464.5 1.083.835 1.76.946v1.228zM8.498 6.994c.163-.375.254-.788.254-1.222v-1.79c0-.16-.026-.314-.073-.46a.47.47 0 0 1 .196.102l.992.838a.497.497 0 0 0 .641 0l.991-.838a.467.467 0 0 1 .62.009.45.45 0 0 1 .155.35v1.789a2.088 2.088 0 0 1-2.086 2.086c-.673 0-1.3-.326-1.69-.864zm5.707 2.669c-1.091.219-2.283.347-3.52.374V8.809a3.082 3.082 0 0 0 1.76-.945c.463.5 1.083.834 1.76.945v.854zm-1.193-2.669c.167-.383.255-.8.255-1.222v-1.79c0-.16-.025-.314-.072-.459a.469.469 0 0 1 .195.1l.99.839a.497.497 0 0 0 .642 0l.992-.839a.467.467 0 0 1 .618.01.451.451 0 0 1 .156.35v1.789a2.089 2.089 0 0 1-2.086 2.086c-.674 0-1.3-.326-1.69-.864zm3.772 1.898a12.31 12.31 0 0 1-1.586.537v-.62a3.082 3.082 0 0 0 2.194-1.54c.18-.32.298-.672.353-1.036a3.063 3.063 0 0 0 1.227-.649c.213.296.321.596.321.894 0 .86-.915 1.74-2.51 2.414z" fill="#38282B"/></symbol><symbol id="delivery-adv-icon-02" viewBox="0 0 42 30"><path d="M33.225 9.591h-2.584L31.42.653a.556.556 0 0 0 .002-.048V.601a.601.601 0 0 0-.363-.551l-.005-.003a.578.578 0 0 0-.041-.015l-.016-.005-.035-.01-.024-.005-.03-.005-.03-.004h-.005C30.863 0 30.852 0 30.84 0L30.821 0h-.008H18.517a.601.601 0 0 0 0 1.202h11.648L28.97 14.94v.004l-.303 3.466H7.776l.35-3.607h3.978a.601.601 0 1 0 0-1.203H8.243l.737-7.614h6.33a.601.601 0 1 0 0-1.203H9.098l.347-3.58h6.668a.602.602 0 0 0 0-1.202H8.899a.601.601 0 0 0-.587.474L8.309.48a.649.649 0 0 0-.007.046L8.3.54v.003l-.411 4.24H.601a.601.601 0 1 0 0 1.202h7.171l-.737 7.614H4.89a.601.601 0 1 0 0 1.203h2.028l-.402 4.146v.001l-.62 6.411-.001.002v.003l-.001.025-.002.033v.001l.002.046.001.015.007.046.002.013c.002.012.006.023.009.034l.006.024.002.007c.03.09.079.17.143.235l.004.004.02.018c.041.038.088.07.14.095l.031.016.01.003.046.017.005.001c.017.006.035.01.054.014l.007.001a.58.58 0 0 0 .113.01c0 .001 0 0 0 0h2.677A4.583 4.583 0 0 0 13.707 30a4.583 4.583 0 0 0 4.537-3.976h9.643A4.583 4.583 0 0 0 32.423 30a4.584 4.584 0 0 0 4.537-3.976h2.678l.06-.003.01-.002a.632.632 0 0 0 .047-.007c.006 0 .012-.003.019-.004a.585.585 0 0 0 .035-.01l.023-.007a.65.65 0 0 0 .03-.01l.024-.011a.791.791 0 0 0 .097-.056l.024-.017.02-.016.023-.022.017-.016a.557.557 0 0 0 .024-.026l.013-.015a.655.655 0 0 0 .025-.033l.008-.012a.593.593 0 0 0 .027-.045l.002-.003a.567.567 0 0 0 .025-.052l.006-.015.014-.037.006-.026.008-.03.005-.028.004-.024c.026-.204.496-3.981.707-6.423v-.007c.06-.704.1-1.297.1-1.66 0-4.31-3.506-7.816-7.816-7.816zm-2.688 1.203h2.459l-.314 3.607h-2.46l.315-3.607zm-16.83 18.004a3.379 3.379 0 0 1-3.375-3.375 3.379 3.379 0 0 1 3.376-3.375 3.379 3.379 0 0 1 3.374 3.375 3.379 3.379 0 0 1-3.374 3.375zm18.716 0a3.379 3.379 0 0 1-3.375-3.375 3.379 3.379 0 0 1 3.375-3.375 3.379 3.379 0 0 1 3.375 3.375 3.379 3.379 0 0 1-3.375 3.375zm6.683-3.977H36.96a4.583 4.583 0 0 0-4.536-3.976 4.583 4.583 0 0 0-4.537 3.976h-9.643a4.583 4.583 0 0 0-4.536-3.976A4.583 4.583 0 0 0 9.17 24.82H7.155l.505-5.21h21.558l.06-.003.011-.002a.604.604 0 0 0 .047-.007l.02-.005c.012-.003.024-.005.035-.009l.024-.008.03-.01a.549.549 0 0 0 .024-.012l.027-.013a.65.65 0 0 0 .049-.028l.022-.016a.783.783 0 0 0 .084-.073.671.671 0 0 0 .099-.137l.014-.028.01-.024.01-.029.01-.026.007-.028.007-.029.004-.028.004-.03v-.004l.302-3.46h3.107c1.842 0 2.673.955 3.552 1.966.726.833 1.536 1.764 2.913 1.99a223.72 223.72 0 0 1-.584 5.263zm.687-6.467c-.894-.182-1.443-.81-2.11-1.575-.832-.957-1.849-2.125-3.797-2.342l.31-3.571c3.188.471 5.642 3.225 5.642 6.541 0 .225-.017.553-.045.947z" fill="#38282B"/><path d="M13.708 23.218a2.207 2.207 0 0 0-2.205 2.204c0 1.216.99 2.205 2.205 2.205a2.207 2.207 0 0 0 2.204-2.204 2.207 2.207 0 0 0-2.204-2.205zm0 3.206a1.003 1.003 0 0 1 0-2.003 1.003 1.003 0 0 1 0 2.003zM32.424 23.218a2.207 2.207 0 0 0-2.205 2.204c0 1.216.99 2.205 2.205 2.205a2.207 2.207 0 0 0 2.204-2.204 2.207 2.207 0 0 0-2.204-2.205zm0 3.206a1.003 1.003 0 0 1 0-2.003 1.003 1.003 0 0 1 0 2.003zM5.691 9.592H2.752a.601.601 0 1 0 0 1.202h2.94a.601.601 0 1 0 0-1.202z" fill="#38282B"/></symbol><symbol id="delivery-adv-icon-03" viewBox="0 0 30 30"><path d="M22.715 27.189a.586.586 0 0 0-.8-.213l-.023.013a.586.586 0 0 0 .588 1.013l.022-.013a.586.586 0 0 0 .213-.8z" fill="#38282B"/><path d="M27.99 7.505A14.899 14.899 0 0 0 18.884.517a14.898 14.898 0 0 0-11.38 1.499A14.898 14.898 0 0 0 .518 11.12a14.899 14.899 0 0 0 1.499 11.38A14.993 14.993 0 0 0 15.013 30c1.82 0 3.637-.33 5.354-.99a.586.586 0 1 0-.42-1.095A13.736 13.736 0 0 1 6.729 26.1l.525-2.74.253-.083a1.825 1.825 0 0 0 1.17-2.296l-.185-.572a.647.647 0 0 1 0-.404 1.824 1.824 0 0 0-1.382-2.357l-1.323-.258-2.551-1.94a.586.586 0 0 0-.536-.091l-1.494.485a13.813 13.813 0 0 1-.002-1.6c.059.055.097.093.121.117.03.049.065.094.108.132.122.111.232.162.464.162.214 0 .53-.043 1.05-.12.495-.073.986-.155.991-.156a.586.586 0 0 0 .387-.908l-.718-1.054 1.03-.735a.586.586 0 0 0 .167-.186l1.595-2.784.643-.69a2.475 2.475 0 0 0 .477-2.624A2.695 2.695 0 0 0 6.452 4.14a13.866 13.866 0 0 1 1.639-1.11 13.738 13.738 0 0 1 6.752-1.847l-1.047 1.312-3.88 1.36a.586.586 0 0 0-.347.33L8.485 6.81a.586.586 0 0 0 .065.564l1.582 2.217c-.226.207-.447.508-.71.882a6.146 6.146 0 0 1-.3.405l-.197.223c-.34.383-.692.779-.942 1.308-.55 1.163-.439 2.516.29 3.53.704.98 1.865 1.478 3.105 1.332.202-.024.39-.07.572-.115.502-.125.662-.137.823.014.078.073.085.087.084.336-.001.158-.003.355.052.58.087.36.314.61.495.81.09.099.184.201.213.27.182.438.103.68-.072 1.212l-.045.14c-.265.82.104 1.633.43 2.35.106.234.206.454.271.648.527 1.563.922 1.921 1.239 2.066.166.075.338.108.511.108.845 0 1.726-.784 2.131-1.281.255-.313.317-.625.363-.854.023-.113.04-.203.075-.261.052-.09.114-.16.192-.248.157-.176.353-.396.48-.796.096-.303.165-.377.397-.623l.13-.14c.78-.848.579-1.497.366-2.184-.18-.578.134-.947.892-1.653.328-.306.667-.622.93-1.002.115-.166.464-.672.248-1.173-.212-.492-.75-.575-1.184-.64-.17-.027-.429-.067-.51-.12-.363-.237-.585-.732-.8-1.21-.043-.096-.085-.19-.127-.28-.076-.164-.153-.36-.233-.57-.213-.55-.455-1.176-.866-1.612-.37-.392-1.067-.58-1.681-.747a7.25 7.25 0 0 1-.531-.156.586.586 0 0 0-.337-.021c-.3.07-.486.147-.624.258a.729.729 0 0 0-.209.281 6.69 6.69 0 0 1-.691-.42l-.011-.008a.83.83 0 0 0-.053-.564c-.327-.692-1.413-.638-1.628-.62-.121.01-.275.016-.438.021-.256.01-.54.02-.82.051l.015-.04c.213-.592.778-.99 1.407-.99h.333a.586.586 0 0 0 0-1.172h-.333c-.934 0-1.789.492-2.268 1.265l-.874-1.224.86-2.084 3.791-1.33a.586.586 0 0 0 .264-.187l1.686-2.114c4.306.41 8.36 2.824 10.682 6.847a13.67 13.67 0 0 1 1.38 3.354l-.247.222a1.565 1.565 0 0 0-.522 1.152l-.405-1.113a1.465 1.465 0 0 0-.264-.452l-.722-.845a1.468 1.468 0 0 0-1.118-.516h-.883a.847.847 0 0 0-.706 1.32l.09.134a6.492 6.492 0 0 1-1.935 1.149l-1.211-2.32v-.518a.585.585 0 0 0-.182-.424l-1.09-1.04a.586.586 0 0 0-.21-.13l-.982-.345a.586.586 0 1 0-.389 1.106l.863.303.818.78v.412c0 .094.023.187.066.27l1.517 2.905c.136.261.446.38.722.279l.441-.163a7.668 7.668 0 0 0 2.75-1.76.586.586 0 0 0 .073-.74l-.031-.046h.28c.087 0 .17.038.227.105l.721.845a.297.297 0 0 1 .054.092l.797 2.19a.586.586 0 0 0 .964.214l.38-.379c.24-.24.405-.544.484-.88.586 4.699-1.256 9.56-5.151 12.617a.586.586 0 1 0 .723.922 14.988 14.988 0 0 0 5.44-8.889c.702-3.559.089-7.251-1.727-10.396zM2.77 16.567l2.416 1.837a.585.585 0 0 0 .243.109l1.456.284c.186.037.34.147.437.31a.643.643 0 0 1 .057.532c-.122.37-.122.761-.002 1.131l.186.572a.652.652 0 0 1-.418.82l-.583.19a.586.586 0 0 0-.394.446l-.469 2.446a13.978 13.978 0 0 1-2.669-3.329 13.751 13.751 0 0 1-1.702-4.88l1.442-.468zm3.415-9.345l-.69.739a.588.588 0 0 0-.08.108l-1.564 2.733-1.391.994a.586.586 0 0 0-.144.807l.52.763c-.3.045-.569.082-.748.101a29.659 29.659 0 0 0-.729-.656 13.849 13.849 0 0 1 4.128-7.837c.427.135.778.453.949.87a1.3 1.3 0 0 1-.25 1.378zm4.777 3.202c.262-.147.868-.169 1.311-.184.178-.007.345-.013.495-.025a1.59 1.59 0 0 1 .25 0 .586.586 0 0 0 .27.73c.109.059.262.16.424.269.458.305.977.65 1.465.682.443.029.69-.224.796-.332l.024-.024a.629.629 0 0 0 .157-.192l.293.08c.347.094.993.27 1.136.42.253.269.45.78.625 1.231.088.228.171.444.264.643l.12.263c.27.603.577 1.287 1.227 1.712.295.192.656.248.975.297l.128.02c-.19.264-.46.515-.744.78-.725.675-1.628 1.516-1.212 2.857.196.633.205.702-.11 1.045l-.121.13c-.27.287-.484.514-.66 1.071-.052.162-.118.237-.24.373-.096.108-.216.244-.327.434a1.899 1.899 0 0 0-.212.622c-.035.173-.054.26-.122.344a3.42 3.42 0 0 1-.74.654c-.275.174-.436.198-.491.195-.063-.067-.289-.36-.631-1.376-.085-.25-.202-.508-.315-.758-.25-.55-.507-1.118-.382-1.506l.044-.134c.2-.612.39-1.189.04-2.029-.107-.256-.277-.443-.427-.608-.097-.107-.207-.227-.224-.297a1.266 1.266 0 0 1-.02-.296c.003-.307.006-.77-.454-1.2-.649-.607-1.405-.42-1.905-.296-.154.038-.299.074-.428.089-.823.096-1.558-.214-2.016-.853-.48-.667-.55-1.566-.182-2.345.178-.377.447-.68.758-1.03l.206-.233c.114-.131.24-.31.373-.498.158-.226.454-.645.582-.725z" fill="#38282B"/><path d="M24.025 20.173l-.282-1.063a.586.586 0 0 0-1.081-.129 6.202 6.202 0 0 0-.178.365c-.094.204-.192.415-.293.531-.057.066-.203.136-.344.204-.337.163-.8.386-.976.949-.11.349-.068.625-.038.826.025.175.031.236-.015.345l-.006.014c-.187.438-.534 1.253-.047 1.945.347.494.712.622.996.622a.949.949 0 0 0 .156-.013c.598-.098 1.047-.72 1.414-1.957l.69-2.322a.585.585 0 0 0 .004-.317zm-1.817 2.306c-.188.63-.353.925-.449 1.056a1.203 1.203 0 0 1-.035-.048c-.112-.16.055-.553.166-.813l.006-.013c.178-.42.13-.741.096-.977-.023-.15-.03-.215-.003-.304.023-.073.16-.144.367-.243.092-.045.193-.093.295-.152l-.443 1.494zM15.822 6.964l-.04-.013a.586.586 0 0 0-.387 1.105l.04.014a.584.584 0 0 0 .746-.359.586.586 0 0 0-.359-.747z" fill="#38282B"/></symbol><symbol id="delivery-adv-icon-04" viewBox="0 0 24 30"><path d="M23.064 6.074L11.788.066a.56.56 0 0 0-.533.003L.29 6.077A.561.561 0 0 0 0 6.57v7.848A16.25 16.25 0 0 0 9.74 29.29l1.521.663a.56.56 0 0 0 .447 0l1.715-.74a16.218 16.218 0 0 0 9.938-14.95V6.57a.561.561 0 0 0-.297-.496zm-.826 8.188a15.098 15.098 0 0 1-9.255 13.919l-.003.002-1.494.644-1.297-.566a15.126 15.126 0 0 1-9.067-13.843V6.902L11.528 1.2l10.71 5.707v7.356z" fill="#38282B"/><path d="M7.387 14.054a.561.561 0 0 0-.854.729l2.965 3.472a.561.561 0 0 0 .781.071l6.906-5.618a.561.561 0 1 0-.709-.871l-6.48 5.272-2.61-3.055z" fill="#38282B"/></symbol><symbol id="logo-applepay" viewBox="0 0 60 60"><path d="M30 60c16.569 0 30-13.431 30-30C60 13.431 46.569 0 30 0 13.431 0 0 13.431 0 30c0 16.569 13.431 30 30 30z" fill="#F2F2F2"/><path d="M17.966 34.206c-1.137 2.598-2.777 4.812-4.396 6.084-2.912 2.289-4.16-.623-6.863-.623-1.874 0-3.048 1.397-4.562 1.495A29.926 29.926 0 0 1 0 30c0-3.816.713-7.465 2.012-10.822 2.11.203 2.748 1.283 4.695 1.283 2.148 0 2.703-1.318 5.407-1.318 1.754 0 3.923 1.08 5.448 2.972a6.53 6.53 0 0 0 .404 12.09z" fill="#353535"/><path d="M5.782 18.898c0 .175.01.347.023.518a6.239 6.239 0 0 0 6.008-6.752 6.239 6.239 0 0 0-6.03 6.234zM21.573 20.224c0-.54.481-1.021 1.232-1.021h5.86c3.696 0 6.58 1.773 6.58 6.61v.24c0 4.808-2.975 6.641-6.76 6.641h-3.727v7.422c0 .691-.78 1.052-1.592 1.052-.782 0-1.593-.36-1.593-1.052V20.224zm3.185 1.803v8.143h3.726c2.224 0 3.576-1.262 3.576-3.906v-.36c0-2.645-1.352-3.877-3.576-3.877h-3.726zM46.57 32.574v7.542c0 .571-.66 1.052-1.532 1.052-.81 0-1.442-.48-1.442-1.052v-1.051c-1.052 1.232-2.494 2.343-4.537 2.343-2.194 0-3.996-1.262-3.996-3.966 0-3.395 2.854-4.297 7.03-4.297h1.323v-.54c0-1.533-.781-3.246-2.975-3.246-2.193 0-2.734.902-3.335.902-.751 0-1.142-.871-1.142-1.593 0-1.082 2.494-1.923 4.537-1.923 4.417 0 6.07 2.825 6.07 5.83zm-3.154 2.314h-.751c-2.284 0-4.417.24-4.417 2.164 0 1.352.841 1.953 1.953 1.953 1.502 0 3.215-1.563 3.215-3.005v-1.112zM47.049 28.637c-.09-.12-.12-.24-.12-.42 0-.811 1.232-1.502 2.073-1.502.42 0 .811.18.962.57l3.786 9.766 3.245-9.766c.18-.39.54-.57.901-.57.751 0 2.103.66 2.103 1.562 0 .12 0 .27-.06.36l-4.447 11.75c-1.352 3.545-2.824 7.541-7.09 7.541-.812 0-1.473-.21-1.473-1.352 0-.721.24-1.352.871-1.352 1.533 0 3.876-1.532 4.297-4.928l-5.048-11.659z" fill="#353535"/></symbol><symbol id="logo-mastercard" viewBox="0 0 60 60"><path d="M30 60c16.569 0 30-13.431 30-30C60 13.431 46.569 0 30 0 13.431 0 0 13.431 0 30c0 16.569 13.431 30 30 30z" fill="#3C80AD"/><path d="M20.192 15.44c-7.57.047-13.7 6.22-13.7 13.817 0 7.627 6.177 13.816 13.788 13.816 3.57 0 6.827-1.364 9.277-3.6h.001c.503-.458.97-.954 1.4-1.48h-2.824c-.377-.456-.72-.933-1.028-1.424h4.87a13.8 13.8 0 0 0 .805-1.479h-6.479a13.48 13.48 0 0 1-.576-1.451h7.631c.461-1.378.71-2.852.71-4.382 0-1.017-.11-2.006-.317-2.96H25.32c.105-.491.236-.976.393-1.45h7.635c-.17-.508-.37-1-.595-1.48h-6.452c.232-.5.496-.983.79-1.452h4.869a13.715 13.715 0 0 0-1.07-1.478h-2.714c.42-.496.881-.963 1.382-1.395a13.713 13.713 0 0 0-9.278-3.602h-.09z" fill="#931B1D"/><path d="M52.56 29.261c.002 7.63-6.167 13.817-13.784 13.82-7.613.002-13.787-6.183-13.79-13.814v-.006c-.002-7.632 6.17-13.82 13.784-13.821 7.614-.003 13.79 6.182 13.791 13.813v.008z" fill="#F16622"/><path d="M52.56 29.413c.002 7.63-6.167 13.819-13.784 13.82-7.613.003-13.787-6.183-13.79-13.812v-.008c-.002-7.63 6.17-13.818 13.784-13.82 7.614-.003 13.79 6.182 13.791 13.813v.007z" fill="#F7981D"/><path d="M20.192 15.596c-7.57.05-13.7 6.22-13.7 13.818 0 7.627 6.177 13.817 13.788 13.817a13.72 13.72 0 0 0 9.277-3.6v-.002h.001c.503-.458.97-.952 1.4-1.48h-2.824c-.377-.455-.72-.93-1.028-1.422h4.87c.298-.475.566-.97.805-1.48h-6.479a13.581 13.581 0 0 1-.576-1.45h7.631a13.94 13.94 0 0 0 .392-7.342h-8.428c.105-.491.236-.977.393-1.451h7.635c-.17-.508-.37-1.001-.595-1.48h-6.452c.232-.498.496-.983.79-1.452h4.869a13.97 13.97 0 0 0-1.07-1.48h-2.714c.42-.494.881-.96 1.382-1.394a13.714 13.714 0 0 0-9.278-3.602h-.09z" fill="#CB2026"/><path d="M25.236 32.931l.184-1.25c-.1 0-.248.043-.379.043-.51 0-.567-.272-.534-.473l.413-2.552h.776l.188-1.384h-.732l.15-.86h-1.47c-.031.033-.866 4.839-.866 5.423 0 .866.484 1.252 1.17 1.246.535-.005.953-.153 1.1-.193zM25.704 30.547c0 2.08 1.369 2.574 2.535 2.574 1.078 0 1.55-.242 1.55-.242l.26-1.42s-.819.365-1.559.365c-1.576 0-1.3-1.179-1.3-1.179h2.984s.192-.954.192-1.342c0-.97-.482-2.15-2.093-2.15-1.477 0-2.569 1.593-2.569 3.394zm2.575-2.078c.828 0 .675.933.675 1.009h-1.63c0-.096.154-1.009.955-1.009zM37.572 32.931l.263-1.605s-.72.364-1.214.364c-1.041 0-1.459-.799-1.459-1.653 0-1.738.896-2.694 1.894-2.694.748 0 1.348.422 1.348.422l.24-1.558s-.89-.362-1.653-.362c-1.695 0-3.344 1.472-3.344 4.241 0 1.834.89 3.047 2.642 3.047.495 0 1.283-.202 1.283-.202zM17.162 27.175a5.07 5.07 0 0 0-1.778.324l-.213 1.267s.638-.258 1.6-.258c.546 0 .946.061.946.507 0 .27-.049.37-.049.37s-.43-.037-.63-.037c-1.27 0-2.603.543-2.603 2.181 0 1.29.874 1.586 1.416 1.586 1.036 0 1.482-.673 1.506-.676l-.048.563h1.292l.577-4.053c0-1.718-1.496-1.774-2.016-1.774zm.315 3.298c.028.248-.155 1.408-1.04 1.408-.455 0-.574-.35-.574-.556 0-.402.219-.886 1.295-.886.25 0 .276.028.32.034zM20.554 33.084c.33 0 2.22.084 2.22-1.87 0-1.828-1.749-1.467-1.749-2.201 0-.365.285-.481.806-.481.207 0 1.004.067 1.004.067l.185-1.3s-.515-.115-1.353-.115c-1.088 0-2.189.433-2.189 1.92 0 1.686 1.838 1.515 1.838 2.225 0 .474-.514.513-.91.513-.684 0-1.3-.236-1.303-.225l-.196 1.285c.034.012.415.182 1.647.182zM49.732 26.01l-.316 1.968s-.553-.764-1.417-.764c-1.346 0-2.467 1.625-2.467 3.492 0 1.206.598 2.386 1.82 2.386.88 0 1.367-.614 1.367-.614l-.064.524h1.428l1.122-6.996-1.473.003zm-.681 3.84c0 .776-.385 1.813-1.18 1.813-.529 0-.776-.445-.776-1.142 0-1.14.511-1.894 1.155-1.894.53 0 .8.365.8 1.223zM9.214 33.008l.895-5.282.13 5.282h1.012l1.887-5.282-.836 5.282h1.502l1.159-7.004h-2.325l-1.447 4.297-.075-4.296H8.974L7.8 33.008h1.414zM31.832 33.018c.427-2.434.506-4.412 1.526-4.052.179-.941.35-1.306.545-1.705 0 0-.09-.02-.283-.02-.656 0-1.144.9-1.144.9l.13-.825h-1.367l-.915 5.702h1.508zM40.96 27.175a5.065 5.065 0 0 0-1.778.324l-.212 1.267s.636-.258 1.6-.258c.545 0 .946.061.946.507 0 .27-.05.37-.05.37s-.43-.037-.632-.037c-1.27 0-2.602.543-2.602 2.181 0 1.29.875 1.586 1.417 1.586 1.036 0 1.482-.673 1.506-.676l-.048.563H42.4l.577-4.053c0-1.718-1.496-1.774-2.017-1.774zm.316 3.298c.027.248-.155 1.408-1.04 1.408-.455 0-.573-.35-.573-.556 0-.402.218-.886 1.292-.886.251 0 .277.028.32.034zM44.157 33.018c.427-2.434.507-4.412 1.527-4.052.178-.941.35-1.306.546-1.705 0 0-.093-.02-.284-.02-.658 0-1.144.9-1.144.9l.13-.825h-1.367l-.916 5.702h1.508z" fill="#fff"/></symbol><symbol id="logo-mir" viewBox="0 0 60 60"><path d="M30 60c16.569 0 30-13.431 30-30C60 13.431 46.569 0 30 0 13.431 0 0 13.431 0 30c0 16.569 13.431 30 30 30z" fill="#F2F2F2"/><path fill-rule="evenodd" clip-rule="evenodd" d="M18.472 23v.006c-.006 0-1.953-.006-2.472 1.854-.476 1.706-1.817 6.416-1.854 6.545h-.37s-1.373-4.814-1.855-6.55C11.402 22.993 9.45 23 9.45 23h-4.45v14.153h4.45v-8.405h.371l2.596 8.405h3.09l2.596-8.399h.37v8.4h4.45V23h-4.45zM34.728 23s-1.305.117-1.916 1.483l-3.152 6.922h-.371V23h-4.45v14.153h4.203s1.365-.123 1.977-1.483l3.09-6.922h.371v8.405h4.45V23h-4.202zM40.91 29.428v7.725h4.45v-4.511h4.82a4.815 4.815 0 0 0 4.542-3.214H40.91z" fill="#4DB45E"/><path fill-rule="evenodd" clip-rule="evenodd" d="M50.18 23h-9.896a7.109 7.109 0 0 0 6.99 5.81h7.627c.068-.322.099-.65.099-.99A4.82 4.82 0 0 0 50.18 23z" fill="url(#a)"/></symbol><symbol id="logo-nal" viewBox="0 0 60 60"><path d="M30 60c16.569 0 30-13.431 30-30C60 13.431 46.569 0 30 0 13.431 0 0 13.431 0 30c0 16.569 13.431 30 30 30z" fill="#F2F2F2"/><path d="M47.188 20.119H12.813V39.88h34.375V20.119z" fill="#44C4A1"/><path d="M14.063 21.329V38.67h31.874V21.33H14.064zm30.624 14.316c-1.035 0-1.874.813-1.874 1.815H17.186c0-1.002-.839-1.815-1.875-1.815V24.354c1.036 0 1.876-.813 1.876-1.815h25.625c0 1.002.839 1.815 1.874 1.815v11.291z" fill="#31978C"/><path d="M30.001 36.125c2.772 0 5.019-2.742 5.019-6.125 0-3.382-2.247-6.124-5.019-6.124-2.772 0-5.019 2.742-5.019 6.124 0 3.383 2.247 6.125 5.02 6.125zM41 31.266c.722 0 1.308-.567 1.308-1.266 0-.7-.586-1.266-1.309-1.266-.722 0-1.308.567-1.308 1.266 0 .7.586 1.266 1.308 1.266zM19.002 31.266c.722 0 1.308-.567 1.308-1.266 0-.7-.586-1.266-1.308-1.266-.723 0-1.309.567-1.309 1.266 0 .7.586 1.266 1.308 1.266z" fill="#31978C"/><path d="M29.792 34.167v-.734c-.867-.094-1.645-.459-2.333-1.096l.692-.875c.531.49 1.077.782 1.64.875v-1.95c-.714-.181-1.237-.418-1.569-.714-.332-.294-.498-.732-.498-1.312 0-.58.191-1.054.574-1.422.383-.369.88-.57 1.494-.604v-.502h.606v.513c.695.053 1.353.305 1.973.753l-.617.926a2.96 2.96 0 0 0-1.356-.583v1.89h.029c.727.18 1.26.425 1.602.733.342.308.512.756.512 1.343 0 .586-.196 1.063-.588 1.432-.392.368-.91.57-1.555.603v.724h-.606zm-.67-6.49a.739.739 0 0 0-.24.564c0 .225.063.401.189.532s.367.257.72.377v-1.739c-.284.027-.507.116-.668.267zm1.997 4.409a.74.74 0 0 0 .265-.584c0-.234-.07-.42-.208-.558-.14-.136-.399-.265-.778-.387v1.81c.303-.033.544-.127.721-.281z" fill="#44C4A1"/></symbol><symbol id="logo-paypal" viewBox="0 0 60 60"><path d="M30 60c16.569 0 30-13.431 30-30C60 13.431 46.569 0 30 0 13.431 0 0 13.431 0 30c0 16.569 13.431 30 30 30z" fill="#F3F2F2"/><path d="M43.974 24.958c-1.248 0-2.235.331-2.99.482l-.232 1.898c.377-.182 1.568-.512 2.555-.543.988-.03 1.568.18 1.365 1.025-2.932 0-4.907.601-5.314 2.499-.58 3.253 2.99 3.163 4.414 1.747l-.174.782h2.613l1.132-5.18c.464-2.198-1.54-2.74-3.369-2.71zm.175 5.3c-.145.693-.697.995-1.364 1.025-.581.03-1.104-.483-.726-1.085.29-.512 1.104-.632 1.597-.632h.64c-.06.24-.09.452-.147.693zM49.578 22.91l-2.162 9.939h2.654l2.19-9.94h-2.682zM37.383 22.94h-4.86l-2.153 9.91h2.822l.728-3.284h2.008c1.98 0 3.609-1.204 4.045-3.252.495-2.32-1.193-3.374-2.59-3.374zm-.086 3.373c-.175.753-.932 1.355-1.66 1.355h-1.309l.582-2.71h1.397c.728 0 1.164.602.99 1.356z" fill="#1A80AD"/><path d="M18.528 24.958c-1.234 0-2.21.33-2.927.482l-.228 1.897c.344-.181 1.52-.511 2.495-.543.976-.03 1.55.181 1.376 1.025-2.896 0-4.846.602-5.248 2.5-.574 3.252 2.954 3.162 4.33 1.746l-.17.783h2.61l1.118-5.181c.458-2.198-1.55-2.739-3.356-2.71zm.2 5.3c-.143.693-.718.994-1.376 1.025-.574.03-1.062-.483-.688-1.085.286-.512 1.09-.632 1.548-.632h.66c-.058.24-.115.451-.143.693zM23.02 25.1h2.61l.421 4.615 2.554-4.614h2.693l-6.201 11.043h-2.918l1.907-3.246-1.066-7.797zM12.036 22.94H7.163l-2.16 9.909h2.86l.7-3.283h2.042c1.955 0 3.59-1.205 4.027-3.253.496-2.32-1.167-3.373-2.596-3.373zm-.088 3.373c-.175.753-.904 1.355-1.634 1.355H8.972l.613-2.71h1.4c.7 0 1.167.602.963 1.355zM52.834 24.195v-1.173h-.438v-.157h1.054v.157h-.44v1.173h-.176zM53.625 24.195v-1.33h.264l.315.94c.03.088.05.153.063.197l.07-.213.32-.924h.237v1.33h-.17v-1.113l-.387 1.113h-.158l-.385-1.132v1.132h-.169z" fill="#1A5B80"/></symbol><symbol id="logo-visa" viewBox="0 0 60 61"><path d="M30 60.003c16.569 0 30-13.431 30-30 0-16.568-13.431-30-30-30-16.569 0-30 13.432-30 30 0 16.569 13.431 30 30 30z" fill="#F3F2F2"/><path d="M22.214 35.757l2.296-13.555h3.716L25.93 35.757h-3.716zM39.163 22.553c-.737-.275-1.891-.57-3.332-.57-3.673 0-6.26 1.84-6.283 4.474-.02 1.948 1.847 3.034 3.258 3.683 1.447.663 1.933 1.088 1.926 1.681-.009.909-1.156 1.324-2.224 1.324-1.488 0-2.279-.206-3.5-.711l-.478-.216-.522 3.034c.868.379 2.474.707 4.14.723 3.907 0 6.445-1.817 6.473-4.63.014-1.543-.976-2.716-3.12-3.684-1.3-.626-2.096-1.044-2.087-1.68 0-.563.674-1.166 2.128-1.166a6.892 6.892 0 0 1 2.783.52l.332.156.506-2.938zM45.498 22.202c-.89 0-1.534.272-1.925 1.154l-5.508 12.402H42l.765-2.077h4.702l.436 2.077h3.499l-3.06-13.556h-2.844zm-1.689 8.766c.307-.78 1.48-3.788 1.48-3.788-.02.035.306-.785.493-1.294l.252 1.168.86 3.915H43.81zM15.437 31.494l-.328-1.858c-.678-2.167-2.783-4.51-5.142-5.685l3.284 11.806h3.935l5.903-13.555h-3.935l-3.717 9.292z" fill="#293688"/><path d="M5.926 22.202v.219c4.664 1.121 7.902 3.957 9.183 7.215l-1.347-6.277c-.225-.858-.907-1.127-1.714-1.157H5.926zM29.997 60.002c11.58 0 21.62-6.564 26.62-16.17H3.378c5.002 9.606 15.042 16.17 26.62 16.17z" fill="#F7981D"/><path d="M29.998 0C18.602 0 8.69 6.353 3.613 15.711h52.771C51.304 6.354 41.394 0 29.998 0z" fill="#293688"/></symbol><symbol id="remove-icon" viewBox="0 0 26 30"><path d="M17.138 10.87a.703.703 0 0 0-.703.702V24.85a.703.703 0 0 0 1.406 0V11.572a.703.703 0 0 0-.703-.703zM8.848 10.87a.703.703 0 0 0-.702.702V24.85a.703.703 0 0 0 1.405 0V11.572a.703.703 0 0 0-.703-.703z" fill="#38282B"/><path d="M2.806 8.931v17.31c0 1.023.375 1.984 1.03 2.674A3.46 3.46 0 0 0 6.346 30H19.64a3.459 3.459 0 0 0 2.51-1.085c.655-.69 1.03-1.65 1.03-2.674V8.931a2.684 2.684 0 0 0-.688-5.278h-3.597v-.878A2.76 2.76 0 0 0 16.113 0H9.874a2.76 2.76 0 0 0-2.782 2.775v.878H3.495a2.684 2.684 0 0 0-.689 5.278zM19.64 28.595H6.347c-1.201 0-2.136-1.032-2.136-2.354V8.993h17.564v17.248c0 1.322-.934 2.354-2.135 2.354zM8.497 2.775a1.352 1.352 0 0 1 1.377-1.37h6.239a1.353 1.353 0 0 1 1.377 1.37v.878H8.497v-.878zM3.495 5.06h18.997a1.265 1.265 0 1 1 0 2.529H3.495a1.265 1.265 0 1 1 0-2.53z" fill="#38282B"/><path d="M12.993 10.87a.703.703 0 0 0-.703.702V24.85a.703.703 0 0 0 1.405 0V11.572a.703.703 0 0 0-.702-.703z" fill="#38282B"/></symbol><symbol id="search-icon" viewBox="0 0 20 20"><path d="M19.541 18.7l-5.711-5.81a7.96 7.96 0 0 0 1.735-4.973C15.565 3.55 12.074 0 7.782 0 3.492 0 0 3.551 0 7.917c0 4.365 3.491 7.916 7.783 7.916a7.662 7.662 0 0 0 4.888-1.765l5.712 5.81c.16.163.419.163.579 0l.58-.59a.422.422 0 0 0-.001-.588zM7.783 14.167c-3.389 0-6.145-2.804-6.145-6.25 0-3.447 2.756-6.25 6.145-6.25 3.388 0 6.144 2.803 6.144 6.25 0 3.446-2.756 6.25-6.144 6.25z" fill="#fff"/></symbol><symbol id="temp-icon-left-arrow" viewBox="0 0 31.494 31.494"><path d="M10.273 5.01a1.117 1.117 0 0 1 1.587 1.57l-8.047 8.047h26.554c.62 0 1.127.492 1.127 1.11 0 .62-.508 1.128-1.127 1.128H3.813l8.047 8.032c.43.444.43 1.16 0 1.587a1.112 1.112 0 0 1-1.587 0L.32 16.532a1.12 1.12 0 0 1 0-1.57l9.953-9.953z" fill="#1E201D"/></symbol><symbol id="temp-icon-right-arrow" viewBox="0 0 31.49 31.49"><path d="M21.205 5.007a1.117 1.117 0 0 0-1.587 1.57l8.047 8.048H1.11c-.618 0-1.11.493-1.11 1.112 0 .62.492 1.127 1.11 1.127h26.555l-8.047 8.032c-.43.444-.43 1.16 0 1.587.444.444 1.16.444 1.587 0l9.952-9.952a1.092 1.092 0 0 0 0-1.57l-9.952-9.95z" fill="#1E201D"/></symbol></svg>